<?xml version="1.0" encoding="utf-8"?>
<!-- Generator: Adobe Illustrator 24.0.0, SVG Export Plug-In . SVG Version: 6.00 Build 0)  -->
<svg version="1.1" id="Layer_1" xmlns="http://www.w3.org/2000/svg" xmlns:xlink="http://www.w3.org/1999/xlink" x="0px" y="0px"
	 viewBox="0 0 275.8 65.3" style="enable-background:new 0 0 275.8 65.3;" xml:space="preserve">
<style type="text/css">
	.st0{fill:#CE0058;}
	.st1{fill:#53565A;}
</style>
<g>
	<path class="st0" d="M60.4,65H15.1C7.6,65,1.6,58.9,1.6,51.4c0-7.5,6-13.6,13.4-13.6h14.7L15.5,52l7.3,7.3l14.8-14.8l14.8,14.8
		l7.3-7.3L45.5,37.8h14.7c7.4,0,13.4,6.1,13.4,13.6C73.6,58.9,67.7,65,60.4,65z M60.2,27.5H42.8V8H32.4v19.5H15
		c-7.4,0-13.4-6.1-13.4-13.6c0-7.5,6-13.6,13.3-13.6h45.3c7.4,0,13.3,6.1,13.3,13.6C73.6,21.4,67.6,27.5,60.2,27.5z"/>
	<path class="st1" d="M172.1,23.6l2.3,0.3c-0.2,1.7-0.6,3.1-1.1,4.7l-2.3-0.8C171.5,26.6,171.9,24.6,172.1,23.6z M165.2,23.6
		l-2.3,0.4c0.5,1.5,1,3.1,1.3,5.4l2.3-0.4C166.2,26.8,165.7,24.9,165.2,23.6z M173.3,13.9l1.8-2.3c0,0-1.4-1.3-4.1-3.2
		c0.3-0.4,0.5-0.8,0.8-1.3l-3.4-0.9c0,0-2.9,5.3-6.7,8.3l1.7,2.7l0,0v0h4v2.3h-4.5v2.9h4.5v7.9c-1.7,0.3-3.1,0.6-4.6,0.9l0.5,2.9
		c3.6-0.6,11.4-2.2,11.4-2.2l0-3c-1.6,0.4-2.9,0.7-4.2,0.9v-7.4h3.7v-2.9h-3.7v-2.3h3.1v-2.9h-7.1c0.9-1,2-2.2,3-3.6
		C170.2,11.2,171.7,12.2,173.3,13.9z M100.7,50.9c0,2.5,0.2,5-1.7,6.9c-1.1,1.1-2.7,1.6-4.4,1.6h-6.1V42.5h6.1
		c1.7,0,3.3,0.5,4.4,1.6C100.9,46,100.7,48.4,100.7,50.9z M97.4,50.9c0-2.6-0.1-3.6-0.7-4.4c-0.6-0.7-1.3-1-2.5-1h-2.5v11h2.5
		c1.1,0,1.9-0.4,2.5-1C97.3,54.6,97.4,53.4,97.4,50.9z M127.6,49.4h-5.7v-6.9h-3.3v16.8h3.3v-7h5.7v7h3.3V42.5h-3.3V49.4z
		 M145.2,49.5c-0.9-0.2-2.9-0.2-3.5-0.9c-1.2-1.4-0.1-3.4,2.1-3.3c1.1,0,2.4,0.1,3.4,1.2l2.1-2.1c-1.4-1.4-3.1-2-5.4-2
		c-3.6,0-5.9,2.1-5.9,5.1c0,4.1,3.1,4.6,6.5,5c1.4,0.2,2,0.7,2,2c0,1.3-1,2.1-3,2.1c-1.6,0-3-0.4-4.1-1.4l-2.1,2.1
		c3.3,3.6,12.5,3,12.4-2.9C149.7,51.4,148.3,49.9,145.2,49.5z M152.8,59.4h3.3V42.5h-3.3V59.4z M169.6,52.8l-6.7-10.3H160v16.8h3.3
		V49l6.7,10.3h2.9V42.5h-3.3V52.8z M182.4,52.7h3.1c0,1-0.1,2.1-0.8,2.9c-0.9,1.2-3.5,1.3-4.4,0.1c-0.6-0.7-0.8-1.5-0.8-4.7
		s0.2-4,0.8-4.7c0.5-0.5,1.2-0.9,2.1-0.9c1.7,0,2.6,0.9,3,2.5h3.3c-0.4-2.8-2.4-5.4-6.3-5.4c-1.9,0-3.4,0.7-4.5,1.8
		c-1.7,1.7-1.7,3.8-1.7,6.7s0,5,1.7,6.7c2.3,2.4,6.8,2.5,9.3-0.1c1.9-1.8,1.6-4.8,1.6-7.6h-6.4V52.7z M207.9,54.5
		c0,3.1-2.1,4.8-5.1,4.8h-7V42.5h6.8c3.3,0,5.2,1.8,5.2,4.7c0,1.9-1.2,3.1-2.1,3.5C206.6,51.2,207.9,52.3,207.9,54.5z M199,49.3h3.2
		c1.4,0,2.2-0.8,2.2-1.9c0-1.2-0.8-1.9-2.2-1.9H199V49.3z M204.6,54.4c0-1.1-0.7-2.1-2.2-2.1H199v4.1h3.4
		C203.9,56.4,204.6,55.5,204.6,54.4z M235.9,52.8l-6.7-10.3h-2.9v16.8h3.3V49l6.7,10.3h2.9V42.5h-3.3V52.8z M250.7,49.2l5.6-6.7h-4
		l-5.9,7.3v-7.3h-3.3v16.8h3.3v-5.1l2.2-2.6l4.3,7.7h3.8L250.7,49.2z M112.9,34.5l2.2-3.4c-5.7-2.5-10.3-7.4-11.4-13.6h10.8v-3.4
		h-11.1V6.5h-4.4v7.6H88.6v3.4h10.2c-1.3,6-5.2,10.5-11,13.4l2.3,3.4c3.1-2,5.7-4.1,7.5-6.2c1.5-1.7,2.7-4.3,3.6-7.2
		C103.5,27.5,107.5,31.2,112.9,34.5z M152.9,10.2L151.5,7c-2.8,1.4-6.3,2-10.5,2c0,7.5,1.1,17.3-3.1,23.5l2.9,1.9
		c2.3-3,3.3-9.8,3.6-15.6h2.9v15.6h3.4V18.9h2.2v-3h-8.5v-4.2C147.6,11.7,150.1,11.3,152.9,10.2z M139.2,9.1h-4.5l-0.6-2.9L130.6,7
		l0.5,2.2h-4.8v2.9h12.9V9.1z M135.1,24h4.1v-3h-4.9V19h4.9v-3H137c0.4-0.8,0.8-1.4,1.3-2.6l-2.9-0.8c-0.5,1.3-1.1,2.4-1.7,3.3h-1.6
		c-0.3-1.2-0.9-2.2-1.4-3.2l-3,0.6c0.4,0.9,0.8,1.7,1.1,2.6h-2.5v3h4.9V21h-4.9v3h4.3c0,0-1.7,2.7-5.5,4.7l1.1,2.7
		c3.3-1.6,4.9-3.9,4.9-3.9v6.9h3.2v-7.4c0.7,0.7,1.8,1.9,2.6,2.8l1.9-2.2C137.9,26.5,136.4,25,135.1,24z M225.3,7.8H212v3.3h13.3
		V7.8z M218.3,28.3c0,1.5,0,2-0.1,2.3c-0.3,0.5-1.2,0.4-2,0.4c-1.1,0-1.9,0-1.9,0v3.3h4.9c1.8,0,2.7-1.1,2.7-3.2V19h4.9v-3.5h-16.3
		V19h7.7C218.3,19,218.3,25.3,218.3,28.3z M203.6,24.1v10.3h3.4V20.4c1-1.2,1.9-2.5,2.7-3.8l-2.8-2.1c-2,3.3-4.8,6.2-8.1,8.6
		l2.1,3.3C202,25.6,202.5,25.1,203.6,24.1z M209.1,8.7l-2.9-2c-1.9,2.7-4.3,5-7.1,6.9l2.1,3.3C204.2,15,207.1,11.9,209.1,8.7z
		 M190.2,31.9l-2,2.6c-6.4-4.8-7.8-11.1-8.1-13.9h-1.2l0,10c1-0.3,2.1-0.7,3.2-1v3c0,0-4.2,1.4-6.5,2v-3c0,0,0,0,0-0.1l0-24.1h13.1
		v13.2h-5.3c0.1,1,0.5,2.6,1.2,4.2c1-0.7,2.3-1.7,3.3-2.8l1.9,2.1c-1,1.2-2.5,2.5-3.8,3.3C186.9,28.9,188.3,30.4,190.2,31.9z
		 M178.9,12.6h6.5v-2.3h-6.5V12.6z M178.9,17.7h6.5v-2.3h-6.5V17.7z M116.5,59.4h-3.4l-1-3h-6l-1,3h-3.4l6.1-16.8h2.6L116.5,59.4z
		 M109.1,47.3l-2.1,6.3h4.2L109.1,47.3z M224.2,59.4h-3.4l-1-3h-6l-1,3h-3.4l6.1-16.8h2.6L224.2,59.4z M216.8,47.3l-2.1,6.3h4.2
		L216.8,47.3z"/>
</g>
</svg>
