<?xml version="1.0" encoding="UTF-8"?>
<svg width="460px" height="46px" viewBox="0 0 460 46" version="1.1" xmlns="http://www.w3.org/2000/svg" xmlns:xlink="http://www.w3.org/1999/xlink">
    <!-- Generator: Sketch 63.1 (92452) - https://sketch.com -->
    <title>HASE_Logo_88thAnniversary_PWS</title>
    <desc>Created with Sketch.</desc>
    <g id="HASE_Logo_88thAnniversary_PWS" stroke="none" stroke-width="1" fill="none" fill-rule="evenodd">
        <g id="logo" transform="translate(0.000000, 3.860140)">
            <g id="HSB-Logo/Dark">
                <g id="Logo">
                    <polygon id="Fill-1" fill="#000000" points="362.872705 11.789265 356.880539 18.2331606 356.880539 11.789265 353.752831 11.789265 353.752831 26.5258463 356.880539 26.5258463 356.880539 21.902824 359.123238 19.8376787 363.53228 26.5258463 367.186483 26.5258463 361.218314 17.6469078 366.73198 11.789265"></polygon>
                    <polygon id="Fill-2" fill="#000000" points="262.734059 20.3580349 269.250466 20.3580349 269.250466 17.6834787 262.734059 17.6834787 262.734059 14.4742905 270.084376 14.4742905 270.084376 11.789265 259.717269 11.789265 259.717269 26.5258463 270.165664 26.5258463 270.165664 23.8401228 262.734059 23.8401228"></polygon>
                    <path d="M254.112839,18.3273703 L251.447736,17.6900132 C250.371318,17.3989657 249.271516,16.9664471 249.271516,15.9702542 C249.271516,15.0963749 249.996436,14.2188115 251.615082,14.2188115 C253.097806,14.2188115 254.164724,14.7905908 254.690144,15.8884661 L254.780759,16.0778312 L257.5014,15.0027976 L257.436362,14.8053274 C256.790365,12.7643109 254.599529,11.4932808 251.723235,11.4932808 C248.466943,11.4932808 246.189877,13.4186151 246.189877,16.1809873 C246.189877,19.1098828 248.087675,19.992604 249.942359,20.4649114 L252.652769,21.0801637 C253.610803,21.3645797 254.593683,21.7941511 254.613414,22.8669742 L254.613414,23.1926526 C254.613414,23.7858 254.336454,24.2551601 253.784725,24.5801018 C253.310458,24.8586232 252.516847,25.0310412 251.723235,25.0310412 C250.060743,25.0310412 248.698596,24.2021085 248.162944,22.8802371 L248.080368,22.6768723 L245.246458,23.7953788 L245.310035,23.9950595 C246.045185,26.3514388 248.475712,27.8177287 251.638466,27.8177287 C255.14395,27.8177287 257.691399,25.7914487 257.691399,22.9996034 L257.691399,22.6768723 C257.686284,20.3470188 256.476136,18.8851499 254.112839,18.3273703" id="Fill-3" fill="#000000"></path>
                    <path d="M230.909199,11.5890686 C226.632757,11.5890686 224.71742,14.4951224 224.71742,17.3680189 L224.71742,22.4234031 C224.71742,26.1473372 227.983213,27.842044 231.014429,27.842044 C233.913377,27.842044 236.83644,26.2372303 236.83644,22.6569779 L236.83644,19.2196703 L229.939473,19.2196703 L229.939473,22.1102507 L233.838108,22.1102507 L233.838108,22.4012982 C233.838108,24.1851614 232.420422,24.9883051 231.014429,24.9883051 C230.153587,24.9883051 229.360706,24.7348359 228.779747,24.2713704 C228.165904,23.7754844 227.841444,23.0894966 227.841444,22.2760373 L227.841444,17.2199163 C227.841444,15.3019502 229.38336,14.4398602 230.909199,14.4398602 C231.59758,14.4398602 233.838108,14.6115414 233.838108,16.8352915 L233.838108,17.212548 L236.83644,17.212548 L236.83644,16.5825591 C236.83644,14.2807051 235.282101,11.5890686 230.909199,11.5890686" id="Fill-5" fill="#000000"></path>
                    <polygon id="Fill-7" fill="#000000" points="282.469255 21.9762215 276.18467 12.0415553 276.122555 11.9339782 273.135184 11.9339782 273.135184 27.4913871 276.176631 27.4913871 276.176631 17.4366177 282.500678 27.4913871 285.510703 27.4913871 285.510703 11.9339782 282.469255 11.9339782"></polygon>
                    <polygon id="Fill-9" fill="#000000" points="347.129896 11.9336835 347.129896 21.9759268 340.843849 12.0412605 340.782465 11.9336835 337.797287 11.9336835 337.797287 27.4910923 340.832888 27.4910923 340.832888 17.4370598 347.160589 27.4910923 350.166959 27.4910923 350.166959 11.9336835"></polygon>
                    <path d="M294.415595,11.5890686 C290.140615,11.5890686 288.220163,14.4951224 288.220163,17.3680189 L288.220163,22.4234031 C288.220163,26.1473372 291.493263,27.842044 294.522287,27.842044 C297.415389,27.842044 300.337721,26.2372303 300.337721,22.6569779 L300.337721,19.2196703 L293.450984,19.2196703 L293.450984,22.1102507 L297.342312,22.1102507 L297.342312,22.3055104 C297.342312,24.0945314 295.92828,24.8925173 294.522287,24.8925173 C292.327067,24.8925173 291.344917,23.5765406 291.344917,22.2760373 L291.344917,17.2199163 C291.344917,15.3019502 292.889756,14.4398602 294.415595,14.4398602 C295.827435,14.4398602 297.342312,15.0683754 297.342312,16.8352915 L297.342312,17.212548 L300.337721,17.212548 L300.337721,16.5825591 C300.337721,14.2807051 298.787036,11.5890686 294.415595,11.5890686" id="Fill-11" fill="#000000"></path>
                    <path d="M331.168656,21.4793777 L327.463674,21.4793777 L329.326396,15.9914748 L331.168656,21.4793777 Z M327.978864,11.9337572 L322.248929,27.491166 L325.418991,27.491166 L326.558255,24.2424867 L332.085767,24.2424867 L333.186301,27.491166 L336.482785,27.491166 L330.79085,11.9337572 L327.978864,11.9337572 Z" id="Fill-13" fill="#000000"></path>
                    <path d="M316.149446,18.197099 L312.993269,18.197099 L312.993269,14.683898 L316.024485,14.683898 C317.489671,14.683898 318.232129,15.2556773 318.232129,16.3962887 C318.232129,17.5361633 317.472863,18.197099 316.149446,18.197099 L316.149446,18.197099 Z M312.993269,20.9174719 L316.382561,20.9174719 C317.909861,20.9174719 318.653781,21.524619 318.653781,22.7779652 C318.653781,24.0305747 317.816323,24.7416147 316.362099,24.7416147 L312.993269,24.7416147 L312.993269,20.9174719 Z M319.408662,19.2338174 C320.691156,18.5294089 321.313768,17.4750065 321.313768,16.0345057 C321.313768,13.390763 319.59793,11.9325783 316.490714,11.9325783 L309.843668,11.9325783 L309.843668,27.4914608 L316.84952,27.4914608 C319.22597,27.4914608 321.772689,26.0649597 321.772689,22.9481728 C321.772689,21.1620991 320.908193,19.8100178 319.408662,19.2338174 L319.408662,19.2338174 Z" id="Fill-15" fill="#000000"></path>
                    <polygon id="Fill-17" fill="#000000" points="189.235234 11.9336835 189.235234 18.1547313 183.340146 18.1547313 183.340146 11.9336835 180.196392 11.9336835 180.196392 27.4910923 183.340146 27.4910923 183.340146 20.9804707 189.235234 20.9804707 189.235234 27.4910923 192.381911 27.4910923 192.381911 11.9336835"></polygon>
                    <polygon id="Fill-19" fill="#000000" points="218.84126 11.9336835 218.84126 21.9759268 212.56252 12.0412605 212.499674 11.9336835 209.510111 11.9336835 209.510111 27.4910923 212.551558 27.4910923 212.551558 17.4296915 218.875605 27.4910923 221.883437 27.4910923 221.883437 11.9336835"></polygon>
                    <path d="M202.750455,21.4793777 L199.038895,21.4793777 L200.908925,15.9981063 L202.750455,21.4793777 Z M202.376303,11.9337572 L199.565047,11.9337572 L193.833651,27.491166 L197.00079,27.491166 L198.141515,24.2424867 L203.664643,24.2424867 L204.767368,27.491166 L208.063853,27.491166 L202.376303,11.9337572 Z" id="Fill-21" fill="#000000"></path>
                    <path d="M18.6478274,38.3152586 C28.9333558,38.3152586 37.2867394,29.8984603 37.2867394,19.5165388 C37.2867394,9.13461726 28.9333558,0.719292531 18.6478274,0.719292531 C8.34914521,0.719292531 0.000146153156,9.13461726 0.000146153156,19.5165388 C0.000146153156,29.8984603 8.34914521,38.3152586 18.6478274,38.3152586" id="Fill-23" fill="#E60012"></path>
                    <path d="M18.6431505,35.9090697 C27.6184158,35.9090697 34.9026891,28.5636207 34.9026891,19.5035706 C34.9026891,10.4457309 27.6184158,3.10175562 18.6431505,3.10175562 C9.6518083,3.10175562 2.37703494,10.4457309 2.37703494,19.5035706 C2.37703494,28.5636207 9.6518083,35.9090697 18.6431505,35.9090697 M3.12168527,19.5013601 C3.12168527,10.8539342 10.0632294,3.85332127 18.6431505,3.85332127 C27.2048024,3.85332127 34.1507311,10.8539342 34.1507311,19.5013601 C34.1507311,28.144365 27.2048024,35.1545567 18.6431505,35.1545567 C10.0632294,35.1545567 3.12168527,28.144365 3.12168527,19.5013601" id="Fill-26" fill="#FFFFFF"></path>
                    <path d="M18.2684869,11.2166751 L17.1379922,11.2166751 C16.9224163,11.2166751 16.7572632,11.0346784 16.7572632,10.8136296 C16.7572632,10.583739 16.9224163,10.4061632 17.1379922,10.4061632 L18.2684869,10.4061632 L18.2684869,6.7662276 L15.5544227,6.7662276 L16.2128427,11.8636111 L12.4187068,11.8636111 C12.4187068,11.8636111 13.8488154,21.7371205 9.99548744,29.9704485 C12.2922843,29.9822377 15.0640789,29.9704485 15.0640789,29.9704485 L15.0516559,29.9704485 C17.7152972,22.3862669 17.4222601,21.4880723 17.4222601,21.4880723 L18.2684869,21.4880723 L18.2684869,18.0979218 L17.4134909,18.0979218 C17.1949919,18.0979218 17.0269158,17.9137145 17.0269158,17.7000341 C17.0269158,17.4679329 17.1949919,17.2844625 17.4134909,17.2844625 L18.2684869,17.2844625 L18.2684869,11.2166751 Z" id="Fill-28" fill="#FFFFFF"></path>
                    <path d="M19.0346217,11.2166751 L20.1424626,11.2166751 C20.3536539,11.2166751 20.5231916,11.0346784 20.5231916,10.8136296 C20.5231916,10.583739 20.3536539,10.4061632 20.1424626,10.4061632 L19.0346217,10.4061632 L19.0346217,6.7662276 L21.7267628,6.7662276 L21.0712659,11.8636111 L24.8829403,11.8636111 C24.8829403,11.8636111 23.4352932,21.7371205 27.2915443,29.9704485 C24.9889013,29.9822377 22.219299,29.9704485 22.219299,29.9704485 C19.5527346,22.3862669 19.8560024,21.4880723 19.8560024,21.4880723 L19.0346217,21.4880723 L19.0346217,18.0979218 L19.8713485,18.0979218 C20.0861937,18.0979218 20.2586544,17.9137145 20.2586544,17.7000341 C20.2586544,17.4679329 20.0861937,17.2844625 19.8713485,17.2844625 L19.0346217,17.2844625 L19.0346217,11.2166751 Z" id="Fill-30" fill="#FFFFFF"></path>
                    <path d="M15.5648727,17.3045042 L15.5648727,15.7777944 C15.5648727,15.4381162 15.311297,15.1684368 14.9999907,15.1684368 C14.6864922,15.1684368 14.4263396,15.4381162 14.4226858,15.7696893 L14.4226858,17.3045042 L15.5648727,17.3045042 Z M14.4226858,18.0715433 L14.4226858,21.2642236 C14.4226858,21.4300102 14.4818778,21.5810601 14.584185,21.6930581 C14.6937999,21.8080035 14.839953,21.8684234 14.9780678,21.8684234 C15.1351824,21.8721076 15.276951,21.8028457 15.3960658,21.689374 C15.4961807,21.5781128 15.5648727,21.4248524 15.5648727,21.2723287 L15.5648727,18.0715433 L14.4226858,18.0715433 Z M15.8929865,22.2331538 L15.8250253,22.2965211 L16.169216,23.6287081 C16.2181773,23.8276519 16.1071009,24.047227 15.9105249,24.0921736 C15.719795,24.1555409 15.5268729,24.0324904 15.4720654,23.8224941 L15.1592977,22.6207259 C15.1015672,22.6258837 15.0387213,22.6339888 14.9736832,22.6339888 C14.9239911,22.6339888 14.8757606,22.6258837 14.8238762,22.6207259 L14.5176853,23.8224941 C14.4599548,24.0324904 14.2699557,24.1555409 14.0806874,24.0921736 C13.8753422,24.047227 13.7628043,23.8276519 13.8183425,23.6287081 L14.156687,22.3031526 L14.0806874,22.2375748 C13.8300347,21.97379 13.70142,21.6326381 13.70142,21.2642236 L13.70142,15.7696893 C13.70142,15.0240183 14.2896864,14.4109765 15.0065676,14.413181 C15.7081028,14.4168711 16.2824847,15.0291761 16.2788482,15.7777944 L16.2788482,21.2723287 C16.2788482,21.6363223 16.1465623,21.97379 15.8929865,22.2331538 L15.8929865,22.2331538 Z" id="Fill-32" fill="#E60012"></path>
                    <path d="M22.313787,19.246933 L21.5545214,17.6841186 L22.313787,16.1183568 L23.0745142,17.6841186 L22.313787,19.246933 Z M23.8681258,17.6841186 L22.313787,14.4811226 L20.7594482,17.6841186 L21.9630194,20.148075 L21.9630194,23.7180118 C21.9630194,23.9339027 22.1223264,24.1011629 22.3159793,24.1011629 C22.5162091,24.1011629 22.6806314,23.9339027 22.6806314,23.7180118 L22.6806314,20.1377593 L23.8681258,17.6841186 Z" id="Fill-34" fill="#E60012"></path>
                    <path d="M94.5578768,8.67048863 C93.9681488,10.3607745 94.1596095,12.4850527 94.1369557,14.2696527 C94.4402235,14.6152255 95.0014516,14.4428075 95.4347958,14.4428075 C96.4403295,14.3271254 97.8419382,13.7435567 98.5917039,14.7154343 C98.7619724,15.130269 98.8891256,15.6099448 98.8518566,16.0601473 C98.307436,16.250986 97.6892082,16.2362495 97.1710953,16.3276163 C96.139254,16.6783469 94.7405683,16.5523491 94.2290322,17.7121181 C94.0814175,18.1674784 94.0814175,18.6611539 94.2100323,19.1216721 L94.5330308,19.4053513 C95.920755,19.1216721 97.1477107,19.6234527 98.4192432,19.8518697 C98.9095871,20.3263876 99.1887396,21.0499537 99.1887396,21.7189945 L98.9775483,21.8737286 C97.4794784,21.7189945 95.9762932,21.9083596 94.4767618,21.8435186 C93.8176111,22.1021456 93.8176111,22.8492903 93.580843,23.3658075 C93.5158048,24.0112697 93.0948837,25.0774614 93.8439186,25.4812437 C94.9305674,25.7914487 96.0997926,25.2896682 97.2492872,25.5497688 C98.8759718,25.8702895 101.017116,25.6160834 101.754458,27.3874205 C101.769804,27.9518316 101.616344,28.4572963 101.318191,28.8750784 C100.695579,28.8750784 100.160658,28.4838221 99.508815,28.4396124 C97.5737472,28.281931 93.7635344,27.8332021 93.5019203,27.8693067 C93.2242293,27.9098323 91.0070859,28.2163532 90.0417443,29.0688644 C89.3920935,29.4976989 88.4720594,29.2751766 87.8253317,29.6649591 C86.7693751,29.7902201 85.6293805,30.0149529 84.5990007,29.7290633 C83.8901579,29.7717993 83.3384298,30.3001058 82.6946251,30.3575785 C82.4125495,29.5514875 82.320473,28.648135 82.1604353,27.7926765 C82.0435128,27.441209 82.2788194,27.1980554 82.4775877,26.9386916 C82.9672008,26.7419582 83.3077376,27.3498422 83.7893123,27.3874205 C85.1353828,27.5657331 86.4142229,26.893745 87.8253317,26.8569036 L90.9383939,25.8702895 C91.6085061,25.2425111 91.6976595,24.2116872 91.5054681,23.3098085 C91.4148532,23.2132839 91.3235075,23.0180242 91.172239,23.0813915 C90.4473193,23.2840194 89.6434769,23.3466499 88.8834805,23.4129645 C88.3639061,23.5787511 87.9108313,23.9346395 87.3729877,24.0112697 C86.7174907,23.2641251 86.754029,22.126461 86.7299138,21.2032142 C87.3729877,21.0234279 87.9780617,21.3940529 88.685443,21.2614237 C89.6938998,21.0691113 90.6329338,20.7662745 91.5544295,20.3529134 C92.2106571,19.8128177 91.9526968,18.8092565 91.7714669,18.1424262 C91.2847769,17.9501139 90.7045489,18.0945324 90.2083589,18.1424262 C89.356286,18.2242143 88.535636,18.6611539 87.6536017,18.5078935 C87.1011428,17.9729556 87.0565661,17.2331792 86.6086066,16.6488737 C86.0627246,16.695294 85.999148,17.3267565 85.5884576,17.5551735 C84.4579629,18.6375754 82.7808555,18.6810483 81.3441699,18.9956743 C81.2323628,18.9087285 81.0606328,18.9242019 81.0160561,18.7436788 C81.2323628,18.1188477 81.9536286,17.7121181 82.1750506,17.0578139 C82.7560094,16.4690874 83.4641215,15.9577281 83.8536196,15.2584773 C85.0074988,14.0530249 86.0627246,12.7296799 86.4967995,11.1926545 C86.5749914,10.9443431 86.4324921,10.5847705 86.754029,10.4970879 C87.5264485,10.5412976 87.9108313,11.544122 88.5992126,11.8395904 C88.8652114,11.9876931 89.1619023,12.052534 89.3277861,12.3627391 L89.3277861,12.6795756 C88.3639061,13.4399832 86.7693751,14.1362866 87.0565661,15.6327865 C87.8253317,16.1058307 88.8834805,16.1574087 89.7625918,16.1271988 C90.3333198,15.7175218 91.1115854,15.7632052 91.75539,15.4360531 C92.1412344,15.1538476 92.1229652,14.6977504 92.2106571,14.2696527 C91.9526968,12.5307361 92.6388859,10.4241418 91.5054681,9.00206171 C91.7334671,8.54154355 92.3458488,8.56733257 92.8076928,8.42070358 C93.4149591,8.76185544 94.2290322,7.87692373 94.5578768,8.67048863" id="Fill-36" fill="#000000"></path>
                    <path d="M119.119572,9.51386318 C119.57484,9.65607119 120.022799,9.9986967 120.299028,10.4260576 C120.133875,11.26899 118.890843,10.5771075 118.693536,11.5261434 C118.644575,12.2025524 118.952227,13.0690634 118.565652,13.6762106 C117.873617,14.3445145 117.367196,15.0850277 117.20862,15.9743804 C117.188158,16.1946923 117.367196,16.2551123 117.506772,16.3590052 C117.79104,16.44153 118.020501,16.2890064 118.177615,16.0355372 C118.30623,15.7813312 118.161539,15.3849172 118.502075,15.1955521 C118.913496,15.122606 119.381187,15.0680807 119.761916,15.122606 C119.874453,15.2773401 119.896376,15.5168096 120.108299,15.5610193 C120.497797,15.6708068 121.056102,15.3237603 121.180332,15.7813312 C121.204447,17.0361511 119.206534,17.1201496 119.596032,18.3764432 C119.750223,18.6792799 120.149221,18.5017041 120.372105,18.4184424 C120.755757,18.3572856 121.289947,17.9682399 121.593215,18.3764432 C121.726945,19.4861077 120.866103,20.1964109 120.17626,20.9059773 C119.853992,21.1903933 119.297149,21.1609202 119.190457,21.6759637 C119.190457,21.989116 118.990958,22.5174225 119.335148,22.7060507 C120.066645,22.5174225 120.563566,21.7010159 121.335254,21.601544 C121.661907,21.6347013 121.726945,21.989116 121.824137,22.2145857 C121.810252,22.7620497 122.241404,23.1466745 122.091597,23.6845597 C121.871636,23.838557 121.661907,23.6558234 121.442677,23.6845597 C120.738219,24.0050804 120.133875,24.614438 119.381187,24.7419094 C119.036265,24.9857998 119.057457,25.4426339 119.119572,25.7646282 C119.761916,26.1566212 120.372105,25.2820051 121.056102,25.6349463 C121.547176,27.4048097 119.635493,28.1460597 118.61169,29.0855168 C117.351119,29.6462437 115.919549,29.8525558 114.504056,29.9218177 C113.947212,30.0131845 113.451753,30.6446471 112.888333,30.3182318 C112.482027,29.9218177 112.288374,29.3898272 112.376797,28.8055217 C112.680795,28.5815257 113.024986,28.8423632 113.351638,28.8659417 C114.118211,28.6787871 114.75617,28.1659541 115.518359,27.9095376 C116.116856,27.5993325 116.924352,27.4748084 117.272927,26.8065045 C117.489965,25.497896 117.506772,24.1391833 117.644156,22.7981544 C117.105582,22.118798 116.373355,22.8453114 115.751473,22.9278363 C115.295475,22.8873107 114.631209,23.7877158 114.413441,22.9020473 C114.381287,22.3236364 113.814213,21.8896441 113.996904,21.2331294 C114.395172,20.868399 114.989284,20.9059773 115.532243,20.8286103 C116.309047,20.2406207 117.79104,20.4999845 117.959116,19.2215861 C117.946693,18.9813798 117.830502,18.7463313 117.601041,18.6387543 C116.849083,18.7463313 116.071548,19.4861077 115.403628,18.6991743 C113.638829,19.8316806 112.248182,21.9810109 109.934577,21.6347013 C109.738732,21.4269155 109.996692,21.2331294 110.103384,21.0415539 C111.154956,19.3910568 112.680795,17.8790835 113.665137,16.1740611 C115.283783,14.7792437 115.663781,12.8833825 117.253197,11.471618 C117.506772,11.0074157 117.553541,10.1946932 118.281384,10.1718515 C118.758574,9.81375261 117.553541,8.97745162 118.565652,9.12481744 L119.119572,9.51386318 Z" id="Fill-38" fill="#000000"></path>
                    <path d="M122.559652,13.1036944 C122.75769,13.195798 122.798613,13.4168467 122.734305,13.5737913 C122.522383,14.1544126 121.920232,14.3194623 121.442311,14.4771437 C120.37247,14.3194623 120.262125,13.1316939 119.725012,12.4405482 C119.725012,12.3366553 119.698704,12.2018156 119.833896,12.135501 C120.738584,12.4619163 121.633772,12.829594 122.559652,13.1036944" id="Fill-40" fill="#000000"></path>
                    <path d="M130.750075,8.76480275 C131.411418,9.28205676 132.123184,9.75289053 132.683682,10.4248786 C132.791104,10.962027 131.967531,10.962027 132.080069,11.483702 C132.33876,12.9632548 131.626263,14.0869191 131.564148,15.4294216 C131.368303,16.4027728 131.242611,17.4026499 131.175381,18.419474 C131.175381,18.5697871 131.216304,18.8586241 131.458918,18.8122039 C131.734417,18.6987322 132.012839,18.7466261 132.232799,18.9647275 C132.570413,19.4856656 133.239794,19.8857638 133.173295,20.5209105 C132.94018,20.7618536 132.545567,20.6056458 132.295645,20.8060633 C131.892262,21.4485782 131.368303,21.9592008 130.793921,22.4484553 C130.677729,22.5972948 130.701114,22.8448693 130.750075,22.988551 C131.843301,23.9523234 132.989142,24.9116748 134.335943,25.3670352 C135.870551,25.8864997 137.443159,26.2667035 138.930267,26.9342706 C138.949998,26.9563755 139.017959,27.019006 138.996036,27.0816364 C137.369352,28.1316179 135.133939,27.6453107 133.239794,27.997515 C132.144376,28.079303 131.13592,27.5996273 130.677729,26.6108027 C129.431043,25.3574564 128.667393,23.7438008 127.267976,22.7616076 C127.295015,22.0991983 126.814902,21.6755216 126.381557,21.2216349 C126.233212,21.1118474 126.063674,20.9733235 125.890483,21.1604781 C125.376754,22.0579359 125.766253,23.3643338 125.568215,24.3258957 C125.522908,25.0118836 125.20064,25.6993451 125.501715,26.3477547 C125.915329,26.3713332 126.217866,25.9343936 126.621249,25.8282902 C127.114515,25.665451 127.502552,25.0966189 128.086434,25.1806175 C128.27351,25.549032 128.037473,25.9609194 127.91105,26.3072291 C127.221207,28.2524578 125.092487,29.5161197 123.44534,30.4548399 C122.866574,30.5042074 122.536268,31.4849269 121.872002,31.0236719 C121.48835,30.3339999 120.243125,29.8359035 120.580739,28.8058164 C120.881083,28.5442421 121.380196,28.8058164 121.701003,28.5810836 C123.44534,27.9312003 122.925766,25.8489214 123.44534,24.4261045 C123.589301,23.3643338 123.907184,22.3452992 123.786608,21.1604781 C123.509648,19.9793411 123.9313,18.7134688 123.65434,17.5986464 C123.633147,16.0358319 124.024107,14.4597546 123.329149,12.9868333 C123.166188,12.3362132 122.839536,11.600121 123.114304,10.8817127 L123.329149,10.7564517 C124.574374,11.4026508 125.915329,10.6945581 126.99467,10.1249892 C128.127357,9.75289053 129.150429,9.06174487 130.337193,8.74269788 L130.750075,8.76480275 Z M128.875661,11.4247557 L126.883593,12.462211 C126.409326,12.746627 125.766253,12.5469463 125.424985,13.151883 C125.268601,13.6322955 125.178717,14.3941768 125.587946,14.7139606 C126.923055,14.3455461 128.251587,13.8747123 129.279044,12.8490463 C129.377697,12.440843 129.588158,12.0046401 129.431043,11.5618059 C129.309736,11.3599147 129.071506,11.4719127 128.875661,11.4247557 L128.875661,11.4247557 Z M128.36851,15.6246813 C127.612898,16.005622 126.864594,16.466877 126.044674,16.695294 C125.549946,16.9701312 125.587946,17.5986464 125.568215,18.1129531 C125.631061,18.419474 125.614253,18.8586241 126.044674,18.8122039 L127.89205,17.9685346 C128.70247,17.6340142 128.532201,16.6658208 128.791623,15.9746751 C128.766046,15.7808891 128.578239,15.5841557 128.36851,15.6246813 L128.36851,15.6246813 Z M129.263698,19.2218808 C128.468624,19.4856656 127.867204,20.1967057 127.069208,20.4752271 L127.010747,20.8856408 C127.069208,21.2216349 127.368822,21.4485782 127.649436,21.6018387 C128.640354,22.1957229 129.240313,21.0411118 129.952079,20.5872251 C130.136963,20.2851252 130.643383,20.0522872 130.493576,19.6146107 C130.276539,19.1673555 129.691196,19.3036688 129.263698,19.2218808 L129.263698,19.2218808 Z" id="Fill-42" fill="#000000"></path>
                    <path d="M116.759564,24.6789105 C116.692334,25.7657334 116.023683,26.719927 115.062726,27.2489703 C114.157307,27.3211796 114.118577,26.3470915 113.734925,25.8276271 C113.690348,25.2514267 114.413806,25.5874208 114.74192,25.3980557 C115.363071,25.1158502 115.919914,24.6354376 116.63095,24.5462813 L116.759564,24.6789105 Z" id="Fill-44" fill="#000000"></path>
                    <path d="M69.0049705,15.0936486 C69.4865451,15.6389021 70.8969231,15.3338549 70.5702708,16.4214146 L69.6020061,17.8965464 C69.4733914,19.6045162 68.7828177,21.0575431 68.6761259,22.7633023 C68.3977041,23.3527656 68.3187814,24.3939051 67.4966699,24.3415902 C66.9369033,24.0387535 66.4553287,24.5228501 65.9291773,24.5928489 C64.3616847,24.8360025 62.9447299,25.6553564 61.3085453,25.5205167 C60.6793559,25.3215729 59.97709,25.6266201 59.3135547,25.5588318 C59.0387868,25.2073643 59.1805553,24.6930577 59.050479,24.281907 C58.2897518,22.1119455 58.1991369,19.6818832 57.5268324,17.4618172 C57.5728706,17.2857151 57.659101,17.1096129 57.8264463,17.0005622 C58.1742908,16.872354 58.5813274,16.9828783 58.9196719,17.0425615 C60.9797007,16.3926783 62.8979609,15.3743805 65.0449507,14.8998626 C66.2572912,13.7983031 67.7568225,14.8770209 69.0049705,15.0936486 M66.2572912,16.4567824 C64.1621857,17.5649733 61.9574653,18.2981182 59.9361671,19.4917813 C59.7169374,19.6818832 59.605861,19.9987197 59.8674752,20.1858743 C60.4674339,20.3619764 61.0345081,20.0650343 61.6359283,19.9987197 C62.791269,19.6045162 63.9254175,19.2103126 65.0953736,18.8492664 C65.3723338,18.6886376 65.6310249,18.932528 65.7947164,19.1719975 C65.9912924,19.7010408 65.7369859,20.2079792 65.4139874,20.6213403 C63.9502636,21.4016422 62.3403866,21.786267 60.7487787,22.2062596 C60.5171259,22.2784688 60.2993577,22.4383607 60.2197043,22.6962509 C60.2197043,22.8929843 60.1656276,23.1722425 60.3892419,23.3181346 C61.2530071,23.5200258 62.2168871,23.37266 63.0455755,23.1722425 C64.2257623,22.6151997 66.1688685,22.8929843 66.5130592,21.2248033 C66.3844444,19.6818832 67.1130179,18.5140091 66.8579806,16.9158269 C66.8959804,16.5592016 66.5780973,16.380889 66.2572912,16.4567824" id="Fill-46" fill="#000000"></path>
                    <path d="M53.4858437,8.29920047 C53.4858437,8.65950988 53.1204608,8.88424275 52.9962307,9.17750071 C52.4781177,10.1611675 52.9509232,11.2818845 53.2264219,12.1918684 C53.1051148,13.7112099 53.6173816,15.0323444 53.7686501,16.456635 C53.6451507,17.7578752 53.7540348,19.0023794 53.8044576,20.2962513 C53.8541497,22.6371572 53.7014196,25.1055346 53.6685352,27.4493878 C53.4493054,28.2908466 53.6013047,29.3069339 53.4178825,30.1734449 C52.7609241,31.440054 51.0187785,30.9522732 49.8144764,31.1121651 L49.7413999,30.905853 C51.0823551,26.9682384 51.1035473,22.586316 51.578545,18.2869184 C51.7013137,16.4212672 51.8701206,14.4185658 51.6823138,12.5801773 C51.981197,11.3496728 51.6201987,10.1611675 50.9362019,9.2253946 C51.4221612,8.77003424 52.0674273,8.7029828 52.5906556,8.29920047 C52.8223084,8.14225588 53.3206907,7.90720741 53.4858437,8.29920047" id="Fill-48" fill="#000000"></path>
                    <path d="M68.3370506,9.57605155 C68.5307035,10.1610938 68.2478971,10.7888722 68.2084358,11.3923352 C67.2175174,12.6464183 65.8451392,13.50114 64.339031,13.7531355 C63.0463063,14.9652193 61.1404691,15.0330076 59.4421695,14.7876435 C58.563789,14.4184922 58.726019,13.3412481 58.6587885,12.5602093 C59.2945548,12.1903211 60.0633204,12.8726248 60.6632791,12.3723178 C62.0173881,11.8020122 63.3495741,11.259706 64.7891827,10.9325539 C65.9299081,10.5317188 66.7052506,8.99174611 68.0410904,9.24374165 L68.3370506,9.57605155 Z" id="Fill-50" fill="#000000"></path>
                    <path d="M57.8023311,12.0603444 C57.8483693,12.3064453 57.9426381,12.5805457 57.8995229,12.8192784 C56.9714504,13.2481129 56.2633383,14.1868331 55.1774204,14.2502004 C54.6929227,14.1190448 54.024272,14.2781999 53.7012735,13.8663125 C53.5317358,13.1626407 54.4758852,13.0447481 54.6308076,12.4317063 C54.9457676,11.7641391 55.7006487,11.4649865 55.8957631,10.7458414 C56.8574509,10.2580605 57.0949498,11.6307731 57.8023311,12.0603444" id="Fill-52" fill="#000000"></path>
                    <path d="M49.370317,16.0884415 C49.7700459,17.3329458 49.8138918,19.0151266 49.3213557,20.2301577 C48.8675501,20.8564624 48.0556694,20.7945688 47.3643649,20.7945688 C46.8959441,20.7518327 46.4341001,20.5101528 46.2039089,20.0643712 C46.1834474,19.1278614 46.8528289,18.452926 47.1970196,17.6527296 C47.7735938,17.0006359 48.1397074,16.215913 48.7148201,15.6153973 C49.0553569,15.4643473 49.2585098,15.8290777 49.370317,16.0884415" id="Fill-54" fill="#000000"></path>
                    <path d="M71.4959318,26.1054116 C72.9348096,26.1054116 72.4166967,27.7478036 72.9552711,28.5531578 C72.9735402,28.8979938 72.5920805,28.7661014 72.4013506,28.8552577 C70.3829755,28.1353757 68.0554865,28.6371563 65.9559964,28.7985218 C65.1989231,28.9827291 64.5120032,29.3268283 63.8258142,29.6561909 C62.035438,30.0857622 60.1961005,30.3900726 58.2800326,30.5256492 C57.5266131,30.3068109 56.6957324,30.4777553 56.0906584,30.9065898 C55.9174669,30.9065898 55.7252755,30.7621713 55.6748526,30.5882796 C55.5294302,29.8418718 55.5732762,29.0284125 55.2502777,28.3483193 C55.1633166,28.1353757 55.3781617,28.0034833 55.505315,27.9003272 C55.9174669,27.8133814 56.1966194,28.0491667 56.5532331,28.0491667 C58.0271877,27.9607472 59.464604,28.0896923 60.7076366,27.448651 C61.7818623,27.297601 62.7472039,26.8171885 63.8645448,26.7302427 C65.4546911,26.5069834 66.8358384,25.4105818 68.6408299,25.9086782 C69.4863259,26.2704613 70.5517824,25.9086782 71.4959318,26.1054116" id="Fill-56" fill="#000000"></path>
                    <path d="M152.407561,8.67947795 C151.911372,8.83273839 152.151793,9.42220164 151.954487,9.76998496 C151.029337,11.3711145 149.740997,12.9759282 148.456311,14.2779052 C148.396388,14.3817981 148.396388,14.5129536 148.517695,14.5741105 C148.75154,14.5940048 148.991962,14.6080046 149.234576,14.6080046 C149.712497,14.6080046 150.19188,14.5542161 150.60257,14.399482 C152.217562,14.0391726 152.558099,12.1271011 153.872016,11.3187997 C154.125592,11.0446992 155.050741,11.4160611 154.770858,10.6799689 C154.645897,10.1848197 154.097092,9.90850883 153.740478,9.66167109 C153.226019,9.42220164 153.014828,8.70231965 152.407561,8.67947795" id="Fill-58" fill="#000000"></path>
                    <path d="M165.046448,9.30335112 C163.383225,9.62166127 161.796002,10.2833338 160.246778,10.8823758 C160.080164,10.9707953 159.906241,11.0002684 159.727204,11.0002684 C159.559128,11.0002684 159.386667,10.9737426 159.214937,10.9479536 C159.044669,10.9221646 158.875131,10.8963756 158.710709,10.8963756 C158.505363,10.8963756 158.306595,10.937638 158.126096,11.0680567 C157.955097,11.8284643 158.603286,12.4127698 158.726055,13.0943366 C158.924092,13.6108538 159.229552,13.7663248 159.586897,13.7663248 C159.856549,13.7663248 160.156894,13.6779053 160.460893,13.5880121 C160.767084,13.5003295 161.077659,13.41191 161.370696,13.41191 C161.451811,13.41191 161.530734,13.4178046 161.608195,13.4340148 C162.486575,12.9757072 163.328418,12.3722442 164.285721,12.105512 C165.17214,11.674467 165.746522,10.7895353 165.726791,9.78744781 C165.746522,9.37113939 165.345331,9.37113939 165.046448,9.30335112" id="Fill-60" fill="#000000"></path>
                    <path d="M166.694617,14.0949505 C163.741593,14.0949505 161.155413,15.8088149 158.401887,16.5589069 C158.113235,16.636274 157.845774,16.6605893 157.581968,16.6605893 C157.118662,16.6605893 156.66778,16.5824854 156.147475,16.5589069 C155.873437,16.657642 156.043706,16.9840573 155.994745,17.2191057 C156.340397,17.8269897 156.44855,18.5409771 156.729895,19.192334 C156.854125,19.4406454 157.100393,19.6285368 157.363469,19.6285368 C157.417546,19.6285368 157.46943,19.6219053 157.523507,19.6056951 C158.165119,18.7038163 159.247383,18.7531839 160.192994,18.5173986 C160.963952,18.3309808 161.500334,17.7901483 162.349484,17.7901483 C162.377984,17.7901483 162.406484,17.7908851 162.434983,17.7923588 C162.744097,17.8439368 163.05248,18.5593978 163.313364,19.0029689 C164.060207,20.2754727 163.568401,21.9495483 163.843169,23.4180487 C163.58594,24.6934998 164.041207,26.2585247 163.488748,27.3954519 C163.05248,28.4660646 162.077639,28.446907 161.284758,28.7969008 C160.79076,29.029002 160.163033,29.0098444 159.762573,29.3288914 C159.822496,29.6088864 160.116994,29.7157267 160.312109,29.9109864 C162.077639,30.6772886 164.213667,30.3398209 166.188196,30.5733957 L166.386234,30.3899252 C166.555772,28.5913255 166.101966,27.9517579 166.246658,26.6682016 C165.947044,25.0869665 166.285388,23.6987805 165.936813,22.4137506 C165.917813,21.6931318 166.008428,20.7411487 165.751929,20.1701061 C165.661314,19.2417015 164.737626,18.3722432 164.532281,17.834358 C164.470897,17.4585752 164.338628,16.9052166 164.581243,16.73943 C165.11324,16.4026991 165.759968,16.3467001 166.43008,16.3467001 C166.598887,16.3467001 166.769155,16.3496474 166.940885,16.3540684 C167.111884,16.3570157 167.281422,16.3599631 167.45096,16.3599631 C168.081611,16.3599631 168.693262,16.3105955 169.210644,16.0247058 C169.35972,15.6002923 169.025029,15.1854575 168.906645,14.7698859 L168.457224,14.3078941 C167.853612,14.1597915 167.266807,14.0949505 166.694617,14.0949505" id="Fill-62" fill="#000000"></path>
                    <path d="M152.613491,14.3140098 C152.52653,14.3140098 152.448338,14.3515881 152.394992,14.4517968 C152.128263,15.3942012 151.512227,16.1958712 151.029922,17.0439615 C149.87312,18.1742573 148.777702,19.8402278 147.296439,20.5777937 C146.112599,21.3190437 145.272949,22.5672321 144.074493,23.2436412 L144.031378,23.5398465 C144.610875,23.8132101 145.447602,23.6931069 146.157176,23.7645794 C146.206137,23.7675267 146.254367,23.7675267 146.301867,23.7675267 C148.027936,23.7675267 149.181815,22.3528149 150.473809,21.296202 C150.750039,21.2247296 150.923961,20.6448451 151.233805,20.6448451 C151.288613,20.6448451 151.348536,20.662529 151.411382,20.7037914 C151.607227,21.4148315 151.318574,22.1855547 151.19069,22.873753 C151.01823,25.1107661 150.778538,27.2954642 149.640736,29.1279581 C149.640736,29.3173232 149.303122,29.727737 149.707967,29.9436279 C149.774466,29.9944691 150.146426,30.0430998 150.588539,30.0430998 C151.110306,30.0430998 151.731457,29.973101 152.05884,29.7498418 C152.584261,29.5921604 152.683645,28.9260669 152.873644,28.5443895 C153.005182,26.9351548 153.561295,25.3539196 153.264604,23.7594216 C153.384449,22.3299732 153.129412,20.869578 152.430069,19.6965461 C152.270762,18.623723 152.318262,17.5427947 152.986182,16.7241777 C153.157912,16.5495492 153.35668,16.5097604 153.570064,16.5097604 C153.659948,16.5097604 153.752755,16.5171287 153.847755,16.5252338 C153.941293,16.5318653 154.035562,16.5384967 154.132753,16.5384967 C154.202176,16.5384967 154.274522,16.5340758 154.346137,16.5252338 C154.517867,16.433867 154.61652,16.2607122 154.584367,16.067663 L152.96499,14.4517968 C152.867798,14.3840086 152.732606,14.3140098 152.613491,14.3140098" id="Fill-64" fill="#000000"></path>
                </g>
            </g>
        </g>
        <g id="Group-38" transform="translate(398.237762, 0.000000)">
            <g id="Group-37" transform="translate(0.000000, 0.105651)">
                <path d="M30.6146507,29.0851952 C28.0642376,29.0851952 25.9892536,27.0104754 25.9892536,24.4600623 C25.9892536,21.9096492 28.0642376,19.8349293 30.6146507,19.8349293 C33.1647997,19.8349293 35.2397837,21.9096492 35.2397837,24.4600623 C35.2397837,27.0104754 33.1647997,29.0851952 30.6146507,29.0851952 M25.9892536,10.0294678 C25.9892536,7.47931886 28.0642376,5.404599 30.6146507,5.404599 C33.1647997,5.404599 35.2397837,7.47931886 35.2397837,10.0294678 C35.2397837,12.5798809 33.1647997,14.6548649 30.6146507,14.6548649 C28.0642376,14.6548649 25.9892536,12.5798809 25.9892536,10.0294678 M37.2466228,17.2448971 C39.1961463,15.4514728 40.4198481,12.880986 40.4198481,10.0294678 C40.4198481,4.62304635 36.0213363,0.224270481 30.6146507,0.224270481 C25.207701,0.224270481 20.8091892,4.62304635 20.8091892,10.0294678 C20.8091892,12.880986 22.032891,15.4514728 23.9824145,17.2448971 C22.032891,19.0380573 20.8091892,21.6088082 20.8091892,24.4600623 C20.8091892,29.8667479 25.207701,34.2655237 30.6146507,34.2655237 C36.0213363,34.2655237 40.4198481,29.8667479 40.4198481,24.4600623 C40.4198481,21.6088082 39.1961463,19.0380573 37.2466228,17.2448971" id="Fill-2" fill="#65BB45"></path>
                <path d="M25.5467083,41.819036 C25.5467083,41.1526428 25.4233609,40.8808558 25.2630356,40.5229633 C25.1764019,40.3253961 23.5221727,37.6093752 23.0900604,36.9675459 C22.7815598,36.5106057 22.472795,36.202105 22.2506639,36.0539296 C22.0655107,35.9305822 21.8312298,35.8566265 21.7200322,35.8566265 C21.6579623,35.8566265 21.5964206,35.8317986 21.5964206,35.7702569 C21.5964206,35.720601 21.6458124,35.6836232 21.7567459,35.6836232 C21.991555,35.6836232 22.9173212,35.720601 22.9788628,35.720601 C23.0652325,35.720601 23.5345867,35.6836232 24.0160907,35.6836232 C24.1518521,35.6836232 24.1766801,35.720601 24.1766801,35.7702569 C24.1766801,35.8193846 24.1024603,35.8317986 23.9912627,35.8811904 C23.8924791,35.9305822 23.8309375,36.0045378 23.8309375,36.1033214 C23.8309375,36.2514968 23.8924791,36.3996722 23.9912627,36.5848255 C24.18883,36.9427179 26.0406264,40.1278289 26.2627574,40.4857214 C26.4973025,39.9672395 28.065162,37.2638967 28.3121211,36.8563483 C28.4724463,36.5969753 28.5218381,36.3875224 28.5218381,36.226933 C28.5218381,36.0539296 28.4724463,35.9181682 28.324535,35.8811904 C28.2133375,35.8442126 28.1391177,35.8193846 28.1391177,35.7578429 C28.1391177,35.708187 28.2133375,35.6836232 28.3366849,35.6836232 C28.6575996,35.6836232 29.0524699,35.720601 29.1512535,35.720601 C29.2254732,35.720601 30.1142616,35.6836232 30.3490707,35.6836232 C30.4354403,35.6836232 30.509396,35.708187 30.509396,35.7578429 C30.509396,35.8193846 30.4478543,35.8566265 30.3490707,35.8566265 C30.2130452,35.8566265 29.9785001,35.9057542 29.7809329,36.0293658 C29.534238,36.1775412 29.3984766,36.3254525 29.1269537,36.6590452 C28.7194053,37.1526991 26.9912205,40.0536092 26.7688253,40.584505 C26.5836721,41.0290312 26.5836721,41.4117517 26.5836721,41.819036 L26.5836721,42.8808277 C26.5836721,43.0783949 26.5836721,43.5966126 26.6206499,44.1150945 C26.6454779,44.4732511 26.7566755,44.7447739 27.1267178,44.7941657 C27.2997212,44.8187296 27.571244,44.8435575 27.6824416,44.8435575 C27.7563972,44.8435575 27.7812252,44.8805354 27.7812252,44.9175132 C27.7812252,44.979319 27.7196836,45.0162968 27.583658,45.0162968 C26.9048509,45.0162968 26.126996,44.979319 26.0651902,44.979319 C26.0033844,44.979319 25.2257937,45.0162968 24.8554872,45.0162968 C24.7197258,45.0162968 24.65792,44.991733 24.65792,44.9175132 C24.65792,44.8805354 24.682748,44.8435575 24.7567036,44.8435575 C24.8679012,44.8435575 25.0158125,44.8187296 25.1270101,44.7941657 C25.3739691,44.7447739 25.4851667,44.4732511 25.5097305,44.1150945 C25.5467083,43.5966126 25.5467083,43.0783949 25.5467083,42.8808277 L25.5467083,41.819036 Z" id="Fill-4" fill="#00663A"></path>
                <path d="M22.0975757,35.8230295 C22.1773422,35.8573661 22.2555238,35.8988341 22.3236687,35.9445281 C22.5943992,36.124927 22.9134649,36.4709338 23.1992507,36.8938016 C23.612874,37.5084258 25.2866486,40.2490105 25.3833192,40.4700851 C25.5491911,40.8398633 25.6786135,41.1280261 25.6786135,41.8189831 L25.6786135,42.8807748 C25.6786135,43.0778138 25.6786135,43.6013141 25.6411074,44.1245502 C25.609148,44.5851882 25.4501434,44.7896228 25.2866486,44.8759924 C25.488706,44.8696533 25.6997437,44.8614654 25.8532017,44.8551263 C25.9665123,44.8509003 26.046807,44.8477308 26.0650317,44.8477308 C26.0798229,44.8477308 26.1342331,44.8495796 26.2182256,44.8530133 C26.3759096,44.85856 26.6313206,44.8683327 26.918427,44.8752 C26.5301599,44.7177801 26.5000494,44.2809136 26.4892202,44.1242861 C26.4519782,43.6013141 26.4519782,43.0778138 26.4519782,42.8807748 L26.4519782,41.8189831 C26.4519782,41.3990207 26.4519782,41.0025657 26.6474324,40.5340039 C26.8708841,39.9996744 28.5916734,37.1008774 29.0253704,36.5752641 C29.2976856,36.2408789 29.4450687,36.0773841 29.713422,35.9165306 C29.769417,35.8811375 29.8277891,35.8515553 29.8858971,35.8272556 C29.7501357,35.8317457 29.6072428,35.8370283 29.4841595,35.8412543 C29.3122126,35.8475934 29.1785642,35.8523477 29.1513591,35.8523477 C29.1146454,35.8523477 29.0385768,35.8475934 28.9408497,35.8412543 C28.8145968,35.8330664 28.6529509,35.8227654 28.4955311,35.817747 C28.5811083,35.8837788 28.6534792,36.0060698 28.6534792,36.2268802 C28.6534792,36.4447852 28.576354,36.6795943 28.4236884,36.925761 C28.1909923,37.3098021 26.617586,40.0208045 26.3827769,40.5400788 L26.2810879,40.7648511 L26.1508731,40.5551341 C25.9237236,40.1890536 24.0690218,36.9981319 23.8759448,36.6484273 C23.7695015,36.4487471 23.6989795,36.280498 23.6989795,36.1035327 C23.6989795,35.9896939 23.7510126,35.8906461 23.8463625,35.8169546 C23.573519,35.8211807 23.3186362,35.8351794 23.1551414,35.8441597 C23.0679794,35.8491781 23.0056454,35.8523477 22.9789685,35.8523477 C22.9578383,35.8523477 22.8355474,35.8481216 22.6744297,35.8423108 C22.5016905,35.8362359 22.2835213,35.8285762 22.0975757,35.8230295 M27.5834995,45.1480435 C27.059471,45.1480435 26.4844659,45.126385 26.2081887,45.1160841 C26.1302712,45.1131787 26.0790305,45.1110657 26.0650317,45.1110657 C26.0475993,45.1110657 25.9715307,45.1142352 25.8637667,45.1184612 C25.5859048,45.1292904 25.1210408,45.1480435 24.8553288,45.1480435 C24.6368955,45.1480435 24.5262262,45.0706542 24.5262262,44.9177245 C24.5262262,44.8184126 24.5983329,44.7117052 24.7565451,44.7117052 C24.8402735,44.7117052 24.9681111,44.6945369 25.0983259,44.6657471 C25.3011756,44.6250714 25.362189,44.3390216 25.3783008,44.1060613 C25.4152786,43.5918055 25.4152786,43.0751725 25.4152786,42.8807748 L25.4152786,41.8189831 C25.4152786,41.1842853 25.301968,40.9320437 25.1453405,40.5828674 C25.0626687,40.3937523 23.4203252,37.6938431 22.9808174,37.0409205 C22.7177466,36.6515968 22.4174339,36.3235508 22.1776063,36.1634896 C22.0080366,36.0507073 21.799376,35.9881091 21.7198737,35.9881091 C21.5695853,35.9881091 21.4647267,35.8985699 21.4647267,35.7702041 C21.4647267,35.6695716 21.5415878,35.5520349 21.7568515,35.5520349 C21.9126866,35.5520349 22.372004,35.5681467 22.6836742,35.5792401 C22.8403017,35.5847867 22.9586307,35.5890128 22.9789685,35.5890128 C23.0037965,35.5890128 23.0605838,35.5858432 23.1406144,35.5813531 C23.3402946,35.5702597 23.6741515,35.5520349 24.0161964,35.5520349 C24.2702868,35.5520349 24.308057,35.6885888 24.308057,35.7702041 C24.308057,35.8964569 24.1971236,35.9400379 24.1163006,35.9719973 C24.0949063,35.9804494 24.0711348,35.989958 24.0447221,36.0015796 C23.9625785,36.0427834 23.9625785,36.0884775 23.9625785,36.1035327 C23.9625785,36.2258237 24.0201583,36.3597362 24.1073203,36.5227027 C24.2787389,36.8330523 25.77502,39.4088216 26.2520339,40.2120327 C26.6841461,39.382673 27.9881425,37.1367987 28.1994444,36.7881507 C28.3262255,36.5831879 28.3901443,36.3948651 28.3901443,36.2268802 C28.3901443,36.033539 28.3217353,36.0161066 28.2924172,36.0089752 C28.1540145,35.963017 28.0074238,35.9144176 28.0074238,35.7577901 C28.0074238,35.6809291 28.0502124,35.5520349 28.3365264,35.5520349 C28.5473,35.5520349 28.7844863,35.5673543 28.9577538,35.5784477 C29.0475571,35.5842585 29.1178149,35.5890128 29.1513591,35.5890128 C29.1777718,35.5890128 29.3077225,35.5842585 29.4743868,35.5781835 C29.7770767,35.5670902 30.1978314,35.5520349 30.3489122,35.5520349 C30.5644401,35.5520349 30.641037,35.6629684 30.641037,35.7577901 C30.641037,35.8724213 30.5507055,35.9881091 30.3489122,35.9881091 C30.2266213,35.9881091 30.0187531,36.0361803 29.8507682,36.1410388 C29.6275806,36.2749513 29.5058179,36.4019966 29.2287484,36.7419284 C28.816974,37.241129 27.1027879,40.1272478 26.8901654,40.6354287 C26.7153131,41.0553911 26.7153131,41.4262259 26.7153131,41.8189831 L26.7153131,42.8807748 C26.7153131,43.0751725 26.7153131,43.5918055 26.7520268,44.1057972 C26.777383,44.4729341 26.8875241,44.6295616 27.1442558,44.663634 C27.3154103,44.6879337 27.5813865,44.7117052 27.6825473,44.7117052 C27.8407595,44.7117052 27.9128663,44.8184126 27.9128663,44.9177245 C27.9128663,44.9716065 27.8893589,45.1480435 27.5834995,45.1480435" id="Fill-6" fill="#00663A"></path>
                <path d="M32.2507344,39.2636573 C32.2507344,37.3379052 32.2507344,36.9921626 32.2259064,36.5970282 C32.2013426,36.1773299 32.102559,35.9797627 31.6950106,35.8933931 C31.5964911,35.8688292 31.386774,35.8566794 31.2755764,35.8566794 C31.2261846,35.8566794 31.1767928,35.8318514 31.1767928,35.7824596 C31.1767928,35.7082398 31.2385986,35.683676 31.37436,35.683676 C31.6582969,35.683676 31.9916255,35.683676 32.2631484,35.69609 L32.7692162,35.7206538 C32.8555859,35.7206538 35.3122338,35.7206538 35.5961706,35.7082398 C35.8307156,35.69609 36.0282829,35.671262 36.1270665,35.6466982 C36.1886081,35.6342842 36.2382641,35.5848924 36.2998057,35.5848924 C36.3370477,35.5848924 36.3494616,35.6342842 36.3494616,35.69609 C36.3494616,35.7824596 36.2873917,35.930635 36.250678,36.2761135 C36.2382641,36.3997251 36.2134361,36.9427708 36.1886081,37.0909462 C36.1761941,37.152752 36.1518944,37.2267076 36.1022385,37.2267076 C36.0282829,37.2267076 36.0034549,37.1651659 36.0034549,37.0663823 C36.0034549,36.9800127 35.991305,36.7700315 35.9294993,36.6218561 C35.8431296,36.4242889 35.7197822,36.2761135 35.0528608,36.2021579 C34.8431437,36.1773299 33.4976793,36.16518 33.3616537,36.16518 C33.3125261,36.16518 33.2876981,36.2021579 33.2876981,36.2885275 L33.2876981,39.6957695 C33.2876981,39.7821391 33.3001121,39.8193811 33.3616537,39.8193811 C33.5222431,39.8193811 35.0407109,39.8193811 35.3246478,39.7945531 C35.6209986,39.7697251 35.7937378,39.7451613 35.9049354,39.6215497 C35.991305,39.5227661 36.0406968,39.4612245 36.0898245,39.4612245 C36.1270665,39.4612245 36.1518944,39.4860524 36.1518944,39.5600081 C36.1518944,39.6339637 36.0898245,39.8436808 36.0531108,40.2512292 C36.0282829,40.4981882 36.0034549,40.9548643 36.0034549,41.0412339 C36.0034549,41.1400175 36.0034549,41.2757789 35.9170853,41.2757789 C35.8552795,41.2757789 35.8307156,41.2266513 35.8307156,41.1645814 C35.8307156,41.0412339 35.8307156,40.9178865 35.7813238,40.7572971 C35.7321962,40.5845578 35.6209986,40.3745766 35.1394945,40.325449 C34.8061659,40.288207 33.5840489,40.2636432 33.3740677,40.2636432 C33.3125261,40.2636432 33.2876981,40.300621 33.2876981,40.3500128 L33.2876981,41.4363683 C33.2876981,41.8560666 33.2752841,43.2879006 33.2876981,43.5472736 C33.3246759,44.3990841 33.5100933,44.5596735 34.7197963,44.5596735 C35.0407109,44.5596735 35.5837566,44.5596735 35.9049354,44.423648 C36.2258501,44.2878866 36.3737614,44.0411917 36.4603951,43.5348597 C36.4849589,43.3990982 36.5097869,43.3499705 36.5713286,43.3499705 C36.6455483,43.3499705 36.6455483,43.44849 36.6455483,43.5348597 C36.6455483,43.6336433 36.5467647,44.4733039 36.4849589,44.7324128 C36.3985893,45.0533274 36.2998057,45.0533274 35.8185658,45.0533274 C34.8925355,45.0533274 34.2137284,45.0287636 33.7319602,45.0163496 C33.2507203,44.9917858 32.9543695,44.9793718 32.7692162,44.9793718 C32.7443883,44.9793718 32.5346712,44.9793718 32.2755623,44.9917858 C32.0286033,44.9917858 31.7446665,45.0163496 31.5595133,45.0163496 C31.4237518,45.0163496 31.361946,44.9917858 31.361946,44.917566 C31.361946,44.8805882 31.386774,44.8436104 31.4607296,44.8436104 C31.5719272,44.8436104 31.7198385,44.8187824 31.8310361,44.7939544 C32.0779951,44.7448268 32.1395368,44.4733039 32.1891927,44.1151473 C32.2507344,43.5966654 32.2507344,42.6215075 32.2507344,41.4363683 L32.2507344,39.2636573 Z" id="Fill-8" fill="#00663A"></path>
                <path d="M32.7691898,44.8477308 L32.7691898,44.8477308 C32.9448345,44.8477308 33.2166215,44.8580317 33.7388011,44.8849727 L34.0097957,44.8923683 C34.4522089,44.9045181 35.0578528,44.9216864 35.8182753,44.9216864 C36.2976663,44.9216864 36.2976663,44.9216864 36.3578873,44.6982347 C36.3882619,44.5696047 36.4286734,44.2885733 36.4611611,44.0339546 C36.3533971,44.2885733 36.1949208,44.4441443 35.9558856,44.5450409 C35.6106712,44.6911033 35.0528344,44.6911033 34.7197699,44.6911033 C33.4601468,44.6911033 33.1973402,44.4998751 33.1561363,43.5529788 C33.147156,43.3635995 33.1511179,42.5632938 33.1540233,41.9790443 C33.1550798,41.7505742 33.1561363,41.5537993 33.1561363,41.4362627 L33.1561363,40.3501713 C33.1561363,40.2215413 33.2459396,40.1320021 33.3740413,40.1320021 C33.5578739,40.1320021 34.8008569,40.1549812 35.1539951,40.1943362 C35.6587424,40.2461051 35.8214448,40.4735187 35.8895896,40.6636904 C35.8988341,40.5149867 35.9104557,40.3538691 35.9220773,40.2381813 C35.9432075,40.0062775 35.9717332,39.8377643 35.9931275,39.7196994 C35.8473293,39.872365 35.6368198,39.9006266 35.3357147,39.9257187 C35.0670972,39.9489619 33.7570259,39.9508108 33.3616273,39.9508108 C33.2678621,39.9508108 33.1561363,39.9067016 33.1561363,39.6956639 L33.1561363,36.288686 C33.1561363,36.045953 33.3272908,36.033539 33.3616273,36.033539 C33.452223,36.033539 34.840476,36.0446323 35.0684179,36.0713092 C35.7432631,36.1463213 35.933963,36.3040053 36.050179,36.5691891 C36.066819,36.6093365 36.0800254,36.6515968 36.0908546,36.6943855 C36.0948165,36.635221 36.0982502,36.5765847 36.1016838,36.5229669 C36.1088153,36.407015 36.1148902,36.3079672 36.1196445,36.2630656 C36.1423594,36.0499149 36.174583,35.9072861 36.1957131,35.8129927 C36.1999392,35.7939755 36.2041652,35.7754866 36.207863,35.7593749 C36.1909589,35.765978 36.1727341,35.7717888 36.1529245,35.7757508 C36.0456888,35.8026917 35.8328023,35.828048 35.6030115,35.8399337 C35.3230366,35.8518194 33.0296193,35.8523477 32.7691898,35.8523477 L32.2567829,35.8277838 C32.1476983,35.8225013 32.0291052,35.8195959 31.9076066,35.817747 C32.2480667,35.94849 32.3349646,36.2070706 32.3574154,36.5892628 C32.3822433,36.988095 32.3822433,37.3356865 32.3822433,39.2635516 L32.3822433,41.4362627 C32.3822433,42.6478146 32.3822433,43.6044836 32.3196452,44.1306252 C32.2842521,44.3889417 32.2377657,44.7254398 32.0042772,44.867012 C32.095137,44.8630501 32.1878457,44.8598806 32.2755359,44.8598806 C32.5314753,44.8477308 32.7435695,44.8477308 32.7691898,44.8477308 M35.8182753,45.1850213 C35.054155,45.1850213 34.4463981,45.167853 34.0024001,45.155439 L33.7287643,45.1480435 C33.2079053,45.1211025 32.9398161,45.1110657 32.7691898,45.1110657 C32.744626,45.1110657 32.5378143,45.1110657 32.2816109,45.1232155 C32.1453212,45.1232155 32.0045413,45.130347 31.8737983,45.1369501 C31.7567899,45.1424968 31.6471771,45.1480435 31.5594868,45.1480435 C31.3410536,45.1480435 31.2303842,45.0706542 31.2303842,44.9177245 C31.2303842,44.8184126 31.3022269,44.7117052 31.4607032,44.7117052 C31.5441675,44.7117052 31.6722692,44.6945369 31.8024839,44.6657471 C31.9564702,44.63458 32.0111445,44.4420312 32.0586874,44.097081 C32.1189084,43.588636 32.1189084,42.5912913 32.1189084,41.4362627 L32.1189084,39.2635516 C32.1189084,37.3425538 32.1189084,36.996283 32.0946087,36.6053746 C32.0708373,36.2044293 31.9873731,36.0903264 31.6680432,36.0224456 C31.5853713,36.0018437 31.3965203,35.9881091 31.27555,35.9881091 C31.1442787,35.9881091 31.045231,35.8996265 31.045231,35.7826181 C31.045231,35.6296884 31.1559003,35.5520349 31.3743336,35.5520349 C31.6648736,35.5520349 31.9945045,35.5520349 32.2689327,35.5647131 L32.7755289,35.5890128 C32.8729919,35.5890128 35.3124715,35.5887486 35.5905975,35.5765988 C35.8452162,35.5636565 36.0216533,35.5372438 36.0950807,35.519019 C36.1104,35.5155854 36.1273042,35.5071333 36.1434159,35.4986812 C36.1814503,35.4796641 36.2337475,35.4532513 36.2997793,35.4532513 C36.3301539,35.4532513 36.4809706,35.4651371 36.4809706,35.6962484 C36.4809706,35.7459044 36.4690849,35.7982016 36.4524449,35.8711007 C36.4313147,35.9648659 36.4025248,36.0932318 36.3813946,36.2902707 C36.3771686,36.3325311 36.3713578,36.4276169 36.3644905,36.5390786 C36.35102,36.759889 36.3357006,37.0105458 36.3185323,37.112499 C36.2778567,37.3164052 36.1785449,37.3586656 36.1022121,37.3586656 C36.0483301,37.3586656 35.8718931,37.3372713 35.8718931,37.0662767 C35.8718931,36.9770017 35.8584226,36.7936973 35.8079743,36.6724629 C35.7509228,36.5425123 35.69123,36.4056943 35.0383074,36.3330593 C34.8534183,36.3114009 33.7160862,36.2989869 33.4194712,36.297138 L33.4194712,39.6874759 C34.2150226,39.6872118 35.1127913,39.6808727 35.3132639,39.6631762 C35.6008985,39.6391406 35.732698,39.6158974 35.8069178,39.5334897 L35.8256708,39.5118313 C35.9181154,39.4056521 35.9849396,39.3293193 36.0897981,39.3293193 C36.1790731,39.3293193 36.2834034,39.3898045 36.2834034,39.5599024 C36.2834034,39.5923901 36.2744231,39.6470644 36.259632,39.7273591 C36.2387659,39.8414621 36.2068065,40.0142014 36.1840915,40.2632734 C36.1589995,40.5147226 36.135228,40.9624183 36.135228,41.0413924 C36.135228,41.1510052 36.135228,41.4077369 35.9170589,41.4077369 C35.7889571,41.4077369 35.6991538,41.3078968 35.6991538,41.1647398 C35.6991538,41.0479956 35.6991538,40.9375904 35.6555728,40.7960181 C35.6254623,40.6916879 35.5713162,40.5020445 35.1259976,40.4563504 C34.8159122,40.4217498 33.7176709,40.3979783 33.4194712,40.3956012 L33.4194712,41.4362627 C33.4194712,41.5540635 33.4184147,41.7513665 33.4173582,41.9803649 C33.4144528,42.5617091 33.410755,43.3577887 33.4192071,43.5410931 C33.4519589,44.2938558 33.5512707,44.4277684 34.7197699,44.4277684 C35.0327607,44.4277684 35.5570534,44.4277684 35.8536683,44.302572 C36.1257194,44.1874125 36.2509158,43.9806009 36.3304181,43.5128314 C36.3494352,43.4090294 36.3843,43.2180654 36.5715663,43.2180654 C36.7773214,43.2180654 36.7773214,43.4481202 36.7773214,43.534754 C36.7773214,43.6496494 36.6745759,44.5046294 36.6130343,44.7629459 C36.4994595,45.1850213 36.3000434,45.1850213 35.8182753,45.1850213" id="Fill-10" fill="#00663A"></path>
                <path d="M42.8434272,40.9301684 C42.9049689,40.9301684 42.9049689,40.8931906 42.892819,40.8437988 L41.7200939,37.5107765 C41.6582881,37.3256233 41.5964823,37.3256233 41.5349406,37.5107765 L40.4485851,40.8437988 C40.4237571,40.9053404 40.4485851,40.9301684 40.4855629,40.9301684 L42.8434272,40.9301684 Z M41.5595045,35.9923087 C41.7076799,35.5850244 41.7570717,35.5108047 41.8310273,35.5108047 C41.904983,35.5108047 41.9546389,35.5726105 42.1025502,35.9553309 C42.2877034,36.4241568 44.2258695,41.5226059 44.9788964,43.3992303 C45.4234226,44.4979998 45.7813151,44.6953029 46.0404239,44.7692585 C46.2258413,44.8313284 46.4109945,44.8434783 46.5346061,44.8434783 C46.6085617,44.8434783 46.6576894,44.8556282 46.6576894,44.9176981 C46.6576894,44.9916537 46.546756,45.0164817 46.4109945,45.0164817 C46.2258413,45.0164817 45.3249031,45.0164817 44.4728285,44.9916537 C44.2382834,44.9792397 44.102522,44.9792397 44.102522,44.9052841 C44.102522,44.8556282 44.1394998,44.8313284 44.1888916,44.8189145 C44.2631114,44.7940865 44.3370671,44.6828889 44.2631114,44.4855858 L43.1149501,41.4486503 C43.0903862,41.3992585 43.0655583,41.3746946 43.0037525,41.3746946 L40.3498015,41.3746946 C40.2879957,41.3746946 40.2510179,41.4116724 40.2261899,41.4734782 L39.485577,43.6583392 C39.3743794,43.967104 39.3128378,44.2631907 39.3128378,44.4855858 C39.3128378,44.7325448 39.5719466,44.8434783 39.7819278,44.8434783 L39.9052753,44.8434783 C39.9916449,44.8434783 40.0288868,44.8680421 40.0288868,44.9176981 C40.0288868,44.9916537 39.9546671,45.0164817 39.8437336,45.0164817 C39.5473828,45.0164817 39.0164869,44.9792397 38.8807255,44.9792397 C38.7447,44.9792397 38.0658928,45.0164817 37.4858693,45.0164817 C37.3250158,45.0164817 37.2510601,44.9916537 37.2510601,44.9176981 C37.2510601,44.8680421 37.3007161,44.8434783 37.3622577,44.8434783 C37.4486274,44.8434783 37.6213666,44.8313284 37.7204143,44.8189145 C38.288288,44.7446947 38.5349829,44.2756046 38.7571139,43.6583392 L41.5595045,35.9923087 Z" id="Fill-12" fill="#00663A"></path>
                <path d="M40.6016997,40.798633 L42.7361123,40.798633 L41.6286266,37.6475944 L40.6016997,40.798633 Z M42.843348,40.798633 L42.843348,40.9301684 L42.8438763,40.798633 L42.843348,40.798633 Z M42.843348,41.0619679 L40.4854837,41.0619679 C40.4231496,41.0619679 40.3687394,41.0344987 40.3362518,40.9866916 C40.3111597,40.9497138 40.2895012,40.8865874 40.3262149,40.7949352 L41.4096651,37.4698368 C41.4326441,37.4006354 41.486262,37.240046 41.627306,37.240046 C41.7686141,37.240046 41.8219678,37.4006354 41.8449468,37.4690444 L43.0171438,40.8002178 C43.0282371,40.8430064 43.048839,40.9256782 42.9949571,40.9948796 C42.9709215,41.0255183 42.9254916,41.0619679 42.843348,41.0619679 L42.843348,41.0619679 Z M44.3554767,44.8540434 C44.3779275,44.8548358 44.4006425,44.8558923 44.4225651,44.8572129 L44.4798807,44.8601183 C44.9075028,44.8725323 45.4228151,44.8804561 45.9629554,44.8836257 C45.6607938,44.7864268 45.2907515,44.521243 44.8567903,43.448358 C44.318763,42.107912 43.1809027,39.1351593 42.5005108,37.3591674 C42.2297803,36.6510422 42.0332696,36.1378429 41.98018,36.0036662 C41.9152047,35.8354171 41.8663412,35.7234271 41.8338535,35.6690169 C41.7852541,35.7569713 41.7105061,35.9619341 41.6833009,36.0374745 L41.6833009,36.0377386 L38.8809104,43.7037691 C38.7034169,44.1963664 38.4889455,44.6852661 38.0182707,44.8764942 C38.232742,44.8706834 38.4345353,44.8630237 38.5919552,44.8569488 C38.7316785,44.8516663 38.8354805,44.8477043 38.8806463,44.8477043 C38.9366413,44.8477043 39.0584039,44.8537793 39.2034098,44.8609107 C39.2668004,44.8643444 39.3346811,44.8675139 39.4038824,44.8709475 C39.2728753,44.7885398 39.180959,44.6588533 39.180959,44.4855858 C39.180959,44.2468148 39.2448778,43.9372576 39.3616221,43.6137016 L40.1014426,41.4312179 C40.1669462,41.2664024 40.2852752,41.2431592 40.3497223,41.2431592 L43.0039374,41.2431592 C43.1431325,41.2431592 43.2012405,41.3268876 43.2326716,41.3897499 L44.3861155,44.4388353 C44.4497702,44.6094615 44.4244139,44.7272623 44.3911339,44.7967278 C44.3813612,44.8170656 44.3694755,44.8363469 44.3554767,44.8540434 L44.3554767,44.8540434 Z M46.4109153,45.1480171 C45.7091291,45.1480171 45.0197569,45.1393009 44.4690515,45.1231891 L44.4093587,45.1200196 C44.1737572,45.108398 43.9709074,45.0983611 43.9709074,44.9052841 C43.9709074,44.865665 43.9843779,44.7341296 44.1571171,44.6910769 C44.1539476,44.6889638 44.1811527,44.6422133 44.1399489,44.5318081 L42.9917875,41.4954008 L40.3497223,41.5064941 L39.6101659,43.7005995 C39.5047791,43.9945732 39.4442939,44.2798307 39.4442939,44.4855858 C39.4442939,44.6504013 39.6513697,44.7116788 39.7818486,44.7116788 L39.905196,44.7116788 C40.147929,44.7116788 40.160343,44.8833615 40.160343,44.9176981 C40.160343,44.9866353 40.1294401,45.1480171 39.8436544,45.1480171 C39.6651043,45.1480171 39.4022977,45.1348107 39.1899393,45.1239815 C39.0510084,45.1171142 38.9345282,45.1110392 38.8806463,45.1110392 C38.8370653,45.1110392 38.7366969,45.1150012 38.601992,45.1200196 C38.3140932,45.1311129 37.8790756,45.1480171 37.4855259,45.1480171 C37.3949303,45.1480171 37.1194455,45.1480171 37.1194455,44.9176981 C37.1194455,44.7964636 37.2190215,44.7116788 37.3621785,44.7116788 C37.4403602,44.7116788 37.6064962,44.7003213 37.7036951,44.6881715 C38.1801807,44.6261015 38.4054813,44.247343 38.633159,43.6137016 L41.4358137,35.947143 L41.4358137,35.9474071 C41.5789707,35.5533292 41.6500209,35.3790052 41.8309481,35.3790052 C42.0044797,35.3790052 42.0768506,35.524011 42.2252901,35.9075239 C42.2783797,36.0411723 42.4751546,36.5554281 42.7466774,37.264874 C43.4262769,39.0403376 44.5641373,42.0117696 45.1011081,43.3501026 C45.5649156,44.4966792 45.9236004,44.5991606 46.0767943,44.6427416 C46.2492694,44.7000572 46.4201597,44.7116788 46.5345269,44.7116788 C46.7645817,44.7116788 46.7896738,44.8556282 46.7896738,44.9176981 C46.7896738,45.0035394 46.740282,45.1480171 46.4109153,45.1480171 L46.4109153,45.1480171 Z" id="Fill-14" fill="#00663A"></path>
                <path d="M49.4117975,40.3377045 C49.4117975,40.3992461 49.4366254,40.4489021 49.4981671,40.4858799 C49.6833203,40.5968133 50.2514581,40.6834471 50.7942397,40.6834471 C51.0905905,40.6834471 51.4363332,40.6462051 51.72027,40.4489021 C52.1523822,40.1525512 52.4732969,39.485894 52.4732969,38.5477138 C52.4732969,37.0046822 51.6587283,36.0786519 50.3378278,36.0786519 C49.9675213,36.0786519 49.6341927,36.1158939 49.5105811,36.1526076 C49.4490394,36.1774355 49.4117975,36.2270915 49.4117975,36.3010471 L49.4117975,40.3377045 Z M48.4242255,39.2637629 C48.4242255,37.3380108 48.4242255,36.9922682 48.3996617,36.5971338 C48.3748337,36.1774355 48.2760501,35.9798683 47.8687659,35.8934987 C47.7699823,35.8689349 47.5600011,35.8565209 47.4488035,35.8565209 C47.3996758,35.8565209 47.350284,35.8316929 47.350284,35.7825652 C47.350284,35.7083455 47.4120898,35.6837816 47.5475871,35.6837816 C48.1033109,35.6837816 48.8809016,35.7207595 48.9427074,35.7207595 C49.0784688,35.7207595 50.016649,35.6837816 50.3993694,35.6837816 C51.1772243,35.6837816 52.0042068,35.7577373 52.6584501,36.2270915 C52.9672149,36.4489584 53.5105248,37.0538099 53.5105248,37.9056204 C53.5105248,38.8192367 53.1275402,39.732853 52.0166208,40.7574027 C53.0287566,42.0534753 53.8681531,43.1522449 54.5842022,43.9176857 C55.2508595,44.6213208 55.7817553,44.7570823 56.090256,44.8064741 C56.3250651,44.843716 56.4978044,44.843716 56.57176,44.843716 C56.6335658,44.843716 56.6826935,44.8804297 56.6826935,44.9176717 C56.6826935,44.9916273 56.6087379,45.0164553 56.3866068,45.0164553 L55.5102325,45.0164553 C54.8190113,45.0164553 54.5102465,44.9543854 54.1893319,44.7816461 C53.658436,44.4979734 53.2263238,43.8928578 52.5226887,42.9670916 C52.0042068,42.2882845 51.4239192,41.4610378 51.1772243,41.1401232 C51.1278325,41.0907314 51.0905905,41.0661675 51.0166349,41.0661675 L49.4981671,41.0413396 C49.4366254,41.0413396 49.4117975,41.0783174 49.4117975,41.1401232 L49.4117975,41.4362099 C49.4117975,42.621349 49.4117975,43.5967711 49.4733391,44.115253 C49.5105811,44.4731454 49.5845367,44.7449324 49.9551073,44.7940601 C50.1278466,44.8188881 50.3993694,44.843716 50.510567,44.843716 C50.5845226,44.843716 50.6090865,44.8804297 50.6090865,44.9176717 C50.6090865,44.9792133 50.5475448,45.0164553 50.4117834,45.0164553 C49.7327121,45.0164553 48.9551214,44.9792133 48.8933156,44.9792133 C48.8809016,44.9792133 48.1033109,45.0164553 47.7330044,45.0164553 C47.597243,45.0164553 47.5354372,44.9916273 47.5354372,44.9176717 C47.5354372,44.8804297 47.5600011,44.843716 47.6342208,44.843716 C47.7451543,44.843716 47.8933297,44.8188881 48.0045273,44.7940601 C48.2512222,44.7449324 48.3132921,44.4731454 48.3624198,44.115253 C48.4242255,43.5967711 48.4242255,42.621349 48.4242255,41.4362099 L48.4242255,39.2637629 Z" id="Fill-16" fill="#00663A"></path>
                <path d="M50.3375372,36.2104515 C49.9508549,36.2104515 49.6431466,36.2503347 49.5483249,36.2788604 C49.5470042,36.2799169 49.5433065,36.2815017 49.5433065,36.3010471 L49.5433065,40.3377045 C49.5433065,40.3527597 49.5433065,40.3593629 49.5657573,40.3728334 C49.7099708,40.459203 50.2379612,40.5516476 50.7942133,40.5516476 C51.0295507,40.5516476 51.3734444,40.5299891 51.6452314,40.3406099 C52.0818338,40.0413536 52.3417351,39.3712627 52.3417351,38.5477138 C52.3417351,37.0841845 51.592406,36.2104515 50.3375372,36.2104515 M50.7942133,40.8149825 C50.2958051,40.8149825 49.6671822,40.7404986 49.4305241,40.5986622 C49.3320046,40.5397618 49.2799716,40.4494303 49.2799716,40.3377045 L49.2799716,36.3010471 C49.2799716,36.1753225 49.3462675,36.0765389 49.4616911,36.0303166 C49.6267707,35.9803966 49.9902098,35.9471165 50.3375372,35.9471165 C51.7363553,35.9471165 52.60507,36.9434047 52.60507,38.5477138 C52.60507,39.4581606 52.3018519,40.2096027 51.7949916,40.5574584 C51.4629836,40.7883056 51.0649438,40.8149825 50.7942133,40.8149825 M49.4981407,40.90954 L51.0187215,40.934368 C51.1336169,40.934368 51.2025541,40.9795338 51.2701707,41.0471504 C51.3869149,41.1966464 51.5519945,41.4243241 51.7469204,41.693734 C52.0062934,42.0516264 52.3295852,42.4972092 52.6272567,42.8870611 L52.7852048,43.0946651 C53.3882074,43.8910089 53.7867755,44.4168863 54.2511113,44.6656942 C54.5590837,44.8315662 54.8652072,44.8846557 55.510206,44.8846557 L55.8263664,44.8846557 C55.4827368,44.7911547 55.0255325,44.5748344 54.4885617,44.0080173 C53.8551845,43.3313232 53.1232877,42.3912941 52.2754391,41.3033538 L51.8380443,40.7428757 L51.9273194,40.6607321 C52.9175326,39.7476441 53.3786988,38.8720621 53.3786988,37.9056204 C53.3786988,37.1179928 52.8776494,36.5466855 52.5815627,36.3337989 C51.9444876,35.8768587 51.1212029,35.815317 50.399343,35.815317 C50.1603078,35.815317 49.7046882,35.8301082 49.3634358,35.8406732 C49.1579447,35.8472764 48.9939217,35.852559 48.942681,35.852559 C48.9265692,35.852559 48.8647635,35.8501818 48.7715265,35.846484 C48.6167479,35.8406732 48.3629216,35.8309005 48.096153,35.8237691 C48.4241991,35.9560969 48.5087199,36.2128286 48.5309066,36.5894741 C48.5559987,36.9880422 48.5559987,37.3356337 48.5559987,39.2637629 L48.5559987,41.4362099 C48.5559987,42.6477617 48.5559987,43.6044308 48.4931364,44.1305723 C48.4569509,44.3944355 48.4091439,44.7401781 48.1619207,44.8762037 C48.3457533,44.8701287 48.5694691,44.8616767 48.8314834,44.8500551 C48.8687254,44.8484703 48.8911762,44.8476779 48.8932892,44.8476779 C48.9080803,44.8476779 48.9624906,44.8495268 49.0462189,44.8529605 C49.2039029,44.8585071 49.459314,44.8682799 49.7464203,44.8754113 C49.4352784,44.7470454 49.3734726,44.4271873 49.3425697,44.1287234 C49.2799716,43.6044308 49.2799716,42.6477617 49.2799716,41.4362099 L49.2799716,41.1401232 C49.2799716,41.0022487 49.3676618,40.90954 49.4981407,40.90954 M56.3865804,45.1479907 L55.510206,45.1479907 C54.8147589,45.1479907 54.4785249,45.0869773 54.1267073,44.8978621 C53.6116591,44.6223774 53.1993564,44.0777469 52.5752236,43.2539339 L52.4178037,43.0468581 C52.1182834,42.6543649 51.7944633,42.2074615 51.5337697,41.8485126 C51.3406927,41.581744 51.1769337,41.355651 51.0726035,41.2204179 C51.0483038,41.1977029 51.0430212,41.1977029 51.0166085,41.1977029 L49.5438347,41.1736673 L49.5433065,41.4362099 C49.5433065,42.5912385 49.5433065,43.5888473 49.6043199,44.0996694 C49.6457878,44.5003505 49.7316292,44.6316218 49.9725133,44.6635812 C50.1436678,44.688145 50.4093798,44.7119165 50.5102765,44.7119165 C50.669017,44.7119165 50.7408596,44.8183598 50.7408596,44.9176717 C50.7408596,44.9715536 50.7170881,45.1479907 50.411757,45.1479907 C49.8877284,45.1479907 49.3127233,45.1263322 49.0361821,45.1160313 C48.9580004,45.1131259 48.9072879,45.1110128 48.8932892,45.1110128 L48.8428409,45.11339 C48.6468584,45.1215779 48.0488743,45.1479907 47.732978,45.1479907 C47.5145448,45.1479907 47.4038754,45.0706014 47.4038754,44.9176717 C47.4038754,44.8183598 47.475718,44.7119165 47.6341944,44.7119165 C47.7176586,44.7119165 47.8454962,44.6944841 47.9759751,44.6656942 C48.1302255,44.6347913 48.1846357,44.4419784 48.2319145,44.0970282 C48.2926637,43.5888473 48.2926637,42.5912385 48.2926637,41.4362099 L48.2926637,39.2637629 C48.2926637,37.342501 48.2926637,36.9964943 48.2680999,36.6053217 C48.2443285,36.2046406 48.1608642,36.0902735 47.8415343,36.0223928 C47.7585984,36.0017909 47.5697474,35.9880563 47.4487771,35.9880563 C47.3175058,35.9880563 47.2184581,35.8995736 47.2184581,35.7825652 C47.2184581,35.6296355 47.3293915,35.5519821 47.5475607,35.5519821 C47.9667307,35.5519821 48.5171719,35.5731123 48.7818275,35.5834133 C48.8692536,35.5868469 48.9276257,35.5889599 48.942681,35.5889599 C48.9928652,35.5889599 49.1539828,35.5839415 49.355512,35.5776025 C49.6988774,35.5665091 50.1584589,35.5519821 50.399343,35.5519821 C51.1626709,35.5519821 52.0374604,35.6195987 52.7350206,36.1198558 C53.072047,36.3623246 53.6420337,37.0112854 53.6420337,37.9056204 C53.6420337,38.9209257 53.1813957,39.8340137 52.1940879,40.7714015 L52.4830432,41.1417079 C53.3269299,42.2248939 54.0556571,43.1601687 54.6803181,43.8276183 C55.3007531,44.4823899 55.7938788,44.6255469 56.1110956,44.6765234 C56.3350756,44.7119165 56.5009475,44.7119165 56.5719977,44.7119165 C56.7056462,44.7119165 56.8144666,44.8040969 56.8144666,44.9176717 C56.8144666,45.1479907 56.5466415,45.1479907 56.3865804,45.1479907" id="Fill-18" fill="#00663A"></path>
                <path d="M56.8197491,44.8557074 C56.6470099,44.7693378 56.6345959,44.719946 56.6345959,44.3868815 C56.6345959,43.769616 56.6837236,43.275698 56.6961376,43.0783949 C56.7085516,42.9423693 56.7333795,42.8805635 56.7949212,42.8805635 C56.8691409,42.8805635 56.8812908,42.9178055 56.8812908,43.016325 C56.8812908,43.1275225 56.8812908,43.3002618 56.9185328,43.4732652 C57.103686,44.3868815 57.9182545,44.73236 58.7455012,44.73236 C59.9306404,44.73236 60.510928,43.8808136 60.510928,43.0905447 C60.510928,42.2387342 60.1527714,41.7450803 59.0912438,40.8684418 L58.53552,40.4117658 C57.2270334,39.3375601 56.9309467,38.5723833 56.9309467,37.7327227 C56.9309467,36.4118221 57.9182545,35.5108839 59.4863783,35.5108839 C59.9676182,35.5108839 60.3255107,35.5602757 60.6342755,35.6342314 C60.8688205,35.6836232 60.9676041,35.6960371 61.0663877,35.6960371 C61.1651713,35.6960371 61.1897351,35.720601 61.1897351,35.7824068 C61.1897351,35.8442126 61.1403433,36.2514968 61.1403433,37.0911575 C61.1403433,37.2884606 61.1157795,37.3748302 61.0539737,37.3748302 C60.9800181,37.3748302 60.9676041,37.3130244 60.9551901,37.2142408 C60.9427761,37.0663295 60.8688205,36.7330009 60.7948648,36.5969753 C60.7209092,36.461478 60.3873164,35.9429962 59.2515691,35.9429962 C58.3997586,35.9429962 57.7333654,36.473892 57.7333654,37.3748302 C57.7333654,38.0784653 58.0542801,38.5227274 59.2391551,39.4487577 L59.5848977,39.7205446 C61.0415597,40.8684418 61.3873024,41.6338827 61.3873024,42.6214547 C61.3873024,43.1275225 61.1897351,44.0657027 60.3379246,44.6708183 C59.8072929,45.0408606 59.1406356,45.1893002 58.4739784,45.1893002 C57.8936907,45.1893002 57.325817,45.1029305 56.8197491,44.8557074" id="Fill-20" fill="#00663A"></path>
                <path d="M56.8777779,44.7378274 C57.3191346,44.952827 57.8410501,45.0574214 58.4738991,45.0574214 C59.1801755,45.0574214 59.7987616,44.8862669 60.2625691,44.562711 C61.2078807,43.8915636 61.2554236,42.827923 61.2554236,42.6213754 C61.2554236,41.7243991 60.9688455,40.9790319 59.5032032,39.8240033 L59.1579888,39.5522163 C57.936136,38.5979244 57.6014867,38.1296267 57.6014867,37.374751 C57.6014867,36.4542674 58.2800297,35.8111174 59.2514899,35.8111174 C60.3927839,35.8111174 60.7918802,36.316657 60.9102092,36.5340338 C60.9466588,36.6005939 60.9812595,36.702547 61.0103135,36.8097827 C61.0174449,36.3119027 61.0417446,36.0039303 61.052838,35.8597168 C61.0538945,35.8478311 61.0544227,35.8370019 61.0552151,35.8277574 C60.9437534,35.8267009 60.8317634,35.810325 60.6072552,35.7630462 C60.2628332,35.6806385 59.9081103,35.6423401 59.4860349,35.6423401 C58.0137894,35.6423401 57.0624029,36.4629836 57.0624029,37.7329076 C57.0624029,38.5128754 57.3270584,39.2495265 58.6191691,40.3097334 L59.1746288,40.7666736 C60.18967,41.6047495 60.6423842,42.139079 60.6423842,43.0907296 C60.6423842,43.9721224 59.9907821,44.8640802 58.745422,44.8640802 C57.7060811,44.8640802 56.9794669,44.365672 56.7953702,43.5289168 C56.7805791,43.7613488 56.7660521,44.0561149 56.7660521,44.3868022 C56.7660521,44.6813041 56.7660521,44.6818324 56.8777779,44.7378274 M58.4738991,45.3207563 C57.8001104,45.3207563 57.2401606,45.2071816 56.7620902,44.9742213 L56.7607695,44.9736931 C56.5153953,44.8508739 56.5027172,44.7269982 56.5027172,44.3868022 C56.5027172,43.8852245 56.5349407,43.4668469 56.5539579,43.2167183 L56.5647871,43.0701277 C56.5732391,42.979532 56.5938411,42.7489489 56.7951061,42.7489489 C57.0132752,42.7489489 57.0132752,42.9502139 57.0132752,43.0162457 C57.0132752,43.1240097 57.0132752,43.2864479 57.0473476,43.4454526 C57.2583853,44.4884912 58.3051218,44.6004812 58.745422,44.6004812 C59.8180429,44.6004812 60.3790493,43.8408511 60.3790493,43.0907296 C60.3790493,42.3147236 60.0842832,41.8593682 59.0074362,40.9700516 L58.4519766,40.5133755 C57.0803635,39.3874009 56.799068,38.5876235 56.799068,37.7329076 C56.799068,36.324845 57.8790845,35.3790052 59.4860349,35.3790052 C59.9289764,35.3790052 60.303773,35.4196808 60.664835,35.5063145 C60.8977952,35.5551781 60.9831084,35.5644225 61.0663085,35.5644225 C61.2881754,35.5644225 61.3214554,35.7009763 61.3214554,35.7825917 C61.3214554,35.7968545 61.3190783,35.8293422 61.3153805,35.8800546 C61.3024383,36.0464548 61.2720636,36.4355143 61.2720636,37.0910782 C61.2720636,37.2260473 61.2720636,37.5065505 61.0541586,37.5065505 C60.8589685,37.5065505 60.8346688,37.3134734 60.8243679,37.2308016 C60.8124821,37.0889652 60.741696,36.775182 60.679362,36.6602866 C60.5829555,36.4841137 60.2517399,36.0744523 59.2514899,36.0744523 C58.4223943,36.0744523 57.8648216,36.5971602 57.8648216,37.374751 C57.8648216,38.0289942 58.1775483,38.4523903 59.320163,39.3451405 L59.6661697,39.6169275 C61.2158045,40.837988 61.5187585,41.6430479 61.5187585,42.6213754 C61.5187585,43.284599 61.2290109,44.199536 60.4141782,44.7779747 C59.9049408,45.1332259 59.2343216,45.3207563 58.4738991,45.3207563" id="Fill-22" fill="#00663A"></path>
                <path d="M37.2467285,17.2448707 C39.196252,15.4514464 40.4199537,12.8809596 40.4199537,10.0297055 C40.4199537,4.62301994 36.0211778,0.224244068 30.6147564,0.224244068 L30.6147564,5.40457259 C33.1649053,5.40457259 35.2396252,7.47929244 35.2396252,10.0297055 C35.2396252,12.5798545 33.1649053,14.6548385 30.6147564,14.6548385 L30.6147564,19.8349029 C33.1649053,19.8349029 35.2396252,21.9098869 35.2396252,24.4600359 C35.2396252,27.010449 33.1649053,29.0851688 30.6147564,29.0851688 L30.6147564,34.2654973 C36.0211778,34.2654973 40.4199537,29.8667215 40.4199537,24.4600359 C40.4199537,21.6087818 39.196252,19.038295 37.2467285,17.2448707" id="Fill-24" fill="#00663A"></path>
                <path d="M9.86209037,39.8274898 C7.31194139,39.8274898 5.23695741,37.7527699 5.23695741,35.2023568 C5.23695741,32.6519437 7.31194139,30.5772239 9.86209037,30.5772239 C12.4125035,30.5772239 14.4874875,32.6519437 14.4874875,35.2023568 C14.4874875,37.7527699 12.4125035,39.8274898 9.86209037,39.8274898 M5.23695741,20.7717624 C5.23695741,18.2213493 7.31194139,16.1466294 9.86209037,16.1466294 C12.4125035,16.1466294 14.4874875,18.2213493 14.4874875,20.7717624 C14.4874875,23.3221755 12.4125035,25.3968953 9.86209037,25.3968953 C7.31194139,25.3968953 5.23695741,23.3221755 5.23695741,20.7717624 M16.4943266,27.9871917 C18.4438501,26.1937674 19.6675518,23.6230165 19.6675518,20.7717624 C19.6675518,15.3650768 15.2690401,10.9663009 9.86209037,10.9663009 C4.45540476,10.9663009 0.0568930181,15.3650768 0.0568930181,20.7717624 C0.0568930181,23.6230165 1.28059475,26.1937674 3.23011827,27.9871917 C1.28059475,29.7803518 0.0568930181,32.3508386 0.0568930181,35.2023568 C0.0568930181,40.6090424 4.45540476,45.0075542 9.86209037,45.0075542 C15.2690401,45.0075542 19.6675518,40.6090424 19.6675518,35.2023568 C19.6675518,32.3508386 18.4438501,29.7803518 16.4943266,27.9871917" id="Fill-26" fill="#65BB45"></path>
                <path d="M16.4944058,27.9871653 C18.4439294,26.193741 19.6676311,23.6232542 19.6676311,20.771736 C19.6676311,15.3650504 15.2688552,10.9665386 9.86216961,10.9665386 L9.86216961,16.146603 C12.4125827,16.146603 14.4873026,18.2213229 14.4873026,20.771736 C14.4873026,23.3221491 12.4125827,25.3968689 9.86216961,25.3968689 L9.86216961,30.5771975 C12.4125827,30.5771975 14.4873026,32.6519173 14.4873026,35.2023304 C14.4873026,37.7527435 12.4125827,39.8274634 9.86216961,39.8274634 L9.86216961,45.0075278 C15.2688552,45.0075278 19.6676311,40.609016 19.6676311,35.2023304 C19.6676311,32.3508122 18.4439294,29.7803254 16.4944058,27.9871653" id="Fill-28" fill="#00663A"></path>
                <polygon id="Fill-30" fill="#00663A" points="25.7117351 19.8362235 30.6144658 19.8362235 30.6144658 14.6561591 25.7117351 14.6561591"></polygon>
                <polygon id="Fill-32" fill="#00663A" points="4.95951811 16.1463653 9.86224884 16.1463653 9.86224884 10.9663009 4.95951811 10.9663009"></polygon>
                <polygon id="Fill-33" fill="#00663A" points="25.7117351 5.40457259 30.6144658 5.40457259 30.6144658 0.224244068 25.7117351 0.224244068"></polygon>
                <polygon id="Fill-34" fill="#00663A" points="4.95951811 30.5785445 9.86224884 30.5785445 9.86224884 25.3984801 4.95951811 25.3984801"></polygon>
                <polygon id="Fill-35" fill="#00663A" points="25.7117351 34.2681386 30.6144658 34.2681386 30.6144658 29.0880742 25.7117351 29.0880742"></polygon>
                <polygon id="Fill-36" fill="#00663A" points="4.95951811 45.0104596 9.86224884 45.0104596 9.86224884 39.8303952 4.95951811 39.8303952"></polygon>
            </g>
        </g>
    </g>
</svg>