<svg width="134" height="61" viewBox="0 0 134 61" fill="none" xmlns="http://www.w3.org/2000/svg">
<g clip-path="url(#clip0)">
<path d="M51.6724 23.7405H42.3084V28.3186H51.6724V23.7405Z" fill="#7989A8"/>
<path d="M50.0172 25.3579H43.9597V28.3226H50.0172V25.3579Z" fill="#DB7D35"/>
<path d="M51.6724 23.7405H46.9884H42.3084L46.9884 19.0958L51.6724 23.7405Z" fill="#3E485E"/>
<path d="M48.135 21.1793V16.4954H45.8458V21.1793H48.135Z" fill="#EEA25E"/>
<path d="M47.3484 20.8151V12.3246C47.3485 12.2276 47.3102 12.1345 47.2421 12.0656C47.174 11.9967 47.0814 11.9575 46.9845 11.9564C46.887 11.9564 46.7934 11.9952 46.7244 12.0642C46.6555 12.1333 46.6167 12.2269 46.6167 12.3246V20.8151C46.6167 20.9127 46.6555 21.0063 46.7244 21.0754C46.7934 21.1444 46.887 21.1832 46.9845 21.1832C47.0814 21.1822 47.174 21.1429 47.2421 21.074C47.3102 21.0051 47.3485 20.912 47.3484 20.8151Z" fill="#EEA25E"/>
<path d="M49.7706 21.8529H44.218L46.2175 19.8712C46.3201 19.768 46.442 19.686 46.5764 19.6301C46.7107 19.5742 46.8547 19.5454 47.0002 19.5454C47.1456 19.5454 47.2897 19.5742 47.424 19.6301C47.5583 19.686 47.6802 19.768 47.7828 19.8712L49.7706 21.8529Z" fill="#DB7D35"/>
<path d="M51.7429 28.3186H42.234V60.0993H51.7429V28.3186Z" fill="#E8EAEC"/>
<path d="M51.7429 28.3186H42.234V29.4847H51.7429V28.3186Z" fill="#3E485E"/>
<path d="M51.7429 30.6723H42.234V31.8384H51.7429V30.6723Z" fill="#3E485E"/>
<path d="M51.7429 33.0299H42.234V34.196H51.7429V33.0299Z" fill="#3E485E"/>
<path d="M51.7429 35.3836H42.234V36.5497H51.7429V35.3836Z" fill="#3E485E"/>
<path d="M51.7429 37.7373H42.234V38.9034H51.7429V37.7373Z" fill="#3E485E"/>
<path d="M51.7429 40.0949H42.234V41.261H51.7429V40.0949Z" fill="#3E485E"/>
<path d="M51.7429 42.4486H42.234V43.6147H51.7429V42.4486Z" fill="#3E485E"/>
<path d="M51.7429 44.8023H42.234V45.9684H51.7429V44.8023Z" fill="#3E485E"/>
<path d="M51.7429 47.1599H42.234V48.326H51.7429V47.1599Z" fill="#3E485E"/>
<path d="M51.7429 49.5136H42.234V50.6797H51.7429V49.5136Z" fill="#3E485E"/>
<path d="M51.7429 51.8672H42.234V53.0333H51.7429V51.8672Z" fill="#3E485E"/>
<path d="M51.7429 54.2249H42.234V55.391H51.7429V54.2249Z" fill="#3E485E"/>
<path d="M51.7429 56.5785H42.234V57.7446H51.7429V56.5785Z" fill="#3E485E"/>
<path d="M51.7429 58.9322H42.234V60.0983H51.7429V58.9322Z" fill="#3E485E"/>
<path d="M50.6981 35.321H43.2827V60.0993H50.6981V35.321Z" fill="#DB7D35"/>
<path d="M44.308 33.3902V60.0993H49.6728V33.3902C49.6728 32.6787 49.3904 31.9964 48.8877 31.4933C48.3851 30.9902 47.7033 30.7076 46.9924 30.7076C46.2811 30.7076 45.5989 30.9901 45.0956 31.4931C44.5923 31.996 44.309 32.6784 44.308 33.3902Z" fill="#DB7D35"/>
<path d="M45.1845 33.59V34.6043H48.7963V33.59C48.7963 33.1111 48.6062 32.6519 48.2679 32.3134C47.9296 31.9748 47.4708 31.7846 46.9924 31.7846C46.7551 31.7841 46.5201 31.8304 46.3008 31.9209C46.0815 32.0114 45.8822 32.1443 45.7143 32.312C45.5463 32.4797 45.4131 32.6789 45.3222 32.8982C45.2313 33.1175 45.1845 33.3525 45.1845 33.59Z" fill="#EEA25E"/>
<path d="M42.238 60.1032H40.2618V29.9361L42.238 28.3186V60.1032Z" fill="#7989A8"/>
<path d="M53.719 60.1032H51.7468V28.3186L53.719 29.9361V60.1032Z" fill="#7989A8"/>
<path d="M44.9967 36.488H44.7267V56.7782H44.9967V36.488Z" fill="#EEA25E"/>
<path d="M45.8458 36.488H45.5758V56.7782H45.8458V36.488Z" fill="#EEA25E"/>
<path d="M46.6989 36.488H46.4289V56.7782H46.6989V36.488Z" fill="#EEA25E"/>
<path d="M47.5519 36.488H47.2819V56.7782H47.5519V36.488Z" fill="#EEA25E"/>
<path d="M48.405 36.488H48.135V56.7782H48.405V36.488Z" fill="#EEA25E"/>
<path d="M49.258 36.488H48.988V56.7782H49.258V36.488Z" fill="#EEA25E"/>
<path d="M55.0572 58.3252H38.9236V61H55.0572V58.3252Z" fill="#3E485E"/>
<path d="M12.6276 5.74129V25.3423" stroke="#40495E" stroke-width="0.37957" stroke-miterlimit="10" stroke-linecap="round"/>
<path d="M15.5937 25.3423V5.74129" stroke="#40495E" stroke-width="0.37957" stroke-miterlimit="10" stroke-linecap="round"/>
<path d="M12.6471 13.1587L15.4372 9.91603L12.5963 8.20853" stroke="#40495E" stroke-width="0.37957" stroke-miterlimit="10" stroke-linecap="round"/>
<path d="M15.3432 61H8.01401V15.3518L15.3432 12.5713V61Z" fill="#4E6186"/>
<path d="M8.01401 55.6386L15.3432 57.1542L11.7119 50.7903L8.10792 55.4976" fill="#3E485E"/>
<path d="M8.01401 44.1639L15.2454 46.1925L11.4262 40.2633L8.01401 44.1639Z" fill="#3E485E"/>
<path d="M15.2963 35.8692L11.3636 30.3042L8.01401 35.0194L15.2963 35.8692Z" fill="#3E485E"/>
<path d="M11.1445 61H12.0758L15.3432 57.1542L8.01401 55.6386L11.1445 61Z" fill="#E8EAEC"/>
<path d="M15.2454 46.1925L11.7432 50.7393L8.01401 44.1639L15.2454 46.1925Z" fill="#E8EAEC"/>
<path d="M15.2963 35.8692L8.01401 35.0194L11.4106 40.2633L15.2963 35.8692Z" fill="#E8EAEC"/>
<path d="M16.7324 12.5713H15.3432V61H16.7324V12.5713Z" fill="#3E485E"/>
<path d="M21.9759 61V36.2139L16.838 31.855L15.3432 35.6773V61H21.9759Z" fill="#3E485E"/>
<path d="M15.3432 57.119L18.6928 50.7903L15.3432 46.2748V57.119Z" fill="#4E6186"/>
<path d="M15.3432 57.162V61H18.2389L15.3432 57.162Z" fill="#4E6186"/>
<path d="M15.3432 46.1416L18.9746 40.6745L15.3432 35.9319V46.1416Z" fill="#4E6186"/>
<path d="M21.9759 44.5986V36.2648L18.9902 40.7137L21.9759 44.5986Z" fill="#7989A8"/>
<path d="M21.976 44.5947L18.732 50.8137L21.976 55.1922V44.5947Z" fill="#7989A8"/>
<path d="M21.9759 61V55.0355L19.2603 61H21.9759Z" fill="#7989A8"/>
<path d="M21.9759 36.2139L16.8381 31.855L15.2963 35.8692L21.9759 36.2139Z" fill="#7989A8"/>
<path d="M15.4685 12.5086L11.7745 19.0527L8.05708 25.5851V25.5303L15.3746 35.7987L15.4098 35.8457L15.3707 35.8888L8.061 44.2031L8.06491 44.1326L15.3667 57.1386L15.3746 57.1542L15.3628 57.1699L12.0993 61L15.3237 57.1346L15.3198 57.166L7.96317 44.1913L7.9436 44.1561L7.971 44.1248L15.2611 35.7909L15.2572 35.881L7.97491 25.589L7.95534 25.5655L7.971 25.5342L11.708 19.0175L15.4685 12.5086Z" fill="#E9EAEC"/>
<path d="M8.014 15.3518L15.3784 24.7744L15.4019 24.8018L15.3784 24.8332L8.07269 35.0586V34.9802L15.2806 46.1651L15.3041 46.2004L15.2767 46.2317L8.04139 55.6582V55.623L11.1406 61L7.98661 55.6543L7.97487 55.6347L7.98661 55.619L15.1867 46.1612L15.1828 46.2278L7.9553 35.0586L7.93182 35.0194L7.95922 34.9802L15.3041 24.7783V24.8332L8.014 15.3518Z" fill="#E9EAEC"/>
<path d="M21.9759 36.2178C20.8763 37.89 19.7807 39.5623 18.6655 41.2267L15.3354 46.2121V46.1338C17.5854 49.1141 19.7846 52.1296 22.0151 55.1412V55.1647V55.1922C21.0994 57.1503 20.1681 59.0614 19.2368 60.9922C20.125 59.034 21.0172 57.0759 21.929 55.1491V55.2C19.7024 52.204 17.4407 49.2355 15.2298 46.2121L15.2024 46.1769L15.2258 46.1377L18.5911 41.164C19.7063 39.5153 20.845 37.8665 21.9759 36.2178Z" fill="#E9EAEC"/>
<path d="M15.2963 35.8692L18.6694 40.2085L22.0229 44.5634L22.0503 44.5947L22.0307 44.6299C20.9351 46.7186 19.8303 48.8073 18.7163 50.896L15.3785 57.1777V57.1346L18.2194 60.9726L15.308 57.1777V57.1581V57.1346L18.6029 50.8451C19.6933 48.7564 20.7994 46.6677 21.9212 44.579V44.6456L18.595 40.2672L15.2963 35.8692Z" fill="#E9EAEC"/>
<path d="M15.2963 35.8685L8.01401 35.0194" stroke="#E9EAEC" stroke-width="0.152611" stroke-miterlimit="10" stroke-linecap="round"/>
<path d="M8.01401 44.1639L15.2454 46.1925" stroke="#E9EAEC" stroke-width="0.152611" stroke-miterlimit="10" stroke-linecap="round"/>
<path d="M21.9759 44.6025L15.2454 46.1925" stroke="#E9EAEC" stroke-width="0.152611" stroke-miterlimit="10" stroke-linecap="round"/>
<path d="M8.01401 55.6386L15.3432 57.1542" stroke="#E9EAEC" stroke-width="0.152611" stroke-miterlimit="10" stroke-linecap="round"/>
<path d="M21.9133 55.1843L15.3354 57.1582" stroke="#E9EAEC" stroke-width="0.152611" stroke-miterlimit="10" stroke-linecap="round"/>
<path d="M16.8381 31.855L15.2963 35.8692L21.9759 36.2139" stroke="#E9EAEC" stroke-width="0.152611" stroke-miterlimit="10" stroke-linecap="round"/>
<path d="M15.3432 35.6774V61" stroke="#E9EAEC" stroke-width="0.152611" stroke-miterlimit="10"/>
<path d="M21.2951 61H25.4038V44.4655L21.2951 48.5071V61Z" fill="#4E6186"/>
<path d="M25.4038 44.4655C24.7738 45.1939 24.1242 45.9067 23.4707 46.6116C22.8173 47.3165 22.1481 48.0058 21.479 48.6951L21.5572 48.5071C21.5807 49.5488 21.5885 50.5905 21.5925 51.6401C21.5964 52.6897 21.5925 53.7236 21.5651 54.7731C21.5377 55.8227 21.522 56.8527 21.479 57.9061C21.4607 58.4283 21.4333 58.9505 21.3968 59.4727C21.3694 59.9935 21.3381 60.5144 21.2951 61.0392C21.2481 60.5183 21.2207 59.9974 21.1894 59.4727C21.1581 58.9479 21.1307 58.4309 21.1112 57.9061C21.0681 56.8644 21.0368 55.8266 21.0212 54.7731C21.0055 53.7196 21.0211 52.6897 20.9977 51.6401C20.9742 50.5905 20.9977 49.5606 21.0329 48.5071V48.3896L21.1112 48.3191C21.8077 47.6612 22.512 47.0071 23.2281 46.3609C23.9442 45.7148 24.6525 45.0842 25.4038 44.4655Z" fill="#3F495E"/>
<path d="M34.6739 60.9997H26.4525V0.406982L34.6739 8.48627V60.9997Z" fill="#4E6186"/>
<path d="M26.4525 61C26.3508 55.948 26.283 50.8986 26.249 45.8518C26.1903 40.7998 26.1864 35.7518 26.1708 30.7037C26.1551 25.6556 26.1708 20.6036 26.1708 15.5555C26.1708 10.5074 26.2177 5.4554 26.2803 0.391643V1.52588e-05L26.566 0.285904C27.9278 1.64094 29.2817 3.00511 30.6278 4.37842L34.6739 8.4866L30.4947 4.51549C29.1017 3.19178 27.7138 1.86286 26.3312 0.528713L26.609 0.391643C26.6599 5.43973 26.7069 10.4917 26.7108 15.5398C26.7147 20.5879 26.7499 25.6399 26.7108 30.688C26.6717 35.7361 26.7108 40.7842 26.6325 45.8362C26.5543 50.8882 26.5503 55.948 26.4525 61Z" fill="#798AA9"/>
<path d="M37.9609 61H25.2551V5.72562L37.9609 18.2107V61Z" fill="#7989A8"/>
<path d="M29.2934 58.0824H26.2021" stroke="white" stroke-width="0.297395" stroke-miterlimit="10" stroke-linecap="round"/>
<path d="M29.2934 55.1647H26.2021" stroke="white" stroke-width="0.297395" stroke-miterlimit="10" stroke-linecap="round"/>
<path d="M29.2934 52.2471H26.2021" stroke="white" stroke-width="0.297395" stroke-miterlimit="10" stroke-linecap="round"/>
<path d="M29.2934 49.3295H26.2021" stroke="white" stroke-width="0.297395" stroke-miterlimit="10" stroke-linecap="round"/>
<path d="M29.2934 46.4118H26.2021" stroke="white" stroke-width="0.297395" stroke-miterlimit="10" stroke-linecap="round"/>
<path d="M25.2551 9.31683C27.5365 11.228 29.6926 13.2723 31.8174 15.344C33.9422 17.4157 36.0005 19.5501 37.957 21.8019C35.6757 19.8908 33.5196 17.8465 31.3948 15.7709C29.27 13.6952 27.2078 11.5648 25.2551 9.31683Z" fill="#3F495E"/>
<path d="M25.2551 61C25.169 56.3945 25.1064 51.7876 25.0673 47.1795L25.0047 40.2711V33.3628C25.0047 28.7573 24.9655 24.1478 25.0047 19.5423C25.0438 14.9367 25.0047 10.3312 25.0634 5.72561V5.18517L25.4547 5.57679L31.6961 11.8663C33.7817 13.9811 35.8792 16.0842 37.957 18.2107C35.7931 16.1782 33.6526 14.1182 31.5043 12.07L25.0986 5.87443L25.4899 5.71386C25.5368 10.3194 25.5251 14.925 25.5486 19.5305C25.5721 24.136 25.5486 28.7455 25.5486 33.3511L25.5251 40.2594L25.4351 47.1795C25.4116 51.785 25.3412 56.3945 25.2551 61Z" fill="white"/>
<path d="M40.3557 61H30.4126V28.3421L40.3557 38.1093V61Z" fill="#E8EAEC"/>
<path d="M39.1583 58.0824H31.7821" stroke="white" stroke-width="0.297395" stroke-miterlimit="10" stroke-linecap="round"/>
<path d="M39.1583 55.1647H31.7821" stroke="white" stroke-width="0.297395" stroke-miterlimit="10" stroke-linecap="round"/>
<path d="M39.1583 52.2471H31.7821" stroke="white" stroke-width="0.297395" stroke-miterlimit="10" stroke-linecap="round"/>
<path d="M39.1583 49.3295H31.7821" stroke="white" stroke-width="0.297395" stroke-miterlimit="10" stroke-linecap="round"/>
<path d="M39.1583 46.4118H31.7821" stroke="white" stroke-width="0.297395" stroke-miterlimit="10" stroke-linecap="round"/>
<path d="M29.2934 43.4942H26.2021" stroke="white" stroke-width="0.297395" stroke-miterlimit="10" stroke-linecap="round"/>
<path d="M29.4421 40.5766H26.2021" stroke="white" stroke-width="0.297395" stroke-miterlimit="10" stroke-linecap="round"/>
<path d="M29.4421 37.659H26.2021" stroke="white" stroke-width="0.297395" stroke-miterlimit="10" stroke-linecap="round"/>
<path d="M35.12 37.659H31.4847" stroke="white" stroke-width="0.297395" stroke-miterlimit="10" stroke-linecap="round"/>
<path d="M29.3913 34.7413H26.2021" stroke="white" stroke-width="0.297395" stroke-miterlimit="10" stroke-linecap="round"/>
<path d="M29.493 31.8237H26.2021" stroke="white" stroke-width="0.297395" stroke-miterlimit="10" stroke-linecap="round"/>
<path d="M37.1157 28.9061H26.2021" stroke="white" stroke-width="0.297395" stroke-miterlimit="10" stroke-linecap="round"/>
<path d="M37.1157 25.9884H26.2021" stroke="white" stroke-width="0.297395" stroke-miterlimit="10" stroke-linecap="round"/>
<path d="M37.1157 23.0747H26.2021" stroke="white" stroke-width="0.297395" stroke-miterlimit="10" stroke-linecap="round"/>
<path d="M34.8735 20.1571H26.2021" stroke="white" stroke-width="0.297395" stroke-miterlimit="10" stroke-linecap="round"/>
<path d="M31.9817 17.2395H26.2021" stroke="white" stroke-width="0.297395" stroke-miterlimit="10" stroke-linecap="round"/>
<path d="M28.9921 14.3218H26.1042" stroke="white" stroke-width="0.297395" stroke-miterlimit="10" stroke-linecap="round"/>
<path d="M30.4165 31.5809C32.2361 33.0378 33.9383 34.6278 35.5935 36.2491C37.2487 37.8704 38.8648 39.5505 40.3557 41.3403C38.5322 39.8795 36.8339 38.2895 35.1748 36.6682C33.5156 35.0468 31.9074 33.3746 30.4165 31.5809Z" fill="#3F495E"/>
<path d="M30.4165 61L30.3108 56.9153C30.2717 55.5564 30.2521 54.1739 30.2365 52.8346C30.1974 50.0932 30.1504 47.3909 30.1465 44.6691C30.1426 41.9473 30.1308 39.2294 30.1308 36.5076L30.17 28.3421V27.7312L30.6004 28.1581C31.4261 28.9766 32.2361 29.8068 33.0578 30.6332L35.5074 33.1082C36.3253 33.9307 37.1314 34.7687 37.9414 35.599C38.7514 36.4292 39.5614 37.2673 40.3636 38.1093C39.5079 37.3261 38.6575 36.5337 37.8122 35.7321C36.967 34.9489 36.114 34.1656 35.2765 33.3432L32.7487 30.9386C31.9113 30.1554 31.0661 29.3408 30.2365 28.5301L30.6708 28.346L30.71 36.5115C30.71 39.2529 30.71 41.9512 30.6826 44.673C30.6552 47.3948 30.6317 50.1167 30.5965 52.8385C30.5965 54.1974 30.5574 55.5799 30.5221 56.9192L30.4165 61Z" fill="white"/>
<path d="M37.1157 31.8237H35.0222" stroke="white" stroke-width="0.297395" stroke-miterlimit="10" stroke-linecap="round"/>
<path d="M37.914 40.5766H31.5356" stroke="white" stroke-width="0.297395" stroke-miterlimit="10" stroke-linecap="round"/>
<path d="M39.1583 43.4942H31.6335" stroke="white" stroke-width="0.297395" stroke-miterlimit="10" stroke-linecap="round"/>
<path d="M77.3853 53.7431C77.3473 53.7431 77.3096 53.7356 77.2745 53.7211C77.2394 53.7065 77.2075 53.6852 77.1806 53.6583C77.1537 53.6313 77.1324 53.5994 77.1178 53.5642C77.1033 53.5291 77.0958 53.4914 77.0958 53.4533V52.0866C77.0958 52.0093 77.1261 51.9352 77.1803 51.8802C77.2345 51.8253 77.3082 51.7939 77.3853 51.7928C77.4629 51.7938 77.5369 51.8251 77.5917 51.88C77.6466 51.9348 77.6778 52.009 77.6788 52.0866V53.4455C77.6793 53.4844 77.6721 53.523 77.6576 53.5591C77.6431 53.5952 77.6216 53.628 77.5943 53.6557C77.5669 53.6834 77.5344 53.7054 77.4986 53.7204C77.4627 53.7354 77.4242 53.7431 77.3853 53.7431Z" fill="#3E485E"/>
<path d="M78.438 51.8007H78.4341C78.2741 51.8007 78.1445 51.9304 78.1445 52.0905V53.4533C78.1445 53.6134 78.2741 53.7431 78.4341 53.7431H78.438C78.5979 53.7431 78.7276 53.6134 78.7276 53.4533V52.0905C78.7276 51.9304 78.5979 51.8007 78.438 51.8007Z" fill="#3E485E"/>
<path d="M111.351 53.7431C111.313 53.7431 111.275 53.7356 111.24 53.7211C111.205 53.7065 111.173 53.6852 111.146 53.6583C111.119 53.6313 111.098 53.5994 111.084 53.5642C111.069 53.5291 111.061 53.4914 111.061 53.4533V52.0866C111.061 52.0093 111.092 51.9352 111.146 51.8802C111.2 51.8253 111.274 51.7939 111.351 51.7928C111.428 51.7939 111.502 51.8253 111.556 51.8802C111.61 51.9352 111.641 52.0093 111.641 52.0866V53.4455C111.642 53.4842 111.635 53.5227 111.621 53.5588C111.607 53.5949 111.586 53.6278 111.559 53.6555C111.532 53.6833 111.499 53.7053 111.464 53.7204C111.428 53.7354 111.39 53.7432 111.351 53.7431Z" fill="#3E485E"/>
<path d="M112.4 53.7431C112.323 53.7431 112.248 53.7127 112.194 53.6585C112.139 53.6043 112.107 53.5306 112.106 53.4533V52.0866C112.107 52.009 112.138 51.9348 112.193 51.88C112.248 51.8251 112.322 51.7938 112.4 51.7928C112.477 51.7939 112.551 51.8253 112.605 51.8802C112.659 51.9352 112.689 52.0093 112.689 52.0866V53.4455C112.69 53.4842 112.684 53.5227 112.67 53.5588C112.655 53.5949 112.634 53.6278 112.607 53.6555C112.58 53.6833 112.548 53.7053 112.512 53.7204C112.477 53.7354 112.438 53.7432 112.4 53.7431Z" fill="#3E485E"/>
<path d="M89.1168 40.7254H86.8824V54.4559H89.1168V40.7254Z" fill="#3E485E"/>
<path d="M86.405 47.1166C86.405 47.0481 86.4322 46.9824 86.4807 46.9339C86.5291 46.8855 86.5948 46.8583 86.6633 46.8583H89.332C89.4005 46.8583 89.4662 46.8855 89.5146 46.9339C89.5631 46.9824 89.5903 47.0481 89.5903 47.1166C89.5908 47.1508 89.5845 47.1848 89.5718 47.2166C89.559 47.2484 89.5401 47.2773 89.516 47.3017C89.492 47.3261 89.4634 47.3455 89.4318 47.3587C89.4002 47.3719 89.3663 47.3788 89.332 47.3787H86.6633C86.629 47.3788 86.5951 47.3719 86.5636 47.3587C86.532 47.3455 86.5033 47.3261 86.4793 47.3017C86.4552 47.2773 86.4363 47.2484 86.4236 47.2166C86.4108 47.1848 86.4045 47.1508 86.405 47.1166Z" fill="#7989A8"/>
<path d="M86.405 46.4508C86.4045 46.4168 86.4108 46.3829 86.4236 46.3514C86.4364 46.3198 86.4554 46.2911 86.4795 46.267C86.5036 46.2429 86.5323 46.2239 86.5638 46.2111C86.5954 46.1983 86.6292 46.192 86.6633 46.1926H89.332C89.3661 46.192 89.3999 46.1983 89.4315 46.2111C89.4631 46.2239 89.4917 46.2429 89.5158 46.267C89.5399 46.2911 89.5589 46.3198 89.5717 46.3514C89.5845 46.3829 89.5908 46.4168 89.5903 46.4508C89.5908 46.4849 89.5845 46.5187 89.5717 46.5503C89.5589 46.5818 89.5399 46.6105 89.5158 46.6346C89.4917 46.6587 89.4631 46.6777 89.4315 46.6905C89.3999 46.7033 89.3661 46.7096 89.332 46.7091H86.6633C86.6292 46.7096 86.5954 46.7033 86.5638 46.6905C86.5323 46.6777 86.5036 46.6587 86.4795 46.6346C86.4554 46.6105 86.4364 46.5818 86.4236 46.5503C86.4108 46.5187 86.4045 46.4849 86.405 46.4508Z" fill="#7989A8"/>
<path d="M86.405 45.7851C86.4045 45.751 86.4108 45.7172 86.4236 45.6856C86.4364 45.654 86.4554 45.6253 86.4795 45.6013C86.5036 45.5772 86.5323 45.5582 86.5638 45.5454C86.5954 45.5326 86.6292 45.5263 86.6633 45.5268H89.332C89.3661 45.5263 89.3999 45.5326 89.4315 45.5454C89.4631 45.5582 89.4917 45.5772 89.5158 45.6013C89.5399 45.6253 89.5589 45.654 89.5717 45.6856C89.5845 45.7172 89.5908 45.751 89.5903 45.7851C89.5903 45.8536 89.5631 45.9192 89.5146 45.9677C89.4662 46.0161 89.4005 46.0433 89.332 46.0433H86.6633C86.5948 46.0433 86.5291 46.0161 86.4807 45.9677C86.4322 45.9192 86.405 45.8536 86.405 45.7851Z" fill="#7989A8"/>
<path d="M86.405 45.1193C86.4045 45.085 86.4108 45.051 86.4236 45.0193C86.4363 44.9875 86.4552 44.9585 86.4793 44.9341C86.5033 44.9097 86.532 44.8904 86.5636 44.8771C86.5951 44.8639 86.629 44.8571 86.6633 44.8571H89.332C89.3663 44.8571 89.4002 44.8639 89.4318 44.8771C89.4634 44.8904 89.492 44.9097 89.516 44.9341C89.5401 44.9585 89.559 44.9875 89.5718 45.0193C89.5845 45.051 89.5908 45.085 89.5903 45.1193C89.5903 45.1878 89.5631 45.2535 89.5146 45.3019C89.4662 45.3503 89.4005 45.3776 89.332 45.3776H86.6633C86.5948 45.3776 86.5291 45.3503 86.4807 45.3019C86.4322 45.2535 86.405 45.1878 86.405 45.1193Z" fill="#7989A8"/>
<path d="M86.405 44.4496C86.405 44.3811 86.4322 44.3154 86.4807 44.267C86.5291 44.2185 86.5948 44.1913 86.6633 44.1913H89.332C89.4005 44.1913 89.4662 44.2185 89.5146 44.267C89.5631 44.3154 89.5903 44.3811 89.5903 44.4496C89.5908 44.4838 89.5845 44.5178 89.5718 44.5496C89.559 44.5814 89.5401 44.6104 89.516 44.6348C89.492 44.6591 89.4634 44.6785 89.4318 44.6917C89.4002 44.705 89.3663 44.7118 89.332 44.7118H86.6633C86.629 44.7118 86.5951 44.705 86.5636 44.6917C86.532 44.6785 86.5033 44.6591 86.4793 44.6348C86.4552 44.6104 86.4363 44.5814 86.4236 44.5496C86.4108 44.5178 86.4045 44.4838 86.405 44.4496Z" fill="#7989A8"/>
<path d="M86.405 43.7838C86.405 43.7153 86.4322 43.6497 86.4807 43.6012C86.5291 43.5528 86.5948 43.5256 86.6633 43.5256H89.332C89.4005 43.5256 89.4662 43.5528 89.5146 43.6012C89.5631 43.6497 89.5903 43.7153 89.5903 43.7838C89.5908 43.8181 89.5845 43.8521 89.5718 43.8839C89.559 43.9157 89.5401 43.9446 89.516 43.969C89.492 43.9934 89.4634 44.0128 89.4318 44.026C89.4002 44.0392 89.3663 44.046 89.332 44.046H86.6633C86.629 44.046 86.5951 44.0392 86.5636 44.026C86.532 44.0128 86.5033 43.9934 86.4793 43.969C86.4552 43.9446 86.4363 43.9157 86.4236 43.8839C86.4108 43.8521 86.4045 43.8181 86.405 43.7838Z" fill="#7989A8"/>
<path d="M86.405 43.118C86.4045 43.084 86.4108 43.0502 86.4236 43.0186C86.4364 42.987 86.4554 42.9583 86.4795 42.9343C86.5036 42.9102 86.5323 42.8912 86.5638 42.8784C86.5954 42.8656 86.6292 42.8593 86.6633 42.8598H89.332C89.3661 42.8593 89.3999 42.8656 89.4315 42.8784C89.4631 42.8912 89.4917 42.9102 89.5158 42.9343C89.5399 42.9583 89.5589 42.987 89.5717 43.0186C89.5845 43.0502 89.5908 43.084 89.5903 43.118C89.5908 43.1521 89.5845 43.1859 89.5717 43.2175C89.5589 43.2491 89.5399 43.2778 89.5158 43.3018C89.4917 43.3259 89.4631 43.3449 89.4315 43.3577C89.3999 43.3705 89.3661 43.3768 89.332 43.3763H86.6633C86.6292 43.3768 86.5954 43.3705 86.5638 43.3577C86.5323 43.3449 86.5036 43.3259 86.4795 43.3018C86.4554 43.2778 86.4364 43.2491 86.4236 43.2175C86.4108 43.1859 86.4045 43.1521 86.405 43.118Z" fill="#7989A8"/>
<path d="M102.907 40.7254H100.672V54.4559H102.907V40.7254Z" fill="#3E485E"/>
<path d="M100.195 47.1166C100.195 47.0481 100.222 46.9824 100.27 46.9339C100.319 46.8855 100.385 46.8583 100.453 46.8583H103.122C103.156 46.8583 103.189 46.865 103.221 46.878C103.252 46.8909 103.28 46.91 103.304 46.9339C103.328 46.9579 103.347 46.9864 103.36 47.0177C103.373 47.0491 103.38 47.0827 103.38 47.1166C103.381 47.1508 103.374 47.1848 103.362 47.2166C103.349 47.2484 103.33 47.2773 103.306 47.3017C103.282 47.3261 103.253 47.3455 103.222 47.3587C103.19 47.3719 103.156 47.3788 103.122 47.3787H100.453C100.419 47.3788 100.385 47.3719 100.353 47.3587C100.322 47.3455 100.293 47.3261 100.269 47.3017C100.245 47.2773 100.226 47.2484 100.213 47.2166C100.201 47.1848 100.194 47.1508 100.195 47.1166Z" fill="#7989A8"/>
<path d="M100.195 46.4508C100.194 46.4168 100.201 46.3829 100.213 46.3514C100.226 46.3198 100.245 46.2911 100.269 46.267C100.293 46.2429 100.322 46.2239 100.354 46.2111C100.385 46.1983 100.419 46.192 100.453 46.1926H103.122C103.156 46.192 103.19 46.1983 103.221 46.2111C103.253 46.2239 103.281 46.2429 103.306 46.267C103.33 46.2911 103.349 46.3198 103.361 46.3514C103.374 46.3829 103.381 46.4168 103.38 46.4508C103.381 46.4849 103.374 46.5187 103.361 46.5503C103.349 46.5818 103.33 46.6105 103.306 46.6346C103.281 46.6587 103.253 46.6777 103.221 46.6905C103.19 46.7033 103.156 46.7096 103.122 46.7091H100.453C100.419 46.7096 100.385 46.7033 100.354 46.6905C100.322 46.6777 100.293 46.6587 100.269 46.6346C100.245 46.6105 100.226 46.5818 100.213 46.5503C100.201 46.5187 100.194 46.4849 100.195 46.4508Z" fill="#7989A8"/>
<path d="M100.195 45.7851C100.194 45.751 100.201 45.7172 100.213 45.6856C100.226 45.654 100.245 45.6253 100.269 45.6013C100.293 45.5772 100.322 45.5582 100.354 45.5454C100.385 45.5326 100.419 45.5263 100.453 45.5268H103.122C103.156 45.5263 103.19 45.5326 103.221 45.5454C103.253 45.5582 103.281 45.5772 103.306 45.6013C103.33 45.6253 103.349 45.654 103.361 45.6856C103.374 45.7172 103.381 45.751 103.38 45.7851C103.38 45.819 103.373 45.8526 103.36 45.8839C103.347 45.9152 103.328 45.9437 103.304 45.9677C103.28 45.9917 103.252 46.0107 103.221 46.0237C103.189 46.0366 103.156 46.0433 103.122 46.0433H100.453C100.385 46.0433 100.319 46.0161 100.27 45.9677C100.222 45.9192 100.195 45.8536 100.195 45.7851Z" fill="#7989A8"/>
<path d="M100.195 45.1193C100.194 45.085 100.201 45.051 100.213 45.0193C100.226 44.9875 100.245 44.9585 100.269 44.9341C100.293 44.9097 100.322 44.8904 100.353 44.8771C100.385 44.8639 100.419 44.8571 100.453 44.8571H103.122C103.156 44.8571 103.19 44.8639 103.222 44.8771C103.253 44.8904 103.282 44.9097 103.306 44.9341C103.33 44.9585 103.349 44.9875 103.362 45.0193C103.374 45.051 103.381 45.085 103.38 45.1193C103.38 45.1532 103.373 45.1868 103.36 45.2181C103.347 45.2495 103.328 45.2779 103.304 45.3019C103.28 45.3259 103.252 45.3449 103.221 45.3579C103.189 45.3709 103.156 45.3776 103.122 45.3776H100.453C100.385 45.3776 100.319 45.3503 100.27 45.3019C100.222 45.2535 100.195 45.1878 100.195 45.1193Z" fill="#7989A8"/>
<path d="M100.195 44.4496C100.195 44.3811 100.222 44.3154 100.27 44.267C100.319 44.2185 100.385 44.1913 100.453 44.1913H103.122C103.156 44.1913 103.189 44.198 103.221 44.211C103.252 44.224 103.28 44.243 103.304 44.267C103.328 44.291 103.347 44.3194 103.36 44.3508C103.373 44.3821 103.38 44.4157 103.38 44.4496C103.381 44.4838 103.374 44.5178 103.362 44.5496C103.349 44.5814 103.33 44.6104 103.306 44.6348C103.282 44.6591 103.253 44.6785 103.222 44.6917C103.19 44.705 103.156 44.7118 103.122 44.7118H100.453C100.419 44.7118 100.385 44.705 100.353 44.6917C100.322 44.6785 100.293 44.6591 100.269 44.6348C100.245 44.6104 100.226 44.5814 100.213 44.5496C100.201 44.5178 100.194 44.4838 100.195 44.4496Z" fill="#7989A8"/>
<path d="M100.195 43.7838C100.195 43.7153 100.222 43.6497 100.27 43.6012C100.319 43.5528 100.385 43.5256 100.453 43.5256H103.122C103.156 43.5256 103.189 43.5323 103.221 43.5452C103.252 43.5582 103.28 43.5772 103.304 43.6012C103.328 43.6252 103.347 43.6537 103.36 43.685C103.373 43.7163 103.38 43.7499 103.38 43.7838C103.381 43.8181 103.374 43.8521 103.362 43.8839C103.349 43.9157 103.33 43.9446 103.306 43.969C103.282 43.9934 103.253 44.0128 103.222 44.026C103.19 44.0392 103.156 44.046 103.122 44.046H100.453C100.419 44.046 100.385 44.0392 100.353 44.026C100.322 44.0128 100.293 43.9934 100.269 43.969C100.245 43.9446 100.226 43.9157 100.213 43.8839C100.201 43.8521 100.194 43.8181 100.195 43.7838Z" fill="#7989A8"/>
<path d="M100.195 43.118C100.194 43.084 100.201 43.0502 100.213 43.0186C100.226 42.987 100.245 42.9583 100.269 42.9343C100.293 42.9102 100.322 42.8912 100.354 42.8784C100.385 42.8656 100.419 42.8593 100.453 42.8598H103.122C103.156 42.8593 103.19 42.8656 103.221 42.8784C103.253 42.8912 103.281 42.9102 103.306 42.9343C103.33 42.9583 103.349 42.987 103.361 43.0186C103.374 43.0502 103.381 43.084 103.38 43.118C103.381 43.1521 103.374 43.1859 103.361 43.2175C103.349 43.2491 103.33 43.2778 103.306 43.3018C103.281 43.3259 103.253 43.3449 103.221 43.3577C103.19 43.3705 103.156 43.3768 103.122 43.3763H100.453C100.419 43.3768 100.385 43.3705 100.354 43.3577C100.322 43.3449 100.293 43.3259 100.269 43.3018C100.245 43.2778 100.226 43.2491 100.213 43.2175C100.201 43.1859 100.194 43.1521 100.195 43.118Z" fill="#7989A8"/>
<path d="M68.9487 30.2533C72.8618 37.5611 82.9811 42.7854 94.8925 42.7854C106.804 42.7854 116.927 37.5689 120.836 30.2533H68.9487Z" fill="#E8EAEC"/>
<path d="M85.1411 32H84.0611V33.08H85.1411V32Z" fill="#7989A8"/>
<path d="M86.6085 32H85.5285V33.08H86.6085V32Z" fill="#7989A8"/>
<path d="M88.0798 32H86.9998V33.08H88.0798V32Z" fill="#7989A8"/>
<path d="M89.5511 32H88.4711V33.08H89.5511V32Z" fill="#7989A8"/>
<path d="M91.0225 32H89.9425V33.08H91.0225V32Z" fill="#7989A8"/>
<path d="M92.4899 32H91.4099V33.08H92.4899V32Z" fill="#7989A8"/>
<path d="M93.9612 32H92.8812V33.08H93.9612V32Z" fill="#7989A8"/>
<path d="M95.4326 32H94.3525V33.08H95.4326V32Z" fill="#7989A8"/>
<path d="M96.9039 32H95.8239V33.08H96.9039V32Z" fill="#7989A8"/>
<path d="M98.3713 32H97.2913V33.08H98.3713V32Z" fill="#7989A8"/>
<path d="M99.8426 32H98.7626V33.08H99.8426V32Z" fill="#7989A8"/>
<path d="M101.314 32H100.234V33.08H101.314V32Z" fill="#7989A8"/>
<path d="M102.785 32H101.705V33.08H102.785V32Z" fill="#7989A8"/>
<path d="M104.253 32H103.173V33.08H104.253V32Z" fill="#7989A8"/>
<path d="M105.724 32H104.644V33.08H105.724V32Z" fill="#7989A8"/>
<path d="M85.1411 33.3785H84.0611V34.4585H85.1411V33.3785Z" fill="#7989A8"/>
<path d="M86.6085 33.3785H85.5285V34.4585H86.6085V33.3785Z" fill="#7989A8"/>
<path d="M88.0798 33.3785H86.9998V34.4585H88.0798V33.3785Z" fill="#7989A8"/>
<path d="M89.5511 33.3785H88.4711V34.4585H89.5511V33.3785Z" fill="#7989A8"/>
<path d="M91.0225 33.3785H89.9425V34.4585H91.0225V33.3785Z" fill="#7989A8"/>
<path d="M92.4899 33.3785H91.4099V34.4585H92.4899V33.3785Z" fill="#7989A8"/>
<path d="M93.9612 33.3785H92.8812V34.4585H93.9612V33.3785Z" fill="#7989A8"/>
<path d="M95.4326 33.3785H94.3525V34.4585H95.4326V33.3785Z" fill="#7989A8"/>
<path d="M96.9039 33.3785H95.8239V34.4585H96.9039V33.3785Z" fill="#7989A8"/>
<path d="M98.3713 33.3785H97.2913V34.4585H98.3713V33.3785Z" fill="#7989A8"/>
<path d="M99.8426 33.3785H98.7626V34.4585H99.8426V33.3785Z" fill="#7989A8"/>
<path d="M101.314 33.3785H100.234V34.4585H101.314V33.3785Z" fill="#7989A8"/>
<path d="M102.785 33.3785H101.705V34.4585H102.785V33.3785Z" fill="#7989A8"/>
<path d="M104.253 33.3785H103.173V34.4585H104.253V33.3785Z" fill="#7989A8"/>
<path d="M105.724 33.3785H104.644V34.4585H105.724V33.3785Z" fill="#7989A8"/>
<path d="M85.1411 34.7609H84.0611V35.841H85.1411V34.7609Z" fill="#7989A8"/>
<path d="M86.6085 34.7609H85.5285V35.841H86.6085V34.7609Z" fill="#7989A8"/>
<path d="M88.0798 34.7609H86.9998V35.841H88.0798V34.7609Z" fill="#7989A8"/>
<path d="M89.5511 34.7609H88.4711V35.841H89.5511V34.7609Z" fill="#7989A8"/>
<path d="M91.0225 34.7609H89.9425V35.841H91.0225V34.7609Z" fill="#7989A8"/>
<path d="M92.4899 34.7609H91.4099V35.841H92.4899V34.7609Z" fill="#7989A8"/>
<path d="M93.9612 34.7609H92.8812V35.841H93.9612V34.7609Z" fill="#7989A8"/>
<path d="M95.4326 34.7609H94.3525V35.841H95.4326V34.7609Z" fill="#7989A8"/>
<path d="M96.9039 34.7609H95.8239V35.841H96.9039V34.7609Z" fill="#7989A8"/>
<path d="M98.3713 34.7609H97.2913V35.841H98.3713V34.7609Z" fill="#7989A8"/>
<path d="M99.8426 34.7609H98.7626V35.841H99.8426V34.7609Z" fill="#7989A8"/>
<path d="M101.314 34.7609H100.234V35.841H101.314V34.7609Z" fill="#7989A8"/>
<path d="M102.785 34.7609H101.705V35.841H102.785V34.7609Z" fill="#7989A8"/>
<path d="M104.253 34.7609H103.173V35.841H104.253V34.7609Z" fill="#7989A8"/>
<path d="M105.724 34.7609H104.644V35.841H105.724V34.7609Z" fill="#7989A8"/>
<path d="M86.6085 36.1434H85.5285V37.2234H86.6085V36.1434Z" fill="#7989A8"/>
<path d="M88.0798 36.1434H86.9998V37.2234H88.0798V36.1434Z" fill="#7989A8"/>
<path d="M89.5511 36.1434H88.4711V37.2234H89.5511V36.1434Z" fill="#7989A8"/>
<path d="M91.0225 36.1434H89.9425V37.2234H91.0225V36.1434Z" fill="#7989A8"/>
<path d="M92.4899 36.1434H91.4099V37.2234H92.4899V36.1434Z" fill="#7989A8"/>
<path d="M93.9612 36.1434H92.8812V37.2234H93.9612V36.1434Z" fill="#7989A8"/>
<path d="M95.4326 36.1434H94.3525V37.2234H95.4326V36.1434Z" fill="#7989A8"/>
<path d="M96.9039 36.1434H95.8239V37.2234H96.9039V36.1434Z" fill="#7989A8"/>
<path d="M98.3713 36.1434H97.2913V37.2234H98.3713V36.1434Z" fill="#7989A8"/>
<path d="M99.8426 36.1434H98.7626V37.2234H99.8426V36.1434Z" fill="#7989A8"/>
<path d="M101.314 36.1434H100.234V37.2234H101.314V36.1434Z" fill="#7989A8"/>
<path d="M102.785 36.1434H101.705V37.2234H102.785V36.1434Z" fill="#7989A8"/>
<path d="M104.253 36.1434H103.173V37.2234H104.253V36.1434Z" fill="#7989A8"/>
<path d="M88.0798 37.5258H86.9998V38.6058H88.0798V37.5258Z" fill="#7989A8"/>
<path d="M89.5511 37.5258H88.4711V38.6058H89.5511V37.5258Z" fill="#7989A8"/>
<path d="M91.0225 37.5258H89.9425V38.6058H91.0225V37.5258Z" fill="#7989A8"/>
<path d="M92.4899 37.5258H91.4099V38.6058H92.4899V37.5258Z" fill="#7989A8"/>
<path d="M93.9612 37.5258H92.8812V38.6058H93.9612V37.5258Z" fill="#7989A8"/>
<path d="M95.4326 37.5258H94.3525V38.6058H95.4326V37.5258Z" fill="#7989A8"/>
<path d="M96.9039 37.5258H95.8239V38.6058H96.9039V37.5258Z" fill="#7989A8"/>
<path d="M98.3713 37.5258H97.2913V38.6058H98.3713V37.5258Z" fill="#7989A8"/>
<path d="M99.8426 37.5258H98.7626V38.6058H99.8426V37.5258Z" fill="#7989A8"/>
<path d="M101.314 37.5258H100.234V38.6058H101.314V37.5258Z" fill="#7989A8"/>
<path d="M102.785 37.5258H101.705V38.6058H102.785V37.5258Z" fill="#7989A8"/>
<path d="M89.5511 38.9044H88.4711V39.9844H89.5511V38.9044Z" fill="#7989A8"/>
<path d="M91.0225 38.9044H89.9425V39.9844H91.0225V38.9044Z" fill="#7989A8"/>
<path d="M92.4899 38.9044H91.4099V39.9844H92.4899V38.9044Z" fill="#7989A8"/>
<path d="M93.9612 38.9044H92.8812V39.9844H93.9612V38.9044Z" fill="#7989A8"/>
<path d="M95.4326 38.9044H94.3525V39.9844H95.4326V38.9044Z" fill="#7989A8"/>
<path d="M96.9039 38.9044H95.8239V39.9844H96.9039V38.9044Z" fill="#7989A8"/>
<path d="M98.3713 38.9044H97.2913V39.9844H98.3713V38.9044Z" fill="#7989A8"/>
<path d="M99.8426 38.9044H98.7626V39.9844H99.8426V38.9044Z" fill="#7989A8"/>
<path d="M101.314 38.9044H100.234V39.9844H101.314V38.9044Z" fill="#7989A8"/>
<path d="M116.121 61H73.664L75.6519 53.9859C75.7133 53.7673 75.8444 53.5748 76.0252 53.4377C76.206 53.3005 76.4267 53.2262 76.6536 53.2262H113.131C113.358 53.2262 113.579 53.3005 113.76 53.4377C113.941 53.5748 114.072 53.7673 114.133 53.9859L116.121 61Z" fill="#7989A8"/>
<path d="M87.1563 53.8097H78.9388V54.5845H87.1563V53.8097Z" fill="#3E485E"/>
<path d="M86.4442 55.5564H78.2267V59.3121H86.4442V55.5564Z" fill="#E8EAEC"/>
<path d="M81.0089 55.5564H78.2267V59.3121H81.0089V55.5564Z" fill="#3E485E"/>
<path d="M86.4481 55.5564H83.6659V59.3121H86.4481V55.5564Z" fill="#3E485E"/>
<path d="M102.629 54.5851H110.846V53.8103H102.629V54.5851Z" fill="#3E485E"/>
<path d="M103.341 59.316H111.558V55.5603H103.341V59.316Z" fill="#E8EAEC"/>
<path d="M108.772 59.316H111.555V55.5603H108.772V59.316Z" fill="#3E485E"/>
<path d="M103.341 59.316H106.123V55.5603H103.341V59.316Z" fill="#3E485E"/>
<path d="M121.47 29.5523H68.3187V30.4992H121.47V29.5523Z" fill="#3E485E"/>
<path d="M103.368 52.4508H86.4129V61H103.368V52.4508Z" fill="#E8EAEC"/>
<path d="M90.0364 56.0107H89.2616V59.0536H90.0364V56.0107Z" fill="#3E485E"/>
<path d="M100.52 56.0107H99.7448V59.0536H100.52V56.0107Z" fill="#3E485E"/>
<path d="M94.3408 56.0107H93.566V59.0536H94.3408V56.0107Z" fill="#3E485E"/>
<path d="M96.2191 56.0107H95.4443V59.0536H96.2191V56.0107Z" fill="#3E485E"/>
<path d="M64.0456 37.5689H58.7668V41.1406H64.0456V37.5689Z" fill="#D34646"/>
<path d="M65.7087 38.7242H57.1038V43.3885H65.7087V38.7242Z" fill="#3E485E"/>
<path d="M66.773 40.1693H55.8868V61H66.773V40.1693Z" fill="#7989A8"/>
<path d="M66.773 40.1693H55.8868V44.207H66.773V40.1693Z" fill="#3E485E"/>
<path d="M66.773 48.7538H55.8868V51.1936H66.773V48.7538Z" fill="#D34646"/>
<path d="M67.1096 43.3885H55.5464C55.4145 43.3885 55.3077 43.4954 55.3077 43.6274V46.1181C55.3077 46.2501 55.4145 46.357 55.5464 46.357H67.1096C67.2414 46.357 67.3483 46.2501 67.3483 46.1181V43.6274C67.3483 43.4954 67.2414 43.3885 67.1096 43.3885Z" fill="#3E485E"/>
<path d="M67.1096 47.0502H55.5464C55.4145 47.0502 55.3077 47.1572 55.3077 47.2891V49.7799C55.3077 49.9118 55.4145 50.0188 55.5464 50.0188H67.1096C67.2414 50.0188 67.3483 49.9118 67.3483 49.7799V47.2891C67.3483 47.1572 67.2414 47.0502 67.1096 47.0502Z" fill="#3E485E"/>
<path d="M67.1096 50.708H55.5464C55.4145 50.708 55.3077 50.815 55.3077 50.9469V53.4377C55.3077 53.5696 55.4145 53.6766 55.5464 53.6766H67.1096C67.2414 53.6766 67.3483 53.5696 67.3483 53.4377V50.9469C67.3483 50.815 67.2414 50.708 67.1096 50.708Z" fill="#3E485E"/>
<path d="M67.1096 54.3697H55.5464C55.4145 54.3697 55.3077 54.4767 55.3077 54.6086V57.0994C55.3077 57.2313 55.4145 57.3383 55.5464 57.3383H67.1096C67.2414 57.3383 67.3483 57.2313 67.3483 57.0994V54.6086C67.3483 54.4767 67.2414 54.3697 67.1096 54.3697Z" fill="#3E485E"/>
<path d="M67.1096 58.0315H55.5464C55.4145 58.0315 55.3077 58.1384 55.3077 58.2704V60.7611C55.3077 60.8931 55.4145 61 55.5464 61H67.1096C67.2414 61 67.3483 60.8931 67.3483 60.7611V58.2704C67.3483 58.1384 67.2414 58.0315 67.1096 58.0315Z" fill="#3E485E"/>
<path d="M63.2434 40.1693H59.5651V61H63.2434V40.1693Z" fill="#E8EAEC"/>
<path d="M63.2434 42.2606H62.9813V61H63.2434V42.2606Z" fill="#3E485E"/>
<path d="M59.6747 42.2606H59.4125V61H59.6747V42.2606Z" fill="#3E485E"/>
<path d="M67.3287 39.4565H55.3312C55.1215 39.4565 54.9516 39.6266 54.9516 39.8364V42.5739C54.9516 42.7837 55.1215 42.9538 55.3312 42.9538H67.3287C67.5384 42.9538 67.7083 42.7837 67.7083 42.5739V39.8364C67.7083 39.6266 67.5384 39.4565 67.3287 39.4565Z" fill="#DB7D35"/>
<path d="M79.9523 37.5689H74.6736V41.1406H79.9523V37.5689Z" fill="#D34646"/>
<path d="M81.6154 38.7242H73.0105V43.3885H81.6154V38.7242Z" fill="#3E485E"/>
<path d="M82.6798 40.1693H71.7935V61H82.6798V40.1693Z" fill="#7989A8"/>
<path d="M82.6798 40.1693H71.7935V44.207H82.6798V40.1693Z" fill="#3E485E"/>
<path d="M82.6798 48.7538H71.7935V51.1936H82.6798V48.7538Z" fill="#D34646"/>
<path d="M83.0202 43.3885H71.457C71.3252 43.3885 71.2183 43.4954 71.2183 43.6274V46.1181C71.2183 46.2501 71.3252 46.357 71.457 46.357H83.0202C83.152 46.357 83.2589 46.2501 83.2589 46.1181V43.6274C83.2589 43.4954 83.152 43.3885 83.0202 43.3885Z" fill="#3E485E"/>
<path d="M83.0202 47.0502H71.457C71.3252 47.0502 71.2183 47.1572 71.2183 47.2891V49.7799C71.2183 49.9118 71.3252 50.0188 71.457 50.0188H83.0202C83.152 50.0188 83.2589 49.9118 83.2589 49.7799V47.2891C83.2589 47.1572 83.152 47.0502 83.0202 47.0502Z" fill="#3E485E"/>
<path d="M83.0202 50.708H71.457C71.3252 50.708 71.2183 50.815 71.2183 50.9469V53.4377C71.2183 53.5696 71.3252 53.6766 71.457 53.6766H83.0202C83.152 53.6766 83.2589 53.5696 83.2589 53.4377V50.9469C83.2589 50.815 83.152 50.708 83.0202 50.708Z" fill="#3E485E"/>
<path d="M83.0202 54.3697H71.457C71.3252 54.3697 71.2183 54.4767 71.2183 54.6086V57.0994C71.2183 57.2313 71.3252 57.3383 71.457 57.3383H83.0202C83.152 57.3383 83.2589 57.2313 83.2589 57.0994V54.6086C83.2589 54.4767 83.152 54.3697 83.0202 54.3697Z" fill="#3E485E"/>
<path d="M83.0202 58.0315H71.457C71.3252 58.0315 71.2183 58.1384 71.2183 58.2704V60.7611C71.2183 60.8931 71.3252 61 71.457 61H83.0202C83.152 61 83.2589 60.8931 83.2589 60.7611V58.2704C83.2589 58.1384 83.152 58.0315 83.0202 58.0315Z" fill="#3E485E"/>
<path d="M79.1502 40.1693H75.4719V61H79.1502V40.1693Z" fill="#E8EAEC"/>
<path d="M79.1541 42.2606H78.8919V61H79.1541V42.2606Z" fill="#3E485E"/>
<path d="M75.5814 42.2606H75.3192V61H75.5814V42.2606Z" fill="#3E485E"/>
<path d="M83.2354 39.4565H71.2379C71.0282 39.4565 70.8583 39.6266 70.8583 39.8364V42.5739C70.8583 42.7837 71.0282 42.9538 71.2379 42.9538H83.2354C83.4451 42.9538 83.615 42.7837 83.615 42.5739V39.8364C83.615 39.6266 83.4451 39.4565 83.2354 39.4565Z" fill="#DB7D35"/>
<path d="M129.774 54.1661H110.897V59.9583H129.774V54.1661Z" fill="#4E6186"/>
<path d="M123.669 52.5213H117.005V58.4897H123.669V52.5213Z" fill="#3E485E"/>
<path d="M119.612 54.1974H117.776V57.8827H119.612V54.1974Z" fill="#4E6186"/>
<path d="M122.895 54.1974H121.059V57.8827H122.895V54.1974Z" fill="#4E6186"/>
<path d="M114.658 47.0032H114.149V49.7916H114.658V47.0032Z" fill="#713416"/>
<path d="M117.033 47.0032H116.524V49.7916H117.033V47.0032Z" fill="#713416"/>
<path d="M119.404 47.0032H118.895V49.7916H119.404V47.0032Z" fill="#713416"/>
<path d="M121.775 47.0032H121.267V49.7916H121.775V47.0032Z" fill="#713416"/>
<path d="M124.147 47.0032H123.638V49.7916H124.147V47.0032Z" fill="#713416"/>
<path d="M126.522 47.0032H126.013V49.7916H126.522V47.0032Z" fill="#713416"/>
<path d="M126.397 48.6476V48.1389H114.282V48.6476H126.397Z" fill="#713416"/>
<path d="M117.412 48.3935C117.413 48.5162 117.377 48.6364 117.31 48.7388C117.242 48.8411 117.146 48.921 117.033 48.9683C116.919 49.0157 116.795 49.0282 116.674 49.0045C116.554 48.9807 116.444 48.9217 116.357 48.835C116.27 48.7482 116.211 48.6376 116.188 48.5172C116.164 48.3968 116.176 48.272 116.224 48.1588C116.271 48.0456 116.351 47.949 116.453 47.8813C116.555 47.8136 116.675 47.7779 116.798 47.7787C116.961 47.7787 117.117 47.8434 117.232 47.9587C117.348 48.0741 117.412 48.2304 117.412 48.3935Z" fill="#713416"/>
<path d="M119.772 48.3935C119.773 48.5162 119.737 48.6364 119.669 48.7388C119.602 48.8411 119.505 48.921 119.392 48.9683C119.279 49.0157 119.154 49.0282 119.034 49.0045C118.914 48.9807 118.803 48.9217 118.717 48.835C118.63 48.7482 118.571 48.6376 118.547 48.5172C118.523 48.3968 118.536 48.272 118.583 48.1588C118.631 48.0456 118.71 47.949 118.813 47.8813C118.915 47.8136 119.035 47.7779 119.158 47.7787C119.321 47.7787 119.477 47.8434 119.592 47.9587C119.707 48.0741 119.772 48.2304 119.772 48.3935Z" fill="#713416"/>
<path d="M122.132 48.3935C122.132 48.5162 122.097 48.6364 122.029 48.7388C121.961 48.8411 121.865 48.921 121.752 48.9683C121.639 49.0157 121.514 49.0282 121.394 49.0045C121.273 48.9807 121.163 48.9217 121.076 48.835C120.989 48.7482 120.931 48.6376 120.907 48.5172C120.883 48.3968 120.896 48.272 120.943 48.1588C120.99 48.0456 121.07 47.949 121.172 47.8813C121.275 47.8136 121.395 47.7779 121.517 47.7787C121.68 47.7787 121.836 47.8434 121.952 47.9587C122.067 48.0741 122.132 48.2304 122.132 48.3935Z" fill="#713416"/>
<path d="M124.491 48.3935C124.492 48.5162 124.456 48.6364 124.389 48.7388C124.321 48.8411 124.224 48.921 124.111 48.9683C123.998 49.0157 123.874 49.0282 123.753 49.0045C123.633 48.9807 123.522 48.9217 123.436 48.835C123.349 48.7482 123.29 48.6376 123.266 48.5172C123.243 48.3968 123.255 48.272 123.302 48.1588C123.35 48.0456 123.43 47.949 123.532 47.8813C123.634 47.8136 123.754 47.7779 123.877 47.7787C124.04 47.7787 124.196 47.8434 124.311 47.9587C124.426 48.0741 124.491 48.2304 124.491 48.3935Z" fill="#713416"/>
<path d="M127.931 47.5899H112.74C112.622 47.5899 112.508 47.5429 112.425 47.4593C112.341 47.3756 112.294 47.2621 112.294 47.1438C112.294 47.0255 112.341 46.912 112.425 46.8284C112.508 46.7447 112.622 46.6977 112.74 46.6977H127.931C128.049 46.6977 128.163 46.7446 128.248 46.8281C128.332 46.9117 128.38 47.0252 128.381 47.1438C128.38 47.2625 128.332 47.376 128.248 47.4595C128.163 47.543 128.049 47.5899 127.931 47.5899Z" fill="#713416"/>
<path d="M128.952 46.697H111.734C111.616 46.697 111.503 46.65 111.419 46.5664C111.335 46.4827 111.288 46.3693 111.288 46.251C111.292 46.138 111.339 46.0308 111.419 45.9509C111.499 45.871 111.606 45.8244 111.719 45.8205H128.936C129.055 45.8205 129.168 45.8675 129.252 45.9512C129.336 46.0348 129.383 46.1483 129.383 46.2666C129.379 46.3795 129.332 46.4868 129.252 46.5667C129.172 46.6465 129.065 46.6931 128.952 46.697Z" fill="#713416"/>
<path d="M127.896 43.4707C127.206 43.4679 126.531 43.2799 125.939 42.9264C124.691 42.1775 123.257 41.7974 121.803 41.8298C121.314 41.8298 120.813 41.8572 120.3 41.8572C119.788 41.8572 119.342 41.8572 118.88 41.8337C117.428 41.8003 115.997 42.1792 114.751 42.9264C114.16 43.2799 113.484 43.4679 112.795 43.4707C112.209 43.4724 111.63 43.3384 111.104 43.0791C110.94 45.5933 115.123 47.6572 120.304 47.6572C125.485 47.6572 129.625 45.6168 129.504 43.1222C128.999 43.3539 128.451 43.4729 127.896 43.4707Z" fill="#3E485E"/>
<path d="M117.604 41.7043C117.603 41.76 117.586 41.8142 117.554 41.8601C117.523 41.906 117.478 41.9415 117.427 41.9621C117.375 41.9827 117.318 41.9875 117.264 41.9759C117.209 41.9642 117.159 41.9367 117.12 41.8968C117.082 41.8568 117.055 41.8062 117.045 41.7515C117.035 41.6967 117.042 41.6401 117.064 41.5889C117.086 41.5377 117.122 41.4942 117.169 41.4639C117.216 41.4336 117.271 41.4178 117.326 41.4186C117.363 41.4191 117.4 41.4269 117.434 41.4415C117.468 41.4562 117.499 41.4774 117.524 41.5039C117.55 41.5304 117.571 41.5618 117.584 41.5961C117.598 41.6305 117.605 41.6673 117.604 41.7043Z" fill="#3E485E"/>
<path d="M118.144 41.7043C118.143 41.7589 118.125 41.8118 118.094 41.8564C118.062 41.9011 118.018 41.9355 117.967 41.9553C117.916 41.9751 117.861 41.9795 117.807 41.9679C117.754 41.9564 117.705 41.9293 117.667 41.8902C117.629 41.851 117.603 41.8015 117.593 41.7478C117.583 41.6942 117.589 41.6387 117.61 41.5884C117.632 41.5381 117.667 41.4951 117.713 41.465C117.758 41.4348 117.812 41.4186 117.866 41.4186C117.903 41.4191 117.94 41.4269 117.974 41.4416C118.008 41.4562 118.039 41.4774 118.064 41.5039C118.09 41.5304 118.111 41.5618 118.124 41.5962C118.138 41.6305 118.145 41.6673 118.144 41.7043Z" fill="#3E485E"/>
<path d="M118.688 41.7043C118.687 41.76 118.67 41.8142 118.638 41.8601C118.607 41.906 118.562 41.9415 118.511 41.9621C118.459 41.9827 118.402 41.9875 118.348 41.9759C118.293 41.9642 118.243 41.9367 118.204 41.8968C118.166 41.8568 118.139 41.8062 118.129 41.7515C118.119 41.6967 118.126 41.6401 118.148 41.5889C118.17 41.5377 118.206 41.4942 118.253 41.4639C118.3 41.4336 118.355 41.4178 118.41 41.4186C118.447 41.4191 118.484 41.4269 118.518 41.4415C118.552 41.4562 118.583 41.4774 118.608 41.5039C118.634 41.5304 118.654 41.5618 118.668 41.5961C118.682 41.6305 118.689 41.6673 118.688 41.7043Z" fill="#3E485E"/>
<path d="M119.228 41.7043C119.227 41.7589 119.209 41.8118 119.177 41.8564C119.146 41.9011 119.102 41.9355 119.051 41.9553C119 41.9751 118.945 41.9795 118.891 41.9679C118.838 41.9564 118.789 41.9293 118.751 41.8902C118.713 41.851 118.687 41.8015 118.677 41.7478C118.667 41.6942 118.673 41.6387 118.694 41.5884C118.716 41.5381 118.751 41.4951 118.797 41.465C118.842 41.4348 118.896 41.4186 118.95 41.4186C118.987 41.4191 119.024 41.4269 119.058 41.4416C119.092 41.4562 119.123 41.4774 119.148 41.5039C119.174 41.5304 119.194 41.5618 119.208 41.5962C119.222 41.6305 119.229 41.6673 119.228 41.7043Z" fill="#3E485E"/>
<path d="M119.772 41.7043C119.771 41.76 119.754 41.8142 119.722 41.8601C119.691 41.906 119.646 41.9415 119.594 41.9621C119.543 41.9827 119.486 41.9875 119.431 41.9759C119.377 41.9642 119.327 41.9367 119.288 41.8968C119.249 41.8568 119.223 41.8062 119.213 41.7515C119.203 41.6967 119.209 41.6401 119.231 41.5889C119.254 41.5377 119.29 41.4942 119.337 41.4639C119.384 41.4336 119.438 41.4178 119.494 41.4186C119.531 41.4191 119.568 41.4269 119.602 41.4415C119.636 41.4562 119.666 41.4774 119.692 41.5039C119.718 41.5304 119.738 41.5618 119.752 41.5961C119.766 41.6305 119.772 41.6673 119.772 41.7043Z" fill="#3E485E"/>
<path d="M120.312 41.7043C120.31 41.7589 120.293 41.8118 120.261 41.8564C120.23 41.9011 120.186 41.9355 120.135 41.9553C120.084 41.9751 120.029 41.9795 119.975 41.9679C119.922 41.9564 119.873 41.9293 119.835 41.8902C119.797 41.851 119.771 41.8015 119.761 41.7478C119.751 41.6942 119.757 41.6387 119.778 41.5884C119.8 41.5381 119.835 41.4951 119.881 41.465C119.926 41.4348 119.98 41.4186 120.034 41.4186C120.071 41.4191 120.108 41.4269 120.142 41.4416C120.176 41.4562 120.206 41.4774 120.232 41.5039C120.258 41.5304 120.278 41.5618 120.292 41.5962C120.306 41.6305 120.313 41.6673 120.312 41.7043Z" fill="#3E485E"/>
<path d="M120.856 41.7043C120.855 41.76 120.838 41.8142 120.806 41.8601C120.775 41.906 120.73 41.9415 120.678 41.9621C120.627 41.9827 120.57 41.9875 120.515 41.9759C120.461 41.9642 120.411 41.9367 120.372 41.8968C120.333 41.8568 120.307 41.8062 120.297 41.7515C120.287 41.6967 120.293 41.6401 120.315 41.5889C120.337 41.5377 120.374 41.4942 120.421 41.4639C120.468 41.4336 120.522 41.4178 120.578 41.4186C120.615 41.4191 120.652 41.4269 120.686 41.4415C120.72 41.4562 120.75 41.4774 120.776 41.5039C120.802 41.5304 120.822 41.5618 120.836 41.5961C120.85 41.6305 120.856 41.6673 120.856 41.7043Z" fill="#3E485E"/>
<path d="M121.4 41.7042C121.405 41.7438 121.401 41.7838 121.389 41.8218C121.377 41.8598 121.357 41.8948 121.331 41.9245C121.304 41.9543 121.272 41.9781 121.236 41.9944C121.199 42.0107 121.16 42.0191 121.12 42.0191C121.08 42.0191 121.041 42.0107 121.005 41.9944C120.968 41.9781 120.936 41.9543 120.909 41.9245C120.883 41.8948 120.863 41.8598 120.851 41.8218C120.839 41.7838 120.836 41.7438 120.84 41.7042C120.836 41.6647 120.839 41.6247 120.851 41.5867C120.863 41.5487 120.883 41.5137 120.909 41.484C120.936 41.4542 120.968 41.4304 121.005 41.4141C121.041 41.3978 121.08 41.3894 121.12 41.3894C121.16 41.3894 121.199 41.3978 121.236 41.4141C121.272 41.4304 121.304 41.4542 121.331 41.484C121.357 41.5137 121.377 41.5487 121.389 41.5867C121.401 41.6247 121.405 41.6647 121.4 41.7042Z" fill="#3E485E"/>
<path d="M121.94 41.7043C121.939 41.76 121.922 41.8142 121.89 41.8601C121.859 41.906 121.814 41.9415 121.762 41.9621C121.711 41.9827 121.654 41.9875 121.599 41.9759C121.545 41.9642 121.495 41.9367 121.456 41.8968C121.417 41.8568 121.391 41.8062 121.381 41.7515C121.371 41.6967 121.377 41.6401 121.399 41.5889C121.421 41.5377 121.458 41.4942 121.505 41.4639C121.552 41.4336 121.606 41.4178 121.662 41.4186C121.699 41.4191 121.736 41.4269 121.77 41.4415C121.804 41.4562 121.834 41.4774 121.86 41.5039C121.886 41.5304 121.906 41.5618 121.92 41.5961C121.934 41.6305 121.94 41.6673 121.94 41.7043Z" fill="#3E485E"/>
<path d="M122.48 41.7042C122.485 41.7438 122.481 41.7838 122.469 41.8218C122.457 41.8598 122.437 41.8948 122.411 41.9245C122.384 41.9543 122.352 41.9781 122.316 41.9944C122.279 42.0107 122.24 42.0191 122.2 42.0191C122.16 42.0191 122.121 42.0107 122.085 41.9944C122.048 41.9781 122.016 41.9543 121.989 41.9245C121.963 41.8948 121.943 41.8598 121.931 41.8218C121.919 41.7838 121.916 41.7438 121.92 41.7042C121.916 41.6647 121.919 41.6247 121.931 41.5867C121.943 41.5487 121.963 41.5137 121.989 41.484C122.016 41.4542 122.048 41.4304 122.085 41.4141C122.121 41.3978 122.16 41.3894 122.2 41.3894C122.24 41.3894 122.279 41.3978 122.316 41.4141C122.352 41.4304 122.384 41.4542 122.411 41.484C122.437 41.5137 122.457 41.5487 122.469 41.5867C122.481 41.6247 122.485 41.6647 122.48 41.7042Z" fill="#3E485E"/>
<path d="M123.024 41.7043C123.023 41.76 123.006 41.8142 122.974 41.8601C122.943 41.906 122.898 41.9415 122.846 41.9621C122.794 41.9827 122.738 41.9875 122.683 41.9759C122.629 41.9642 122.579 41.9367 122.54 41.8968C122.501 41.8568 122.475 41.8062 122.465 41.7515C122.455 41.6967 122.461 41.6401 122.483 41.5889C122.505 41.5377 122.542 41.4942 122.589 41.4639C122.636 41.4336 122.69 41.4178 122.746 41.4186C122.783 41.4191 122.819 41.4269 122.853 41.4415C122.887 41.4562 122.918 41.4774 122.944 41.5039C122.97 41.5304 122.99 41.5618 123.004 41.5961C123.018 41.6305 123.024 41.6673 123.024 41.7043Z" fill="#3E485E"/>
<path d="M123.568 41.7042C123.572 41.7438 123.569 41.7838 123.557 41.8218C123.545 41.8598 123.525 41.8948 123.499 41.9245C123.472 41.9543 123.44 41.9781 123.403 41.9944C123.367 42.0107 123.328 42.0191 123.288 42.0191C123.248 42.0191 123.209 42.0107 123.172 41.9944C123.136 41.9781 123.104 41.9543 123.077 41.9245C123.051 41.8948 123.031 41.8598 123.019 41.8218C123.007 41.7838 123.003 41.7438 123.008 41.7042C123.003 41.6647 123.007 41.6247 123.019 41.5867C123.031 41.5487 123.051 41.5137 123.077 41.484C123.104 41.4542 123.136 41.4304 123.172 41.4141C123.209 41.3978 123.248 41.3894 123.288 41.3894C123.328 41.3894 123.367 41.3978 123.403 41.4141C123.44 41.4304 123.472 41.4542 123.499 41.484C123.525 41.5137 123.545 41.5487 123.557 41.5867C123.569 41.6247 123.572 41.6647 123.568 41.7042Z" fill="#3E485E"/>
<path d="M111.187 43.6856V43.0243H110.244C110.244 43.1997 110.313 43.3679 110.437 43.4919C110.561 43.6159 110.73 43.6856 110.905 43.6856H111.187Z" fill="#D34646"/>
<path d="M129.484 43.6856V43.0243H130.427C130.427 43.1997 130.358 43.3679 130.234 43.4919C130.11 43.6159 129.941 43.6856 129.766 43.6856H129.484Z" fill="#D34646"/>
<path d="M116.978 41.8142H116.043V40.4826C116.291 40.4826 116.529 40.5812 116.704 40.7568C116.879 40.9323 116.978 41.1704 116.978 41.4186V41.8142Z" fill="#D34646"/>
<path d="M123.697 41.8142H124.632V40.4826C124.384 40.4826 124.146 40.5812 123.971 40.7568C123.795 40.9323 123.697 41.1704 123.697 41.4186V41.8142Z" fill="#D34646"/>
<path d="M127.997 43.1614C127.361 43.1598 126.732 43.0269 126.15 42.7708C125.567 42.5147 125.044 42.141 124.612 41.6732C123.321 41.7319 121.873 41.8142 120.308 41.8142C118.743 41.8142 117.354 41.7358 116.086 41.6771C115.654 42.1437 115.13 42.5162 114.548 42.7716C113.965 43.0269 113.337 43.1596 112.701 43.1614C112.115 43.1609 111.534 43.0465 110.991 42.8246C110.989 42.865 110.989 42.9055 110.991 42.946C110.991 44.9942 115.166 46.6508 120.316 46.6508C125.466 46.6508 129.645 44.9942 129.645 42.946C129.645 42.9185 129.645 42.8872 129.645 42.8598C129.119 43.0607 128.56 43.1629 127.997 43.1614Z" fill="#4E6186"/>
<path d="M112.537 54.6556H111.21V59.0066H112.537V54.6556Z" fill="#3E485E"/>
<path d="M116.219 54.6556H113.992V59.0066H116.219V54.6556Z" fill="#3E485E"/>
<path d="M128.138 59.0066H129.465V54.6556H128.138V59.0066Z" fill="#3E485E"/>
<path d="M124.452 59.0066H126.679V54.6556H124.452V59.0066Z" fill="#3E485E"/>
<path d="M110.443 51.6753H109.899V58.6307H110.443V51.6753Z" fill="#D34646"/>
<path d="M130.772 51.6753H130.228V58.6307H130.772V51.6753Z" fill="#D34646"/>
<path d="M113.523 51.6753H112.979V58.6307H113.523V51.6753Z" fill="#D34646"/>
<path d="M109.942 54.8832V55.4271H116.892V54.8832H109.942Z" fill="#D34646"/>
<path d="M123.548 54.8832V55.4271H130.498V54.8832H123.548Z" fill="#D34646"/>
<path d="M127.665 51.6753H127.121V58.6307H127.665V51.6753Z" fill="#D34646"/>
<path d="M109.383 52.6975H131.296V53.5747C131.296 53.7316 131.234 53.882 131.123 53.9929C131.012 54.1038 130.862 54.1661 130.705 54.1661H109.958C109.801 54.1661 109.651 54.1038 109.54 53.9929C109.429 53.882 109.367 53.7316 109.367 53.5747V52.6975H109.383Z" stroke="#D34646" stroke-width="0.406962" stroke-miterlimit="10"/>
<path d="M112.306 52.1884H114.368V53.0656C114.368 53.2225 114.306 53.3729 114.195 53.4838C114.084 53.5947 113.934 53.657 113.777 53.657H112.901C112.744 53.657 112.594 53.5947 112.483 53.4838C112.372 53.3729 112.31 53.2225 112.31 53.0656V52.1884H112.306Z" stroke="#D34646" stroke-width="0.406962" stroke-miterlimit="10"/>
<path d="M111.511 52.6192V54.1974" stroke="#D34646" stroke-width="0.406962" stroke-miterlimit="10"/>
<path d="M115.147 52.6192V54.1974" stroke="#D34646" stroke-width="0.406962" stroke-miterlimit="10"/>
<path d="M113.327 52.6192V54.1974" stroke="#D34646" stroke-width="0.406962" stroke-miterlimit="10"/>
<path d="M126.393 52.1884H128.455V53.0656C128.455 53.2225 128.393 53.3729 128.282 53.4838C128.171 53.5947 128.021 53.657 127.864 53.657H126.988C126.831 53.657 126.681 53.5947 126.57 53.4838C126.459 53.3729 126.397 53.2225 126.397 53.0656V52.1884H126.393Z" stroke="#D34646" stroke-width="0.406962" stroke-miterlimit="10"/>
<path d="M125.622 52.6192V54.1974" stroke="#D34646" stroke-width="0.406962" stroke-miterlimit="10"/>
<path d="M129.257 52.6192V54.1974" stroke="#D34646" stroke-width="0.406962" stroke-miterlimit="10"/>
<path d="M127.438 52.6192V54.1974" stroke="#D34646" stroke-width="0.406962" stroke-miterlimit="10"/>
<path d="M131.981 53.0492H108.69C108.572 53.0492 108.458 53.0022 108.375 52.9186C108.291 52.8349 108.244 52.7215 108.244 52.6031C108.244 52.4848 108.291 52.3714 108.375 52.2877C108.458 52.204 108.572 52.157 108.69 52.157H131.981C132.099 52.157 132.213 52.204 132.296 52.2877C132.38 52.3714 132.427 52.4848 132.427 52.6031C132.427 52.7215 132.38 52.8349 132.296 52.9186C132.213 53.0022 132.099 53.0492 131.981 53.0492Z" fill="#713416"/>
<path d="M133.002 52.1563H107.669C107.609 52.1568 107.549 52.1452 107.493 52.1221C107.438 52.0989 107.387 52.0647 107.345 52.0216C107.303 51.9784 107.27 51.9272 107.248 51.871C107.227 51.8148 107.217 51.7548 107.219 51.6945C107.219 51.5759 107.266 51.462 107.349 51.3777C107.433 51.2934 107.546 51.2456 107.665 51.2445H132.998C133.116 51.2476 133.227 51.2964 133.309 51.3804C133.391 51.4645 133.437 51.5772 133.437 51.6945C133.439 51.7535 133.429 51.8122 133.408 51.8674C133.387 51.9225 133.356 51.9731 133.316 52.016C133.275 52.0589 133.227 52.0934 133.173 52.1175C133.119 52.1416 133.061 52.1548 133.002 52.1563Z" fill="#713416"/>
<path d="M124.413 59.3821V58.7873H116.262V59.3821H124.413Z" fill="#5C1A38"/>
<path d="M124.667 59.9735V59.3787H116.004V59.9735H124.667Z" fill="#763355"/>
<path d="M120.335 51.9138C121.499 51.8967 122.662 51.995 123.806 52.2073C123.854 52.2166 123.903 52.2151 123.95 52.203C123.998 52.191 124.041 52.1686 124.079 52.1375C124.116 52.1065 124.146 52.0675 124.167 52.0234C124.188 51.9793 124.198 51.9312 124.198 51.8825V51.3895H116.469V51.8825C116.469 51.9312 116.48 51.9793 116.5 52.0234C116.521 52.0675 116.551 52.1065 116.588 52.1375C116.626 52.1686 116.669 52.191 116.717 52.203C116.764 52.2151 116.813 52.2166 116.861 52.2073C118.006 51.9947 119.17 51.8964 120.335 51.9138Z" fill="#3E485E"/>
<path d="M131.179 50.52C129.524 50.5548 127.884 50.1979 126.393 49.4783C124.577 49.5175 122.511 49.5762 120.32 49.5762C118.129 49.5762 116.156 49.5214 114.372 49.4783C112.892 50.1945 111.265 50.5514 109.621 50.52C108.812 50.5208 108.005 50.4421 107.211 50.2851C107.209 50.3137 107.209 50.3425 107.211 50.3712C107.211 51.7928 113.081 52.9442 120.347 52.9442C127.614 52.9442 133.483 51.7928 133.483 50.3712C133.486 50.3504 133.486 50.3294 133.483 50.3086C132.723 50.4503 131.952 50.5211 131.179 50.52Z" fill="#4E6186"/>
<path d="M117.299 51.2015H116.755V58.6346H117.299V51.2015Z" fill="#D34646"/>
<path d="M123.916 51.2015H123.372V58.6346H123.916V51.2015Z" fill="#D34646"/>
<path d="M124.155 58.7907V58.196H116.512V58.7907H124.155Z" fill="#3E485E"/>
<path d="M107.759 50.2415C107.759 50.3493 107.727 50.4546 107.667 50.5441C107.607 50.6337 107.522 50.7034 107.422 50.7444C107.323 50.7855 107.213 50.796 107.107 50.7747C107.002 50.7534 106.905 50.7012 106.829 50.6247C106.753 50.5483 106.701 50.451 106.681 50.3452C106.66 50.2395 106.672 50.13 106.714 50.0307C106.755 49.9313 106.826 49.8467 106.916 49.7874C107.006 49.7281 107.111 49.6968 107.219 49.6976C107.362 49.6986 107.5 49.7564 107.601 49.8583C107.702 49.9602 107.759 50.098 107.759 50.2415Z" fill="#D34646"/>
<path d="M134 50.2415C134 50.3491 133.968 50.4543 133.908 50.5437C133.849 50.6332 133.764 50.7029 133.664 50.7441C133.565 50.7852 133.455 50.796 133.35 50.775C133.244 50.754 133.148 50.7022 133.071 50.6261C132.995 50.5501 132.944 50.4532 132.923 50.3476C132.902 50.2421 132.912 50.1328 132.954 50.0334C132.995 49.934 133.064 49.849 133.154 49.7893C133.243 49.7295 133.349 49.6976 133.456 49.6976C133.528 49.6971 133.599 49.7108 133.665 49.738C133.731 49.7651 133.791 49.8052 133.842 49.8558C133.892 49.9064 133.933 49.9665 133.96 50.0328C133.987 50.099 134.001 50.17 134 50.2415Z" fill="#D34646"/>
<path d="M124.456 51.3732H116.219C116.123 51.3732 116.032 51.3353 115.964 51.2678C115.897 51.2003 115.859 51.1087 115.859 51.0132C115.86 50.9184 115.898 50.8279 115.966 50.7612C116.033 50.6945 116.124 50.6571 116.219 50.6571H124.46C124.555 50.6571 124.646 50.6945 124.713 50.7612C124.78 50.8279 124.819 50.9184 124.82 51.0132C124.82 51.0608 124.81 51.108 124.792 51.1519C124.774 51.1958 124.747 51.2357 124.713 51.2692C124.679 51.3027 124.639 51.3291 124.595 51.347C124.551 51.3648 124.504 51.3737 124.456 51.3732Z" fill="#DB7D35"/>
<path d="M117.092 51.4049C117.096 51.4444 117.092 51.4845 117.081 51.5224C117.069 51.5604 117.049 51.5954 117.022 51.6252C116.996 51.6549 116.963 51.6787 116.927 51.695C116.891 51.7113 116.852 51.7198 116.812 51.7198C116.772 51.7198 116.733 51.7113 116.696 51.695C116.66 51.6787 116.628 51.6549 116.601 51.6252C116.575 51.5954 116.555 51.5604 116.543 51.5224C116.531 51.4845 116.527 51.4444 116.532 51.4049C116.527 51.3654 116.531 51.3253 116.543 51.2873C116.555 51.2494 116.575 51.2143 116.601 51.1846C116.628 51.1548 116.66 51.131 116.696 51.1147C116.733 51.0984 116.772 51.09 116.812 51.09C116.852 51.09 116.891 51.0984 116.927 51.1147C116.963 51.131 116.996 51.1548 117.022 51.1846C117.049 51.2143 117.069 51.2494 117.081 51.2873C117.092 51.3253 117.096 51.3654 117.092 51.4049Z" fill="#DB7D35"/>
<path d="M117.354 51.6906C117.507 51.6906 117.632 51.5627 117.632 51.4049C117.632 51.2471 117.507 51.1192 117.354 51.1192C117.2 51.1192 117.076 51.2471 117.076 51.4049C117.076 51.5627 117.2 51.6906 117.354 51.6906Z" fill="#DB7D35"/>
<path d="M118.175 51.4049C118.18 51.4444 118.176 51.4845 118.164 51.5224C118.153 51.5604 118.133 51.5954 118.106 51.6252C118.08 51.6549 118.047 51.6787 118.011 51.695C117.975 51.7113 117.935 51.7198 117.896 51.7198C117.856 51.7198 117.817 51.7113 117.78 51.695C117.744 51.6787 117.711 51.6549 117.685 51.6252C117.659 51.5954 117.639 51.5604 117.627 51.5224C117.615 51.4845 117.611 51.4444 117.616 51.4049C117.611 51.3654 117.615 51.3253 117.627 51.2873C117.639 51.2494 117.659 51.2143 117.685 51.1846C117.711 51.1548 117.744 51.131 117.78 51.1147C117.817 51.0984 117.856 51.09 117.896 51.09C117.935 51.09 117.975 51.0984 118.011 51.1147C118.047 51.131 118.08 51.1548 118.106 51.1846C118.133 51.2143 118.153 51.2494 118.164 51.2873C118.176 51.3253 118.18 51.3654 118.175 51.4049Z" fill="#DB7D35"/>
<path d="M118.438 51.6906C118.591 51.6906 118.715 51.5627 118.715 51.4049C118.715 51.2471 118.591 51.1192 118.438 51.1192C118.284 51.1192 118.16 51.2471 118.16 51.4049C118.16 51.5627 118.284 51.6906 118.438 51.6906Z" fill="#DB7D35"/>
<path d="M118.982 51.6906C119.135 51.6906 119.259 51.5627 119.259 51.4049C119.259 51.2471 119.135 51.1192 118.982 51.1192C118.828 51.1192 118.704 51.2471 118.704 51.4049C118.704 51.5627 118.828 51.6906 118.982 51.6906Z" fill="#DB7D35"/>
<path d="M119.522 51.6906C119.675 51.6906 119.799 51.5627 119.799 51.4049C119.799 51.2471 119.675 51.1192 119.522 51.1192C119.368 51.1192 119.244 51.2471 119.244 51.4049C119.244 51.5627 119.368 51.6906 119.522 51.6906Z" fill="#DB7D35"/>
<path d="M120.065 51.6906C120.219 51.6906 120.343 51.5627 120.343 51.4049C120.343 51.2471 120.219 51.1192 120.065 51.1192C119.912 51.1192 119.788 51.2471 119.788 51.4049C119.788 51.5627 119.912 51.6906 120.065 51.6906Z" fill="#DB7D35"/>
<path d="M120.605 51.6906C120.759 51.6906 120.883 51.5627 120.883 51.4049C120.883 51.2471 120.759 51.1192 120.605 51.1192C120.452 51.1192 120.328 51.2471 120.328 51.4049C120.328 51.5627 120.452 51.6906 120.605 51.6906Z" fill="#DB7D35"/>
<path d="M121.149 51.6906C121.303 51.6906 121.427 51.5627 121.427 51.4049C121.427 51.2471 121.303 51.1192 121.149 51.1192C120.996 51.1192 120.872 51.2471 120.872 51.4049C120.872 51.5627 120.996 51.6906 121.149 51.6906Z" fill="#DB7D35"/>
<path d="M121.689 51.6906C121.843 51.6906 121.967 51.5627 121.967 51.4049C121.967 51.2471 121.843 51.1192 121.689 51.1192C121.536 51.1192 121.412 51.2471 121.412 51.4049C121.412 51.5627 121.536 51.6906 121.689 51.6906Z" fill="#DB7D35"/>
<path d="M122.233 51.6906C122.387 51.6906 122.511 51.5627 122.511 51.4049C122.511 51.2471 122.387 51.1192 122.233 51.1192C122.08 51.1192 121.956 51.2471 121.956 51.4049C121.956 51.5627 122.08 51.6906 122.233 51.6906Z" fill="#DB7D35"/>
<path d="M123.055 51.4049C123.054 51.4605 123.037 51.5145 123.006 51.5603C122.974 51.6062 122.93 51.6417 122.878 51.6624C122.827 51.6831 122.77 51.6881 122.716 51.6768C122.662 51.6655 122.612 51.6384 122.573 51.5988C122.534 51.5593 122.507 51.5091 122.497 51.4545C122.486 51.4 122.492 51.3435 122.513 51.2923C122.535 51.241 122.571 51.1973 122.617 51.1665C122.663 51.1357 122.718 51.1193 122.773 51.1192C122.811 51.1192 122.848 51.1267 122.882 51.1411C122.916 51.1555 122.948 51.1766 122.974 51.2031C123 51.2297 123.021 51.2612 123.035 51.2959C123.049 51.3305 123.056 51.3676 123.055 51.4049Z" fill="#DB7D35"/>
<path d="M123.317 51.6906C123.471 51.6906 123.595 51.5627 123.595 51.4049C123.595 51.2471 123.471 51.1192 123.317 51.1192C123.164 51.1192 123.039 51.2471 123.039 51.4049C123.039 51.5627 123.164 51.6906 123.317 51.6906Z" fill="#DB7D35"/>
<path d="M123.857 51.6906C124.011 51.6906 124.135 51.5627 124.135 51.4049C124.135 51.2471 124.011 51.1192 123.857 51.1192C123.704 51.1192 123.579 51.2471 123.579 51.4049C123.579 51.5627 123.704 51.6906 123.857 51.6906Z" fill="#DB7D35"/>
<path d="M125.469 50.9894H115.201C115.109 50.9894 115.021 50.9527 114.955 50.8874C114.89 50.8221 114.853 50.7335 114.853 50.6412C114.853 50.5951 114.861 50.5494 114.879 50.5067C114.896 50.464 114.921 50.4251 114.954 50.3924C114.986 50.3596 115.025 50.3336 115.067 50.3159C115.11 50.2981 115.155 50.289 115.201 50.289H125.469C125.563 50.289 125.652 50.3261 125.718 50.3921C125.785 50.4582 125.822 50.5478 125.822 50.6412C125.822 50.6872 125.812 50.7328 125.795 50.7753C125.777 50.8178 125.751 50.8564 125.718 50.8888C125.685 50.9212 125.647 50.9468 125.604 50.964C125.561 50.9813 125.516 50.9899 125.469 50.9894Z" fill="#3E485E"/>
<path d="M108.866 59.9122V61H118.301V59.9122H108.866Z" fill="#3E485E"/>
<path d="M122.366 59.9083V60.9961H131.801V59.9083H122.366Z" fill="#3E485E"/>
<path d="M108.608 59.688H108.001V58.1764C108.161 58.1764 108.315 58.2399 108.428 58.353C108.541 58.4661 108.604 58.6195 108.604 58.7795L108.608 59.688Z" fill="#DB7D35"/>
<path d="M107.861 59.9037V59.6298H118.305V60.1737H108.131C108.095 60.1742 108.06 60.1676 108.027 60.1542C107.994 60.1408 107.964 60.121 107.938 60.0958C107.913 60.0706 107.893 60.0406 107.88 60.0076C107.867 59.9746 107.86 59.9393 107.861 59.9037Z" fill="#DB7D35"/>
<path d="M117.702 59.688H118.305V58.1764C118.145 58.1764 117.991 58.2399 117.878 58.353C117.765 58.4661 117.702 58.6195 117.702 58.7795V59.688Z" fill="#DB7D35"/>
<path d="M118.136 58.4427H108.244V58.7401H118.136V58.4427Z" fill="#DB7D35"/>
<path d="M109.825 59.8016V58.5484H109.527V59.8016H109.825Z" fill="#DB7D35"/>
<path d="M111.261 59.7977V58.5445H110.964V59.7977H111.261Z" fill="#DB7D35"/>
<path d="M112.693 59.7977V58.5445H112.396V59.7977H112.693Z" fill="#DB7D35"/>
<path d="M114.129 59.8016V58.5484H113.832V59.8016H114.129Z" fill="#DB7D35"/>
<path d="M115.565 59.7977V58.5445H115.268V59.7977H115.565Z" fill="#DB7D35"/>
<path d="M116.998 59.7977V58.5445H116.7V59.7977H116.998Z" fill="#DB7D35"/>
<path d="M118.136 58.9988H108.244V59.1553H118.136V58.9988Z" fill="#DB7D35"/>
<path d="M132.063 59.688H132.654V58.1764C132.494 58.1764 132.341 58.2399 132.228 58.353C132.115 58.4661 132.051 58.6195 132.051 58.7795L132.063 59.688Z" fill="#DB7D35"/>
<path d="M122.366 60.1815V59.6376H132.81V59.935C132.81 59.9699 132.804 60.0045 132.79 60.0368C132.777 60.0691 132.757 60.0984 132.732 60.1231C132.708 60.1479 132.678 60.1675 132.646 60.1808C132.614 60.1942 132.579 60.2011 132.544 60.2011H122.37L122.366 60.1815Z" fill="#DB7D35"/>
<path d="M122.973 59.688H122.37V58.1764C122.449 58.1764 122.528 58.192 122.601 58.2223C122.674 58.2526 122.74 58.297 122.796 58.353C122.852 58.409 122.897 58.4755 122.927 58.5487C122.957 58.6218 122.973 58.7003 122.973 58.7795V59.688Z" fill="#DB7D35"/>
<path d="M122.539 58.7403H132.431V58.4429H122.539V58.7403Z" fill="#DB7D35"/>
<path d="M131.147 59.8016V58.5484H130.85V59.8016H131.147Z" fill="#DB7D35"/>
<path d="M129.711 59.7977V58.5445H129.414V59.7977H129.711Z" fill="#DB7D35"/>
<path d="M128.275 59.7977V58.5445H127.978V59.7977H128.275Z" fill="#DB7D35"/>
<path d="M126.843 59.8016V58.5484H126.546V59.8016H126.843Z" fill="#DB7D35"/>
<path d="M125.407 59.7977V58.5445H125.109V59.7977H125.407Z" fill="#DB7D35"/>
<path d="M123.971 59.7977V58.5445H123.673V59.7977H123.971Z" fill="#DB7D35"/>
<path d="M122.539 59.1593H132.431V59.0028H122.539V59.1593Z" fill="#DB7D35"/>
<path d="M7.6149 34.6983H3.11484V60.0249H7.6149V34.6983Z" fill="#713416"/>
<path d="M6.4214 34.2675H4.46485V33.214C4.46434 33.0861 4.48906 32.9594 4.5376 32.8411C4.58614 32.7228 4.65754 32.6153 4.7477 32.5247C4.83787 32.4341 4.94502 32.3622 5.06302 32.3131C5.18101 32.2641 5.30753 32.2388 5.4353 32.2388C5.5634 32.2383 5.69033 32.2632 5.80878 32.312C5.92723 32.3608 6.03485 32.4326 6.12543 32.5233C6.21601 32.6139 6.28776 32.7216 6.33654 32.8402C6.38533 32.9587 6.41018 33.0858 6.40966 33.214L6.4214 34.2675Z" fill="#DB7D35"/>
<path d="M3.18525 38.9592C3.16386 38.9597 3.14257 38.9559 3.12266 38.9481C3.10274 38.9403 3.08459 38.9285 3.06927 38.9136C3.05396 38.8986 3.04179 38.8807 3.03348 38.861C3.02517 38.8412 3.0209 38.82 3.0209 38.7986V36.8679C3.0209 36.8465 3.02517 36.8253 3.03348 36.8055C3.04179 36.7858 3.05396 36.7679 3.06927 36.7529C3.08459 36.738 3.10274 36.7262 3.12266 36.7184C3.14257 36.7106 3.16386 36.7068 3.18525 36.7073C3.22781 36.7073 3.26861 36.7242 3.2987 36.7543C3.32879 36.7844 3.34569 36.8253 3.34569 36.8679V38.7986C3.34569 38.8412 3.32879 38.882 3.2987 38.9121C3.26861 38.9423 3.22781 38.9592 3.18525 38.9592Z" fill="#D34646"/>
<path d="M4.69572 38.4775C4.67433 38.478 4.65304 38.4742 4.63312 38.4664C4.6132 38.4586 4.59505 38.4468 4.57974 38.4318C4.56442 38.4169 4.55225 38.399 4.54395 38.3793C4.53564 38.3595 4.53137 38.3383 4.53137 38.3169V36.8679C4.53137 36.8465 4.53564 36.8253 4.54395 36.8055C4.55225 36.7858 4.56442 36.7679 4.57974 36.7529C4.59505 36.738 4.6132 36.7262 4.63312 36.7184C4.65304 36.7106 4.67433 36.7068 4.69572 36.7073C4.73827 36.7073 4.77908 36.7242 4.80917 36.7543C4.83926 36.7844 4.85616 36.8253 4.85616 36.8679V38.3169C4.85616 38.3595 4.83926 38.4003 4.80917 38.4304C4.77908 38.4606 4.73827 38.4775 4.69572 38.4775Z" fill="#D34646"/>
<path d="M6.20225 38.4775C6.1597 38.4775 6.11889 38.4606 6.0888 38.4304C6.05871 38.4003 6.04181 38.3595 6.04181 38.3169V36.8679C6.04181 36.8253 6.05871 36.7844 6.0888 36.7543C6.11889 36.7242 6.1597 36.7073 6.20225 36.7073C6.22364 36.7068 6.24493 36.7106 6.26485 36.7184C6.28476 36.7262 6.30292 36.738 6.31823 36.7529C6.33355 36.7679 6.34571 36.7858 6.35402 36.8055C6.36233 36.8253 6.3666 36.8465 6.3666 36.8679V38.3169C6.3666 38.3383 6.36233 38.3595 6.35402 38.3793C6.34571 38.399 6.33355 38.4169 6.31823 38.4318C6.30292 38.4468 6.28476 38.4586 6.26485 38.4664C6.24493 38.4742 6.22364 38.478 6.20225 38.4775Z" fill="#D34646"/>
<path d="M7.71271 38.9592C7.67016 38.9592 7.62936 38.9423 7.59927 38.9121C7.56918 38.882 7.55228 38.8412 7.55228 38.7986V36.8679C7.55228 36.8253 7.56918 36.7844 7.59927 36.7543C7.62936 36.7242 7.67016 36.7073 7.71271 36.7073C7.73411 36.7068 7.75539 36.7106 7.77531 36.7184C7.79523 36.7262 7.81338 36.738 7.8287 36.7529C7.84401 36.7679 7.85618 36.7858 7.86449 36.8055C7.87279 36.8253 7.87707 36.8465 7.87706 36.8679V38.7986C7.87707 38.82 7.87279 38.8412 7.86449 38.861C7.85618 38.8807 7.84401 38.8986 7.8287 38.9136C7.81338 38.9285 7.79523 38.9403 7.77531 38.9481C7.75539 38.9559 7.73411 38.9597 7.71271 38.9592Z" fill="#D34646"/>
<path d="M7.67749 37.7566V37.4318H3.21265V37.7566H7.67749Z" fill="#D34646"/>
<path d="M3.197 37.9834C3.41312 37.9834 3.58831 37.8082 3.58831 37.5921C3.58831 37.376 3.41312 37.2008 3.197 37.2008C2.98089 37.2008 2.80569 37.376 2.80569 37.5921C2.80569 37.8082 2.98089 37.9834 3.197 37.9834Z" fill="#D34646"/>
<path d="M4.69963 37.9834C4.91574 37.9834 5.09094 37.8082 5.09094 37.5921C5.09094 37.376 4.91574 37.2008 4.69963 37.2008C4.48351 37.2008 4.30832 37.376 4.30832 37.5921C4.30832 37.8082 4.48351 37.9834 4.69963 37.9834Z" fill="#D34646"/>
<path d="M6.19835 37.9834C6.41446 37.9834 6.58966 37.8082 6.58966 37.5921C6.58966 37.376 6.41446 37.2008 6.19835 37.2008C5.98223 37.2008 5.80704 37.376 5.80704 37.5921C5.80704 37.8082 5.98223 37.9834 6.19835 37.9834Z" fill="#D34646"/>
<path d="M7.70097 37.9834C7.91709 37.9834 8.09228 37.8082 8.09228 37.5921C8.09228 37.376 7.91709 37.2008 7.70097 37.2008C7.48486 37.2008 7.30966 37.376 7.30966 37.5921C7.30966 37.8082 7.48486 37.9834 7.70097 37.9834Z" fill="#D34646"/>
<path d="M9.30926 37.0828H1.58873C1.5156 37.0829 1.44522 37.055 1.39208 37.0048C1.33893 36.9545 1.30708 36.8858 1.30307 36.8128C1.30307 36.7371 1.33317 36.6644 1.38674 36.6108C1.44031 36.5573 1.51297 36.5272 1.58873 36.5272H9.30926C9.38502 36.5272 9.45768 36.5573 9.51125 36.6108C9.56482 36.6644 9.59492 36.7371 9.59492 36.8128C9.59091 36.8858 9.55905 36.9545 9.50591 37.0048C9.45277 37.055 9.38239 37.0829 9.30926 37.0828Z" fill="#D34646"/>
<path d="M9.95884 36.511H0.939159C0.864072 36.511 0.792001 36.4815 0.738541 36.4288C0.685081 36.376 0.654532 36.3044 0.653503 36.2293C0.653503 36.1535 0.683599 36.0809 0.73717 36.0273C0.790741 35.9737 0.863399 35.9436 0.939159 35.9436H9.95884C10.0339 35.9447 10.1056 35.9752 10.1583 36.0287C10.211 36.0821 10.2406 36.1542 10.2406 36.2293C10.2406 36.304 10.2109 36.3757 10.1581 36.4285C10.1052 36.4814 10.0336 36.511 9.95884 36.511Z" fill="#D34646"/>
<path d="M9.28578 34.4633C8.84747 34.4632 8.4174 34.3441 8.04141 34.1186C7.24732 33.6412 6.33401 33.3994 5.4079 33.4215C5.09877 33.4215 5.75225 33.4215 5.4079 33.4215C5.06355 33.4215 5.77182 33.4215 5.47442 33.4215C4.55101 33.4013 3.64073 33.643 2.84874 34.1186C2.47845 34.3407 2.05559 34.4597 1.62394 34.4633C1.25069 34.4604 0.882881 34.3734 0.547837 34.2087C0.442184 35.8066 2.11307 37.1224 5.42747 37.1224C8.74186 37.1224 10.3854 35.8222 10.3071 34.2361C9.98742 34.3859 9.63874 34.4634 9.28578 34.4633Z" fill="#3E485E"/>
<path d="M0.598703 34.5961V34.1735H0C0 34.2856 0.0445253 34.3931 0.123781 34.4723C0.203036 34.5516 0.31053 34.5961 0.422614 34.5961H0.598703Z" fill="#DB7D35"/>
<path d="M10.2993 34.5961V34.1735H10.898C10.898 34.2856 10.8534 34.3931 10.7742 34.4723C10.6949 34.5516 10.5874 34.5961 10.4753 34.5961H10.2993Z" fill="#DB7D35"/>
<path d="M9.34838 34.2635C8.94374 34.2626 8.54367 34.1779 8.1733 34.0148C7.80292 33.8517 7.47025 33.6137 7.19618 33.3158C6.37443 33.351 6.41356 33.4059 5.42746 33.4059C4.44136 33.4059 4.51962 33.355 3.71352 33.3158C3.43989 33.6132 3.10786 33.8509 2.73819 34.014C2.36853 34.1771 1.96921 34.262 1.56523 34.2635C1.19084 34.2629 0.820119 34.1897 0.47348 34.0481C0.47348 34.0716 0.47348 34.0991 0.47348 34.1265C0.47348 35.4267 2.15611 36.4762 5.43528 36.4762C8.71446 36.4762 10.3971 35.4188 10.3971 34.1265C10.3971 34.1265 10.3971 34.0873 10.3971 34.0677C10.0628 34.198 9.7071 34.2644 9.34838 34.2635Z" fill="#4E6186"/>
<path d="M7.57967 33.5936H3.31831C3.26642 33.5896 3.21803 33.5658 3.18309 33.5273C3.14816 33.4887 3.12933 33.4382 3.13048 33.3862C3.13048 33.3322 3.15192 33.2804 3.19008 33.2423C3.22824 33.2041 3.28 33.1827 3.33396 33.1827H7.57967C7.63364 33.1827 7.68539 33.2041 7.72355 33.2423C7.76171 33.2804 7.78315 33.3322 7.78315 33.3862C7.78367 33.4132 7.77879 33.4401 7.7688 33.4652C7.75881 33.4904 7.7439 33.5133 7.72495 33.5326C7.70601 33.5519 7.6834 33.5672 7.65845 33.5777C7.63351 33.5882 7.60672 33.5936 7.57967 33.5936Z" fill="#3E485E"/>
<path d="M5.44701 32.8341C5.40757 32.8341 5.36975 32.8184 5.34186 32.7905C5.31398 32.7626 5.29831 32.7248 5.29831 32.6853V30.6801C5.29831 30.6407 5.31398 30.6028 5.34186 30.5749C5.36975 30.547 5.40757 30.5313 5.44701 30.5313C5.48644 30.5313 5.52427 30.547 5.55215 30.5749C5.58004 30.6028 5.5957 30.6407 5.5957 30.6801V32.6853C5.5957 32.7248 5.58004 32.7626 5.55215 32.7905C5.52427 32.8184 5.48644 32.8341 5.44701 32.8341Z" fill="#DB7D35"/>
<path d="M5.8305 30.7308C5.8305 30.8082 5.80755 30.8838 5.76455 30.9482C5.72156 31.0125 5.66044 31.0627 5.58894 31.0923C5.51744 31.1219 5.43876 31.1296 5.36285 31.1145C5.28694 31.0994 5.21722 31.0622 5.16249 31.0075C5.10777 30.9527 5.0705 30.883 5.0554 30.8071C5.0403 30.7312 5.04805 30.6525 5.07767 30.581C5.10729 30.5095 5.15744 30.4484 5.22179 30.4054C5.28614 30.3624 5.3618 30.3394 5.43919 30.3394C5.54297 30.3394 5.6425 30.3807 5.71589 30.4541C5.78927 30.5274 5.8305 30.627 5.8305 30.7308Z" fill="#DB7D35"/>
<path d="M3.18525 43.8624C3.14234 43.8624 3.10112 43.8456 3.0704 43.8156C3.03969 43.7856 3.02193 43.7447 3.0209 43.7018V41.7711C3.0209 41.7274 3.03822 41.6856 3.06904 41.6548C3.09986 41.6239 3.14167 41.6066 3.18525 41.6066C3.20666 41.6066 3.22784 41.6109 3.24757 41.6192C3.26729 41.6275 3.28516 41.6397 3.30011 41.655C3.31506 41.6703 3.32679 41.6885 3.33462 41.7084C3.34245 41.7284 3.34621 41.7497 3.34569 41.7711V43.7018C3.34569 43.7444 3.32879 43.7852 3.2987 43.8153C3.26861 43.8454 3.22781 43.8624 3.18525 43.8624Z" fill="#D34646"/>
<path d="M4.69572 43.3924C4.67433 43.3929 4.65304 43.3891 4.63312 43.3813C4.6132 43.3735 4.59505 43.3617 4.57974 43.3468C4.56442 43.3318 4.55225 43.3139 4.54395 43.2942C4.53564 43.2744 4.53137 43.2532 4.53137 43.2318V41.7828C4.53137 41.7392 4.54869 41.6973 4.57951 41.6665C4.61033 41.6356 4.65213 41.6183 4.69572 41.6183C4.73863 41.6193 4.77943 41.6371 4.80941 41.6679C4.83939 41.6986 4.85617 41.7398 4.85616 41.7828V43.2318C4.85616 43.2744 4.83926 43.3153 4.80917 43.3454C4.77908 43.3755 4.73827 43.3924 4.69572 43.3924Z" fill="#D34646"/>
<path d="M6.20226 43.3924C6.15971 43.3924 6.11891 43.3755 6.08882 43.3454C6.05873 43.3153 6.04183 43.2744 6.04183 43.2318V41.7828C6.0413 41.7614 6.04507 41.7401 6.0529 41.7202C6.06073 41.7002 6.07246 41.6821 6.08741 41.6667C6.10236 41.6514 6.12022 41.6392 6.13995 41.6309C6.15967 41.6226 6.18086 41.6183 6.20226 41.6183C6.24585 41.6183 6.28765 41.6356 6.31848 41.6665C6.3493 41.6973 6.36661 41.7392 6.36661 41.7828V43.2318C6.36662 43.2532 6.36234 43.2744 6.35404 43.2942C6.34573 43.3139 6.33356 43.3318 6.31825 43.3468C6.30293 43.3617 6.28478 43.3735 6.26486 43.3813C6.24494 43.3891 6.22366 43.3929 6.20226 43.3924Z" fill="#D34646"/>
<path d="M7.7127 43.8624C7.67015 43.8624 7.62934 43.8454 7.59925 43.8153C7.56917 43.7852 7.55226 43.7444 7.55226 43.7018V41.7711C7.55174 41.7497 7.55551 41.7284 7.56333 41.7084C7.57116 41.6885 7.5829 41.6703 7.59785 41.655C7.6128 41.6397 7.63066 41.6275 7.65039 41.6192C7.67011 41.6109 7.6913 41.6066 7.7127 41.6066C7.75629 41.6066 7.79809 41.6239 7.82891 41.6548C7.85973 41.6856 7.87705 41.7274 7.87705 41.7711V43.7018C7.87603 43.7447 7.85826 43.7856 7.82755 43.8156C7.79684 43.8456 7.75562 43.8624 7.7127 43.8624Z" fill="#D34646"/>
<path d="M7.6814 42.6676V42.3428H3.21656V42.6676H7.6814Z" fill="#D34646"/>
<path d="M3.197 42.8983C3.41312 42.8983 3.58831 42.7231 3.58831 42.507C3.58831 42.2909 3.41312 42.1157 3.197 42.1157C2.98089 42.1157 2.80569 42.2909 2.80569 42.507C2.80569 42.7231 2.98089 42.8983 3.197 42.8983Z" fill="#D34646"/>
<path d="M4.69963 42.8983C4.91574 42.8983 5.09094 42.7231 5.09094 42.507C5.09094 42.2909 4.91574 42.1157 4.69963 42.1157C4.48351 42.1157 4.30832 42.2909 4.30832 42.507C4.30832 42.7231 4.48351 42.8983 4.69963 42.8983Z" fill="#D34646"/>
<path d="M6.19835 42.8983C6.41446 42.8983 6.58966 42.7231 6.58966 42.507C6.58966 42.2909 6.41446 42.1157 6.19835 42.1157C5.98223 42.1157 5.80704 42.2909 5.80704 42.507C5.80704 42.7231 5.98223 42.8983 6.19835 42.8983Z" fill="#D34646"/>
<path d="M7.70097 42.8983C7.91709 42.8983 8.09228 42.7231 8.09228 42.507C8.09228 42.2909 7.91709 42.1157 7.70097 42.1157C7.48486 42.1157 7.30966 42.2909 7.30966 42.507C7.30966 42.7231 7.48486 42.8983 7.70097 42.8983Z" fill="#D34646"/>
<path d="M9.30926 41.9938H1.58873C1.51364 41.9939 1.44157 41.9643 1.38811 41.9116C1.33465 41.8588 1.3041 41.7872 1.30307 41.7121C1.30307 41.6363 1.33317 41.5637 1.38674 41.5101C1.44031 41.4565 1.51297 41.4264 1.58873 41.4264H9.30926C9.38502 41.4264 9.45768 41.4565 9.51125 41.5101C9.56482 41.5637 9.59492 41.6363 9.59492 41.7121C9.59389 41.7872 9.56334 41.8588 9.50988 41.9116C9.45642 41.9643 9.38435 41.9939 9.30926 41.9938Z" fill="#D34646"/>
<path d="M9.95884 41.426H0.939159C0.864072 41.426 0.792001 41.3964 0.738541 41.3437C0.685081 41.291 0.654532 41.2193 0.653503 41.1443C0.653503 41.0685 0.683599 40.9958 0.73717 40.9423C0.790741 40.8887 0.863399 40.8586 0.939159 40.8586H9.95884C9.99617 40.8586 10.0331 40.866 10.0676 40.8804C10.102 40.8948 10.1332 40.9159 10.1595 40.9425C10.1857 40.9691 10.2063 41.0006 10.2203 41.0352C10.2342 41.0699 10.2411 41.1069 10.2406 41.1443C10.2406 41.219 10.2109 41.2906 10.1581 41.3435C10.1052 41.3963 10.0336 41.426 9.95884 41.426Z" fill="#D34646"/>
<path d="M9.28578 39.3626C8.84771 39.3607 8.4181 39.2418 8.04142 39.0179C7.2481 38.5387 6.33424 38.2968 5.4079 38.3208C5.09877 38.3208 5.75226 38.3208 5.4079 38.3208C5.06355 38.3208 5.77182 38.3208 5.47443 38.3208C4.55101 38.3006 3.64073 38.5423 2.84874 39.0179C2.47206 39.2418 2.04244 39.3607 1.60438 39.3626C1.23113 39.3597 0.863319 39.2727 0.528276 39.108C0.422622 40.7059 2.09351 42.0178 5.4079 42.0178C8.72229 42.0178 10.3854 40.7294 10.3071 39.1315C9.98773 39.2826 9.63904 39.3615 9.28578 39.3626Z" fill="#3E485E"/>
<path d="M0.598703 39.511V39.0884H0C0 39.2005 0.0445253 39.308 0.123781 39.3873C0.203036 39.4665 0.31053 39.511 0.422614 39.511H0.598703Z" fill="#DB7D35"/>
<path d="M10.2993 39.511V39.0884H10.898C10.898 39.2005 10.8534 39.308 10.7742 39.3873C10.6949 39.4665 10.5874 39.511 10.4753 39.511H10.2993Z" fill="#DB7D35"/>
<path d="M9.34838 39.1628C8.94349 39.1611 8.54331 39.0757 8.17296 38.912C7.8026 38.7482 7.47006 38.5096 7.19618 38.2112C6.37443 38.2503 6.41356 38.3052 5.42746 38.3052C4.44136 38.3052 4.51962 38.2543 3.71352 38.2151C3.43989 38.5125 3.10786 38.7502 2.73819 38.9133C2.36853 39.0764 1.96921 39.1613 1.56523 39.1628C1.19084 39.1621 0.820119 39.089 0.47348 38.9474C0.47348 38.9709 0.47348 38.9983 0.47348 39.0258C0.47348 40.326 2.15611 41.3755 5.43528 41.3755C8.71446 41.3755 10.3971 40.3221 10.3971 39.0258C10.3971 39.0258 10.3971 38.9866 10.3971 38.967C10.0628 39.0973 9.7071 39.1637 9.34838 39.1628Z" fill="#4E6186"/>
<path d="M3.18525 48.8008C3.16386 48.8013 3.14257 48.7975 3.12266 48.7897C3.10274 48.7819 3.08459 48.7701 3.06927 48.7552C3.05396 48.7402 3.04179 48.7223 3.03348 48.7026C3.02517 48.6828 3.0209 48.6616 3.0209 48.6402V46.7095C3.0209 46.6881 3.02517 46.6669 3.03348 46.6471C3.04179 46.6274 3.05396 46.6095 3.06927 46.5945C3.08459 46.5796 3.10274 46.5678 3.12266 46.56C3.14257 46.5522 3.16386 46.5484 3.18525 46.5489C3.22781 46.5489 3.26861 46.5658 3.2987 46.596C3.32879 46.6261 3.34569 46.6669 3.34569 46.7095V48.6402C3.34569 48.6828 3.32879 48.7236 3.2987 48.7538C3.26861 48.7839 3.22781 48.8008 3.18525 48.8008Z" fill="#D34646"/>
<path d="M4.69572 48.323C4.65213 48.323 4.61033 48.3057 4.57951 48.2748C4.54869 48.244 4.53137 48.2021 4.53137 48.1585V46.7095C4.53137 46.6881 4.53564 46.6669 4.54395 46.6471C4.55225 46.6274 4.56442 46.6095 4.57974 46.5945C4.59505 46.5796 4.6132 46.5678 4.63312 46.56C4.65304 46.5522 4.67433 46.5484 4.69572 46.5489C4.73827 46.5489 4.77908 46.5658 4.80917 46.596C4.83926 46.6261 4.85616 46.6669 4.85616 46.7095V48.1703C4.85324 48.2111 4.83518 48.2495 4.8055 48.2777C4.77582 48.306 4.73667 48.3221 4.69572 48.323Z" fill="#D34646"/>
<path d="M6.20226 48.323C6.18086 48.323 6.15967 48.3187 6.13995 48.3104C6.12022 48.3021 6.10236 48.2899 6.08741 48.2746C6.07246 48.2593 6.06073 48.2411 6.0529 48.2212C6.04507 48.2012 6.0413 48.1799 6.04183 48.1585V46.7095C6.04183 46.6669 6.05873 46.6261 6.08882 46.596C6.11891 46.5658 6.15971 46.5489 6.20226 46.5489C6.22366 46.5484 6.24494 46.5522 6.26486 46.56C6.28478 46.5678 6.30293 46.5796 6.31825 46.5945C6.33356 46.6095 6.34573 46.6274 6.35404 46.6471C6.36234 46.6669 6.36662 46.6881 6.36661 46.7095V48.1703C6.36364 48.2118 6.34502 48.2507 6.31451 48.279C6.28401 48.3074 6.24389 48.3231 6.20226 48.323Z" fill="#D34646"/>
<path d="M7.71271 48.8008C7.67016 48.8008 7.62936 48.7839 7.59927 48.7538C7.56918 48.7236 7.55228 48.6828 7.55228 48.6402V46.7095C7.55228 46.6669 7.56918 46.6261 7.59927 46.596C7.62936 46.5658 7.67016 46.5489 7.71271 46.5489C7.73411 46.5484 7.75539 46.5522 7.77531 46.56C7.79523 46.5678 7.81338 46.5796 7.8287 46.5945C7.84401 46.6095 7.85618 46.6274 7.86449 46.6471C7.87279 46.6669 7.87707 46.6881 7.87706 46.7095V48.6402C7.87707 48.6616 7.87279 48.6828 7.86449 48.7026C7.85618 48.7223 7.84401 48.7402 7.8287 48.7552C7.81338 48.7701 7.79523 48.7819 7.77531 48.7897C7.75539 48.7975 7.73411 48.8013 7.71271 48.8008Z" fill="#D34646"/>
<path d="M7.6814 47.5982V47.2734H3.21655V47.5982H7.6814Z" fill="#D34646"/>
<path d="M3.197 47.825C3.41312 47.825 3.58831 47.6498 3.58831 47.4337C3.58831 47.2176 3.41312 47.0424 3.197 47.0424C2.98089 47.0424 2.80569 47.2176 2.80569 47.4337C2.80569 47.6498 2.98089 47.825 3.197 47.825Z" fill="#D34646"/>
<path d="M4.69963 47.825C4.91574 47.825 5.09094 47.6498 5.09094 47.4337C5.09094 47.2176 4.91574 47.0424 4.69963 47.0424C4.48351 47.0424 4.30832 47.2176 4.30832 47.4337C4.30832 47.6498 4.48351 47.825 4.69963 47.825Z" fill="#D34646"/>
<path d="M6.19835 47.825C6.41446 47.825 6.58966 47.6498 6.58966 47.4337C6.58966 47.2176 6.41446 47.0424 6.19835 47.0424C5.98223 47.0424 5.80704 47.2176 5.80704 47.4337C5.80704 47.6498 5.98223 47.825 6.19835 47.825Z" fill="#D34646"/>
<path d="M7.70097 47.825C7.91709 47.825 8.09228 47.6498 8.09228 47.4337C8.09228 47.2176 7.91709 47.0424 7.70097 47.0424C7.48486 47.0424 7.30966 47.2176 7.30966 47.4337C7.30966 47.6498 7.48486 47.825 7.70097 47.825Z" fill="#D34646"/>
<path d="M9.30926 46.9244H1.58873C1.51297 46.9244 1.44031 46.8943 1.38674 46.8407C1.33317 46.7872 1.30307 46.7145 1.30307 46.6388C1.30307 46.563 1.33317 46.4903 1.38674 46.4368C1.44031 46.3832 1.51297 46.3531 1.58873 46.3531H9.30926C9.38502 46.3531 9.45768 46.3832 9.51125 46.4368C9.56482 46.4903 9.59492 46.563 9.59492 46.6388C9.59492 46.7145 9.56482 46.7872 9.51125 46.8407C9.45768 46.8943 9.38502 46.9244 9.30926 46.9244Z" fill="#D34646"/>
<path d="M9.95884 46.3526H0.939159C0.864072 46.3527 0.792001 46.3231 0.738541 46.2704C0.685081 46.2176 0.654532 46.146 0.653503 46.0709C0.653503 45.9951 0.683599 45.9225 0.73717 45.8689C0.790741 45.8153 0.863399 45.7852 0.939159 45.7852H9.95884C10.0339 45.7863 10.1056 45.8168 10.1583 45.8703C10.211 45.9237 10.2406 45.9958 10.2406 46.0709C10.2406 46.1456 10.2109 46.2173 10.1581 46.2701C10.1052 46.323 10.0336 46.3526 9.95884 46.3526Z" fill="#D34646"/>
<path d="M9.28578 44.2892C8.84748 44.2892 8.41741 44.17 8.04142 43.9446C7.24657 43.4689 6.33378 43.2273 5.4079 43.2475C5.09877 43.2475 5.75226 43.2475 5.4079 43.2475C5.06355 43.2475 5.77182 43.2475 5.47443 43.2475C4.55101 43.2273 3.64073 43.469 2.84874 43.9446C2.5007 44.1536 2.10563 44.2714 1.70004 44.2872C1.29445 44.3029 0.891446 44.2161 0.528276 44.0347C0.422622 45.6364 2.09351 46.9484 5.4079 46.9484C8.72229 46.9484 10.3658 45.6482 10.2875 44.0621C9.97384 44.2091 9.63214 44.2866 9.28578 44.2892Z" fill="#3E485E"/>
<path d="M0.598703 44.4377V44.0151H0C0 44.1272 0.0445253 44.2347 0.123781 44.314C0.203036 44.3932 0.31053 44.4377 0.422614 44.4377H0.598703Z" fill="#DB7D35"/>
<path d="M10.2993 44.4377V44.0151H10.898C10.898 44.1272 10.8534 44.2347 10.7742 44.314C10.6949 44.3932 10.5874 44.4377 10.4753 44.4377H10.2993Z" fill="#DB7D35"/>
<path d="M9.34838 44.1052C8.94374 44.1042 8.54367 44.0195 8.1733 43.8564C7.80292 43.6933 7.47025 43.4554 7.19618 43.1574C6.37443 43.1966 6.41356 43.2475 5.42746 43.2475C4.44136 43.2475 4.51962 43.1966 3.71352 43.1574C3.43989 43.4549 3.10786 43.6926 2.73819 43.8557C2.36853 44.0187 1.96921 44.1037 1.56523 44.1052C1.19084 44.1045 0.820119 44.0313 0.47348 43.8898C0.47348 43.9172 0.47348 43.9407 0.47348 43.9681C0.47348 45.2683 2.15611 46.3179 5.43528 46.3179C8.71446 46.3179 10.3971 45.2605 10.3971 43.9681C10.3971 43.9681 10.3971 43.9289 10.3971 43.9133C10.062 44.0403 9.70668 44.1054 9.34838 44.1052Z" fill="#4E6186"/>
<path d="M3.18525 53.7314C3.14167 53.7314 3.09986 53.714 3.06904 53.6832C3.03822 53.6524 3.0209 53.6105 3.0209 53.5669V51.6401C3.0209 51.5965 3.03822 51.5546 3.06904 51.5238C3.09986 51.4929 3.14167 51.4756 3.18525 51.4756C3.20666 51.4756 3.22784 51.4799 3.24757 51.4882C3.26729 51.4965 3.28516 51.5087 3.30011 51.524C3.31506 51.5393 3.32679 51.5575 3.33462 51.5774C3.34245 51.5974 3.34621 51.6187 3.34569 51.6401V53.5669C3.34621 53.5883 3.34245 53.6096 3.33462 53.6295C3.32679 53.6495 3.31506 53.6676 3.30011 53.683C3.28516 53.6983 3.26729 53.7105 3.24757 53.7188C3.22784 53.7271 3.20666 53.7314 3.18525 53.7314Z" fill="#D34646"/>
<path d="M4.69572 53.2614C4.65213 53.2614 4.61033 53.2441 4.57951 53.2133C4.54869 53.1824 4.53137 53.1406 4.53137 53.097V51.6518C4.53137 51.6082 4.54869 51.5664 4.57951 51.5355C4.61033 51.5047 4.65213 51.4874 4.69572 51.4874C4.73863 51.4884 4.77943 51.5062 4.80941 51.5369C4.83939 51.5676 4.85617 51.6089 4.85616 51.6518V53.097C4.85617 53.1399 4.83939 53.1812 4.80941 53.2119C4.77943 53.2426 4.73863 53.2604 4.69572 53.2614Z" fill="#D34646"/>
<path d="M6.20226 53.2614C6.18086 53.2614 6.15967 53.2572 6.13995 53.2489C6.12022 53.2405 6.10236 53.2284 6.08741 53.213C6.07246 53.1977 6.06073 53.1795 6.0529 53.1596C6.04507 53.1397 6.0413 53.1184 6.04183 53.097V51.6518C6.0413 51.6304 6.04507 51.6091 6.0529 51.5892C6.06073 51.5693 6.07246 51.5511 6.08741 51.5358C6.10236 51.5204 6.12022 51.5083 6.13995 51.5C6.15967 51.4916 6.18086 51.4874 6.20226 51.4874C6.24585 51.4874 6.28765 51.5047 6.31848 51.5355C6.3493 51.5664 6.36661 51.6082 6.36661 51.6518V53.097C6.36661 53.1406 6.3493 53.1824 6.31848 53.2133C6.28765 53.2441 6.24585 53.2614 6.20226 53.2614Z" fill="#D34646"/>
<path d="M7.7127 53.7314C7.6913 53.7314 7.67011 53.7271 7.65039 53.7188C7.63066 53.7105 7.6128 53.6983 7.59785 53.683C7.5829 53.6676 7.57116 53.6495 7.56333 53.6295C7.55551 53.6096 7.55174 53.5883 7.55226 53.5669V51.6401C7.55174 51.6187 7.55551 51.5974 7.56333 51.5774C7.57116 51.5575 7.5829 51.5393 7.59785 51.524C7.6128 51.5087 7.63066 51.4965 7.65039 51.4882C7.67011 51.4799 7.6913 51.4756 7.7127 51.4756C7.75629 51.4756 7.79809 51.4929 7.82891 51.5238C7.85973 51.5546 7.87705 51.5965 7.87705 51.6401V53.5669C7.87705 53.6105 7.85973 53.6524 7.82891 53.6832C7.79809 53.714 7.75629 53.7314 7.7127 53.7314Z" fill="#D34646"/>
<path d="M7.6814 52.5249V52.2001H3.21655V52.5249H7.6814Z" fill="#D34646"/>
<path d="M3.197 52.7517C3.41312 52.7517 3.58831 52.5765 3.58831 52.3604C3.58831 52.1443 3.41312 51.9691 3.197 51.9691C2.98089 51.9691 2.80569 52.1443 2.80569 52.3604C2.80569 52.5765 2.98089 52.7517 3.197 52.7517Z" fill="#D34646"/>
<path d="M4.69963 52.7517C4.91574 52.7517 5.09094 52.5765 5.09094 52.3604C5.09094 52.1443 4.91574 51.9691 4.69963 51.9691C4.48351 51.9691 4.30832 52.1443 4.30832 52.3604C4.30832 52.5765 4.48351 52.7517 4.69963 52.7517Z" fill="#D34646"/>
<path d="M6.19835 52.7517C6.41446 52.7517 6.58966 52.5765 6.58966 52.3604C6.58966 52.1443 6.41446 51.9691 6.19835 51.9691C5.98223 51.9691 5.80704 52.1443 5.80704 52.3604C5.80704 52.5765 5.98223 52.7517 6.19835 52.7517Z" fill="#D34646"/>
<path d="M7.70097 52.7517C7.91709 52.7517 8.09228 52.5765 8.09228 52.3604C8.09228 52.1443 7.91709 51.9691 7.70097 51.9691C7.48486 51.9691 7.30966 52.1443 7.30966 52.3604C7.30966 52.5765 7.48486 52.7517 7.70097 52.7517Z" fill="#D34646"/>
<path d="M9.30926 51.8511H1.58873C1.51297 51.8511 1.44031 51.821 1.38674 51.7675C1.33317 51.7139 1.30307 51.6412 1.30307 51.5655C1.3041 51.4904 1.33465 51.4187 1.38811 51.366C1.44157 51.3133 1.51364 51.2837 1.58873 51.2837H9.30926C9.38435 51.2837 9.45642 51.3133 9.50988 51.366C9.56334 51.4187 9.59389 51.4904 9.59492 51.5655C9.59492 51.6412 9.56482 51.7139 9.51125 51.7675C9.45768 51.821 9.38502 51.8511 9.30926 51.8511Z" fill="#D34646"/>
<path d="M9.95884 51.3028H0.939159C0.863399 51.3028 0.790741 51.2727 0.73717 51.2192C0.683599 51.1656 0.653503 51.0929 0.653503 51.0172C0.654532 50.9421 0.685081 50.8704 0.738541 50.8177C0.792001 50.765 0.864072 50.7354 0.939159 50.7354H9.95884C10.0336 50.7354 10.1052 50.7651 10.1581 50.818C10.2109 50.8708 10.2406 50.9425 10.2406 51.0172C10.2406 51.0923 10.211 51.1643 10.1583 51.2178C10.1056 51.2713 10.0339 51.3018 9.95884 51.3028Z" fill="#D34646"/>
<path d="M9.28578 49.2198C8.84771 49.218 8.41809 49.099 8.04141 48.8752C7.24806 48.3952 6.33475 48.1507 5.4079 48.1703C5.09877 48.1703 5.75225 48.1703 5.4079 48.1703C5.06355 48.1703 5.77182 48.1703 5.47442 48.1703C4.55078 48.1481 3.63997 48.3899 2.84874 48.8674C2.47206 49.0912 2.04244 49.2102 1.60437 49.212C1.23722 49.2067 0.876026 49.1183 0.547837 48.9535C0.442184 50.5514 2.11307 51.8633 5.42747 51.8633C8.74186 51.8633 10.3854 50.5631 10.3071 48.977C9.98802 49.1304 9.63968 49.2132 9.28578 49.2198Z" fill="#3E485E"/>
<path d="M0.598703 49.3644V48.9535H3.99337e-10C-2.41539e-06 49.0089 0.0109559 49.0636 0.0322419 49.1147C0.0535278 49.1657 0.0847195 49.2121 0.124015 49.251C0.16331 49.2899 0.209931 49.3207 0.261182 49.3415C0.312434 49.3623 0.367301 49.3728 0.422614 49.3722L0.598703 49.3644Z" fill="#DB7D35"/>
<path d="M10.2993 49.3644V48.9535H10.898C10.898 49.0089 10.887 49.0636 10.8657 49.1147C10.8444 49.1657 10.8132 49.2121 10.7739 49.251C10.7346 49.2899 10.688 49.3207 10.6368 49.3415C10.5855 49.3623 10.5307 49.3728 10.4753 49.3722L10.2993 49.3644Z" fill="#DB7D35"/>
<path d="M9.34838 49.0319C8.94374 49.0309 8.54367 48.9462 8.1733 48.7831C7.80292 48.62 7.47025 48.382 7.19618 48.0841C6.37443 48.1233 6.41356 48.1742 5.42746 48.1742C4.44136 48.1742 4.51962 48.1233 3.71352 48.088C3.43911 48.3842 3.10683 48.6208 2.73729 48.7832C2.36774 48.9455 1.96881 49.0302 1.56523 49.0319C1.19084 49.0312 0.820119 48.958 0.47348 48.8165C0.47348 48.8439 0.47348 48.8674 0.47348 48.8948C0.47348 50.1989 2.15611 51.2446 5.43528 51.2446C8.71446 51.2446 10.3971 50.1911 10.3971 48.8948C10.3971 48.8948 10.3971 48.8595 10.3971 48.84C10.062 48.967 9.70668 49.0321 9.34838 49.0319Z" fill="#4E6186"/>
<path d="M3.34569 56.3514H3.0209V59.4922H3.34569V56.3514Z" fill="#D34646"/>
<path d="M4.85616 56.3514H4.53137V59.4922H4.85616V56.3514Z" fill="#D34646"/>
<path d="M6.3666 56.3514H6.04181V59.4922H6.3666V56.3514Z" fill="#D34646"/>
<path d="M7.87706 56.3514H7.55228V59.4922H7.87706V56.3514Z" fill="#D34646"/>
<path d="M7.67749 57.4007V57.0759H3.21265V57.4007H7.67749Z" fill="#D34646"/>
<path d="M3.197 57.6274C3.41312 57.6274 3.58831 57.4522 3.58831 57.2361C3.58831 57.02 3.41312 56.8448 3.197 56.8448C2.98089 56.8448 2.80569 57.02 2.80569 57.2361C2.80569 57.4522 2.98089 57.6274 3.197 57.6274Z" fill="#D34646"/>
<path d="M4.69963 57.6274C4.91574 57.6274 5.09094 57.4522 5.09094 57.2361C5.09094 57.02 4.91574 56.8448 4.69963 56.8448C4.48351 56.8448 4.30832 57.02 4.30832 57.2361C4.30832 57.4522 4.48351 57.6274 4.69963 57.6274Z" fill="#D34646"/>
<path d="M6.19835 57.6274C6.41446 57.6274 6.58966 57.4522 6.58966 57.2361C6.58966 57.02 6.41446 56.8448 6.19835 56.8448C5.98223 56.8448 5.80704 57.02 5.80704 57.2361C5.80704 57.4522 5.98223 57.6274 6.19835 57.6274Z" fill="#D34646"/>
<path d="M7.70097 57.6274C7.91709 57.6274 8.09228 57.4522 8.09228 57.2361C8.09228 57.02 7.91709 56.8448 7.70097 56.8448C7.48486 56.8448 7.30966 57.02 7.30966 57.2361C7.30966 57.4522 7.48486 57.6274 7.70097 57.6274Z" fill="#D34646"/>
<path d="M7.6814 58.5951V58.2704H3.21655V58.5951H7.6814Z" fill="#D34646"/>
<path d="M3.197 58.8259C3.41312 58.8259 3.58831 58.6507 3.58831 58.4346C3.58831 58.2184 3.41312 58.0432 3.197 58.0432C2.98089 58.0432 2.80569 58.2184 2.80569 58.4346C2.80569 58.6507 2.98089 58.8259 3.197 58.8259Z" fill="#D34646"/>
<path d="M4.69963 58.8259C4.91574 58.8259 5.09094 58.6507 5.09094 58.4346C5.09094 58.2184 4.91574 58.0432 4.69963 58.0432C4.48351 58.0432 4.30832 58.2184 4.30832 58.4346C4.30832 58.6507 4.48351 58.8259 4.69963 58.8259Z" fill="#D34646"/>
<path d="M6.19835 58.8259C6.41446 58.8259 6.58966 58.6507 6.58966 58.4346C6.58966 58.2184 6.41446 58.0432 6.19835 58.0432C5.98223 58.0432 5.80704 58.2184 5.80704 58.4346C5.80704 58.6507 5.98223 58.8259 6.19835 58.8259Z" fill="#D34646"/>
<path d="M7.70097 58.8259C7.91709 58.8259 8.09228 58.6507 8.09228 58.4346C8.09228 58.2184 7.91709 58.0432 7.70097 58.0432C7.48486 58.0432 7.30966 58.2184 7.30966 58.4346C7.30966 58.6507 7.48486 58.8259 7.70097 58.8259Z" fill="#D34646"/>
<path d="M9.30926 56.723H1.58873C1.51364 56.723 1.44157 56.6934 1.38811 56.6407C1.33465 56.588 1.3041 56.5163 1.30307 56.4412C1.30307 56.3655 1.33317 56.2928 1.38674 56.2392C1.44031 56.1857 1.51297 56.1556 1.58873 56.1556H9.30926C9.38502 56.1556 9.45768 56.1857 9.51125 56.2392C9.56482 56.2928 9.59492 56.3655 9.59492 56.4412C9.59389 56.5163 9.56334 56.588 9.50988 56.6407C9.45642 56.6934 9.38435 56.723 9.30926 56.723Z" fill="#D34646"/>
<path d="M9.95884 56.1551H0.939159C0.864072 56.1551 0.792001 56.1256 0.738541 56.0728C0.685081 56.0201 0.654532 55.9485 0.653503 55.8734C0.653503 55.7976 0.683599 55.725 0.73717 55.6714C0.790741 55.6178 0.863399 55.5877 0.939159 55.5877H9.95884C10.0339 55.5888 10.1056 55.6193 10.1583 55.6728C10.211 55.7262 10.2406 55.7983 10.2406 55.8734C10.2406 55.9481 10.2109 56.0198 10.1581 56.0726C10.1052 56.1254 10.0336 56.1551 9.95884 56.1551Z" fill="#D34646"/>
<path d="M9.28578 54.0917C8.84748 54.0916 8.41741 53.9725 8.04142 53.7471C7.24733 53.2696 6.33401 53.0279 5.4079 53.05C5.09877 53.05 5.75226 53.05 5.4079 53.05C5.06355 53.05 5.77182 53.05 5.47443 53.05C4.55101 53.0298 3.64073 53.2714 2.84874 53.7471C2.47275 53.9725 2.04268 54.0916 1.60438 54.0917C1.23113 54.0888 0.863319 54.0018 0.528276 53.8371C0.422622 55.435 2.09351 56.7469 5.4079 56.7469C8.72229 56.7469 10.3658 55.4506 10.2875 53.8606C9.97414 54.009 9.63243 54.0878 9.28578 54.0917Z" fill="#3E485E"/>
<path d="M0.598703 54.2402V53.8176H0C0 53.873 0.0109312 53.928 0.0321696 53.9793C0.0534079 54.0306 0.0845375 54.0771 0.123781 54.1164C0.163024 54.1556 0.209613 54.1868 0.260887 54.208C0.312161 54.2292 0.367116 54.2402 0.422614 54.2402H0.598703Z" fill="#DB7D35"/>
<path d="M10.2993 54.2402V53.8176H10.898C10.898 53.873 10.887 53.928 10.8658 53.9793C10.8446 54.0306 10.8134 54.0771 10.7742 54.1164C10.7349 54.1556 10.6883 54.1868 10.6371 54.208C10.5858 54.2292 10.5308 54.2402 10.4753 54.2402H10.2993Z" fill="#DB7D35"/>
<path d="M9.34838 53.9076C8.94374 53.9067 8.54367 53.822 8.1733 53.6589C7.80292 53.4958 7.47025 53.2578 7.19618 52.9599C6.37443 52.9951 6.41356 53.0499 5.42746 53.0499C4.44136 53.0499 4.51962 52.999 3.71352 52.9599C3.43989 53.2573 3.10786 53.495 2.73819 53.6581C2.36853 53.8212 1.96921 53.9061 1.56523 53.9076C1.19084 53.9069 0.820119 53.8338 0.47348 53.6922C0.47348 53.7157 0.47348 53.7431 0.47348 53.7705C0.47348 55.0707 2.15611 56.1203 5.43528 56.1203C8.71446 56.1203 10.3971 55.0668 10.3971 53.7705C10.3971 53.751 10.3971 53.7314 10.3971 53.7118C10.0628 53.842 9.7071 53.9084 9.34838 53.9076Z" fill="#4E6186"/>
<path d="M2.44568 60.3074V61H8.45228V60.3074H2.44568Z" fill="#3E485E"/>
<path d="M1.96439 60.1583V60.1348H8.93361V60.1583C8.93361 60.2004 8.9253 60.2421 8.90918 60.281C8.89305 60.32 8.86942 60.3553 8.83962 60.3851C8.80983 60.4149 8.77446 60.4386 8.73553 60.4547C8.6966 60.4708 8.65487 60.4791 8.61273 60.4791H2.28526C2.24312 60.4791 2.2014 60.4708 2.16246 60.4547C2.12353 60.4386 2.08816 60.4149 2.05837 60.3851C2.02857 60.3553 2.00494 60.32 1.98881 60.281C1.97269 60.2421 1.96439 60.2004 1.96439 60.1583Z" fill="#DB7D35"/>
<path d="M2.55525 60.1651H2.16394V59.2024C2.26772 59.2024 2.36725 59.2437 2.44064 59.317C2.51402 59.3904 2.55525 59.49 2.55525 59.5937V60.1651Z" fill="#DB7D35"/>
<path d="M8.34271 60.1651H8.73402V59.2024C8.63024 59.2024 8.53071 59.2437 8.45732 59.317C8.38394 59.3904 8.34271 59.49 8.34271 59.5937V60.1651Z" fill="#DB7D35"/>
<path d="M8.62054 59.3708H2.32437V59.5587H8.62054V59.3708Z" fill="#DB7D35"/>
<path d="M3.33005 60.2357V59.4374H3.14222V60.2357H3.33005Z" fill="#DB7D35"/>
<path d="M4.24179 60.2357V59.4374H4.05396V60.2357H4.24179Z" fill="#DB7D35"/>
<path d="M5.15353 60.2396V59.4413H4.96571V60.2396H5.15353Z" fill="#DB7D35"/>
<path d="M6.06921 60.2357V59.4374H5.88139V60.2357H6.06921Z" fill="#DB7D35"/>
<path d="M6.98096 60.2357V59.4374H6.79313V60.2357H6.98096Z" fill="#DB7D35"/>
<path d="M7.8927 60.2396V59.4413H7.70487V60.2396H7.8927Z" fill="#DB7D35"/>
<path d="M8.62054 59.7272H2.32437V59.8251H8.62054V59.7272Z" fill="#DB7D35"/>
</g>
<defs>
<clipPath id="clip0">
<rect width="134" height="61" fill="white"/>
</clipPath>
</defs>
</svg>
